<svg xmlns="http://www.w3.org/2000/svg" width="568" height="656.631" viewBox="0 0 568 656.631"><g transform="translate(-19.619 -16.555)"><g transform="translate(19.619 16.555)"><g transform="translate(3.638 11.347)"><path d="M580.038,676.237H137.829l-7.072-7.354H26.2V37.073H422.474l9.961,10.359h147.6Zm-441.707-1.261H578.826V48.693H431.933l-9.961-10.359H27.411V667.623H131.259Z" transform="translate(-26.198 -37.073)" fill="#0068e8"/></g><g transform="translate(7.578 15.445)" opacity="0.1" style="mix-blend-mode:screen;isolation:isolate"><path d="M143.017,675.391l-7.071-7.354H33.872V45.054H424.146l9.962,10.359H579.224V675.391Z" transform="translate(-33.568 -44.739)" fill="#0068e8"/><path d="M579.282,675.452H142.646l-7.071-7.354H33.323V44.484h390.7l9.962,10.358H579.282Zm-436.385-.63H578.676V55.473H433.737l-9.962-10.358H33.93V667.467h101.9Z" transform="translate(-33.323 -44.484)" fill="#4dffff"/></g><g transform="translate(560.724 42.228)"><g transform="translate(0 0)"><rect width="7.276" height="60.495" fill="#4dffff"/></g><g transform="translate(0 68.341)"><rect width="7.276" height="5.154" fill="#4dffff"/></g><g transform="translate(0 76.051)"><rect width="7.276" height="5.154" fill="#4dffff"/></g><g transform="translate(0 83.761)"><rect width="7.276" height="5.153" fill="#4dffff"/></g><g transform="translate(0 91.471)"><rect width="7.276" height="5.154" fill="#4dffff"/></g></g><g transform="translate(0.606 648.201)"><path d="M131.563,1197.132l-6.895-7.169H20.716V1188.7H125.17l7.25,7.539Z" transform="translate(-20.716 -1188.702)" fill="#0068e8"/></g><g transform="translate(402.872 5.226)"><path d="M905.774,37.441h-147.5L748.137,26.9l.857-.892,9.784,10.174h147Z" transform="translate(-748.137 -26.006)" fill="#0068e8"/></g><g transform="translate(0 26.321)"><g transform="translate(0)"><rect width="8.489" height="2.522" fill="#4dffff"/></g><g transform="translate(0 8.801)"><path d="M28.108,209.425H19.619V204.4h8.489Zm0-11.3H19.619V193.1h8.489Zm0-11.3H19.619v-5.024h8.489Zm0-11.3H19.619v-5.023h8.489Zm0-11.3H19.619v-5.023h8.489Zm0-11.3H19.619v-5.023h8.489Zm0-11.3H19.619v-5.023h8.489Zm0-11.3H19.619V125.28h8.489Zm0-11.3H19.619v-5.023h8.489Zm0-11.3H19.619v-5.023h8.489Zm0-11.3H19.619V91.37h8.489Zm0-11.3H19.619V80.067h8.489Z" transform="translate(-19.619 -80.067)" fill="#4dffff"/></g><g transform="translate(0 144.438)"><rect width="8.489" height="2.522" transform="translate(0 0)" fill="#4dffff"/></g></g><path d="M88.131,16.555H301.938l16.615,23.954H88.131Zm-6.607,0H71.98V40.509h9.544Zm-21.29,0H49.928V40.509H60.234Z" transform="translate(-33.167 -16.555)" fill="#0068e8"/><path d="M316.078,1168.544h-1.59v-7.8h1.59Zm3.089-7.8h-1.59v7.8h1.59Zm3.089,0h-1.59v7.8h1.59Zm3.089,0h-1.59v7.8h1.59Zm3.089,0h-1.59v7.8h1.59Zm3.089,0h-1.589v7.8h1.589Zm3.089,0h-1.59v7.8h1.59Zm3.089,0h-1.59v7.8h1.59Zm3.089,0H339.2v7.8h1.59Zm3.089,0h-1.59v7.8h1.59Zm3.089,0h-1.59v7.8h1.59Zm3.089,0h-1.59v7.8h1.59Zm3.089,0h-1.59v7.8h1.59Zm3.089,0h-1.59v7.8h1.59Zm3.089,0h-1.59v7.8h1.59Zm3.089,0h-1.59v7.8h1.59Zm3.089,0h-1.589v7.8H365.5Zm3.089,0H367v7.8h1.59Zm3.089,0h-1.59v7.8h1.59Zm3.089,0h-1.59v7.8h1.59Zm3.089,0h-1.59v7.8h1.59Z" transform="translate(-151.425 -528.005)" fill="#0068e8"/></g><g transform="translate(145.578 85.021)"><path d="M330.832,145.286h7.69v17.487h-2.08v-5.531H322.694l-.763,5.531h-2.08l2.185-15.564-.526.632H318.77l6.268-7.479h9.929Zm-7.426,6.952-.421,3.055h5.767v-3.055Zm2.739-9.928-2.5,2.976h4.5l2.5-2.976Zm2.607,4.924h-4.635l-.448,3.055h5.083Zm7.69,3.055v-3.055H330.8v3.055Zm-5.636,5h5.636v-3.055H330.8Z" transform="translate(-279.298 -140.362)" fill="#4dffff"/><path d="M387.946,160.768v1.975H368.958V147.811h-2.475l5.557-6.926h11.219l-5,6.242h8.19v8.77H371.012v4.872Zm-18.277-13.641h6.058l3.45-4.292H373.12Zm1.343,1.949v4.872h5.662v-4.872Zm13.378,0h-5.715v4.872h5.715Z" transform="translate(-300.625 -140.596)" fill="#4dffff"/><path d="M293.5,258.053v2.607l-11.113-8.533-11.14,8.585v-2.581l10.087-7.8v-4.924h-9.692v-2.028h9.692v-5.452h2.054v5.452h9.718v2.028h-9.718v4.872Z" transform="translate(-258.056 -183.976)" fill="#4dffff"/><path d="M323.79,246.019v8.348l2.265-1.212v2.107l-7.19,3.845v-2.133l3.029-1.607v-9.349h-3.029v-1.87h3.029v-5.241h1.9v5.241h2.239v1.87Zm6.162,1.159v11.3h10.956v1.949H327.977V247.889l-2.186.764v-2l2.186-.79v-6.242h1.975v5.557l2.476-.9v-6.11H334.4V243.6l6.611-2.37L339.065,256H335.4v-1.791h1.922L338.7,244.1l-4.293,1.5v8.48h-1.975v-7.769Z" transform="translate(-279.34 -184.082)" fill="#4dffff"/><path d="M380.459,252.678h7.664v7.874h-5.057v-1.712h3.081v-4.266H378.3l-7.058,6.242h-2.95l7.085-6.242H368.74v-1.9h8.8l1.106-.974h2.923Zm6.794-10.64v9.323H369.662v-9.323h6.663l-1.791-1.317h3.187l1.791,1.317h.58l1.791-1.791H370.557v-1.791h15.854l-3.582,3.581Zm-9.8,1.844h-5.872v1.791h5.872Zm-5.872,3.582v2.08h5.872v-2.08Zm13.747-1.791v-1.791h-5.952v1.791Zm-5.952,3.872h5.952v-2.08h-5.952Z" transform="translate(-301.434 -184.21)" fill="#4dffff"/><path d="M436.09,247.677H424.9l-1.87,1.686H433.3v11.008H420.5v-8.743l-6.4,5.767v-2.66l7.848-7.058h-7.585v-2h8.48V242.7h-5.609v-1.975h5.609v-2.792H424.9v2.792h3.9v.764l3.213-2.9h2.976l-7.874,7.085h8.98Zm-4.74,6v-2.344h-8.9v2.344Zm-8.9,4.714h8.9V255.6h-8.9Zm5-15.7H424.9v2.318Z" transform="translate(-321.91 -183.976)" fill="#4dffff"/><path d="M253.923,348.679h4.082v1.949h-4.082v1.133l3.424,2.739v2.37l-3.424-2.739v4.451h-1.975v-4.556l-4.556,3.634v-2.423l4.556-3.634v-.974H247.6v-1.949h4.345v-2.818h1.975Zm3.529-5.741-9.507,3.477v-2.028l9.507-3.45v-.711h-9.243v-1.949h9.243v-2.344h2v2.344h9.4v1.949h-9.4v.632l9.691,3.529v2.028l-9.691-3.529v3.924h-2Zm12.22,14.8-4.556-3.635v4.478H263.14v-4.32l-4.082,3.265v-2.344l4.082-3.239v-1.317h-4.082v-1.949h4.082v-2.818h1.975v2.818h4.372v1.949h-4.372v1.027l4.556,3.634Z" transform="translate(-247.392 -227.782)" fill="#4dffff"/><path d="M301.727,336.171v3.95h3.634v1.9h-3.634v4.556l3.319,3.739v2.871l-3.319-3.739v9.244h-1.975v-8.875l-4.266,6.083v-3.45l4.266-6.084v-4.346h-3.818v-1.9h3.818v-3.95ZM317.5,353.315v3.45l-5.056-7.19v9.112H310.47v-8.954l-4.9,6.926v-3.345l4.9-6.926v-4.372h-3.845v-1.9h3.845v-3.95h1.976v3.95h4.4v1.9h-4.4v4.108Z" transform="translate(-268.89 -227.888)" fill="#4dffff"/><path d="M348.895,348.913h16.512L363.3,359H355.32v-1.922h6.268l1.264-6.163H346.1l2.239-7.3h13.431v-4.134H347.051v-2.028h16.8v8.19H349.895Z" transform="translate(-291.516 -228.463)" fill="#4dffff"/><path d="M393.4,339.172l-.869,1.5h-2.239l2.738-4.74h2.239l-.869,1.5h7.058v1.738h-3.291l.9,1.554H396.9l-.9-1.554Zm13.8,2.239-1.474,1.9H412.2v1.844H390.607v-1.844h6l-1.448-1.9h2.528l1.475,1.9H403.2l1.448-1.9Zm-15.037,17.171V346.256h8.454v12.325h-1.9v-4.03H394.03v4.03Zm6.558-10.535H394.03V349.5h4.688Zm-4.688,4.714h4.688v-1.475H394.03Zm11.088-15.328h7.163v1.738H408.12l.9,1.554h-2.16l-.9-1.554h-1.843l-.948,1.633h-2.238l2.818-4.872h2.239Zm-1.844,18.093v-8.48h1.975v8.48Zm5.135,3.055v-12.51h1.949v12.51Z" transform="translate(-311.267 -227.782)" fill="#4dffff"/><path d="M460.1,349.434v2h-9.85v7.3h-5.531v-1.975h3.451v-5.32h-9.929v-2h9.929v-3.793h-7.927v-2.028h7.927v-4.187l-6.558.922V338.32l14.563-2.054v2.028l-5.925.843v4.477H458.1v2.028H450.25v3.793Z" transform="translate(-332.701 -227.93)" fill="#4dffff"/><path d="M293.467,452.79v3.055l-9.849-11.166v12.01H281.59V444.837l-9.77,11.087v-3.081l9.77-11.087v-1.027h-9.534v-1.975h9.534v-4.582h2.028v4.582H293.2v1.975h-9.586v.9Z" transform="translate(-258.311 -271.694)" fill="#4dffff"/><path d="M328.007,454.263h12.984v1.975H326.823l-2.792-4L321,456.581h-2.423l5.372-7.664,2.686,3.818,9.3-13.247H320.58V437.54h8.3v-3.608h1.976v3.608H339.7Z" transform="translate(-279.212 -271.587)" fill="#4dffff"/><path d="M370.764,446.758h2.212l-4.424,9.824h-2.213Zm.974-4.53v2.213l-5.319-2.581v-2.213Zm0-5.662v2.212l-4.793-2.317v-2.213Zm9.481,9.586-4,7.137h7.822l-1.659-3.977h2.159l3,7.269h-2.16l-.58-1.423H372.318v-1.87h2.633l4-7.137h-6.163v-1.9h6.689v-4.5h-5.53v-1.9h5.53v-3.924h2v3.924h6.031v1.9h-6.031v4.5h7.19v1.9Z" transform="translate(-300.561 -271.587)" fill="#4dffff"/><path d="M417.742,444.679v2.186h6.926V456h-8.9V437.147h2.317l1.185-2.976H421.4l-1.185,2.976h3.634v7.532Zm0-5.715v3.872h4.135v-3.872Zm4.951,9.718h-4.951v5.477h4.951Zm14.379-11.825h-5.056v3.582h4.425V453.87h-1.976V442.334h-2.449v14.354H430.04V442.334h-2.475V453.87H425.59V440.439h4.45v-3.582h-5.082v-1.975h12.114Z" transform="translate(-322.655 -271.694)" fill="#4dffff"/><path d="M277.858,534.568v2.291h2.607v17.566h-8.559V536.858h2.686l.316-2.291h-3.66v-1.712h9.8v1.712Zm.869,13.615v-2.133h-2.5v-7.4h-.342L274.7,547.1h-1.08v1.079Zm-4.5-9.533h-.606v4.292Zm-.606,13.984h5.109v-2.792h-5.109Zm2.607-17.25-.211,1.475h.211Zm2.5,3.266h-.869v5.689h.869Zm9.586,3.371H293.5v1.9H281.151v-1.9h5.24v-4.4h-2.5l-.922,2.687h-1.975l2.581-7.612h1.975l-1.027,3.028h1.87v-3.555h1.923v3.555h4v1.9h-4Zm-5.557,12.4v-9.138h9.4v9.138Zm1.949-7.243v5.346h5.426v-5.346Z" transform="translate(-258.056 -315.499)" fill="#4dffff"/><path d="M335.535,544.679l5.584,3.608V550.6l-9.165-5.925H328l-9.138,5.9v-2.265l5.636-3.634h-5.636v-1.711h7V541.6h-4.582v-1.764h4.582V538.49h-3.924V536.7h3.924v-1.291h1.9V536.7h4.4v-1.291h1.949V536.7h3.924v1.791h-3.924v1.343H338.7V541.6h-4.582v1.37h7.005v1.711Zm-14.168-9.639v3.239h-1.922v-5.162H329v-1.186h1.976v1.186h9.56v5.162h-1.975V535.04ZM325.449,552v-2.054l9.718,2.738v2.054Zm1.08-5.926,8.374,2.37v2.028l-8.374-2.37Zm1.237-7.584v1.343h4.4V538.49Zm4.4,3.107h-4.4v1.37h4.4Z" transform="translate(-279.34 -315.393)" fill="#4dffff"/><path d="M379.366,551.633h-5.61v3.055h-2v-3.055h-5.32v-1.922h5.32v-1.422H367.33v-8.9h10.85v8.9h-4.424v1.422h5.61Zm-6.874-19.225v6.242h-5.715v-6.242Zm-1.791,4.609v-2.976h-2.133v2.976Zm1.053,4.188h-2.5v1.711h2.5Zm-2.5,5.24h2.5v-1.659h-2.5Zm9.428-14.037v6.242h-5.715v-6.242Zm-2.4,10.508V541.2h-2.528v1.711Zm-2.528,3.529h2.528v-1.659h-2.528Zm3.134-9.428v-2.976h-2.133v2.976Zm11.825,2.371-4.266.922.9,3.344,1.053-1.9H388.5l-2.5,4.424,2.238,8.507h-1.975l-1.606-6.137-3.214,5.636h-2.08l4.609-8.163-1.4-5.294-3.871.843V539.65l3.4-.737-1.765-6.742h1.976l1.659,6.346,4.74-1.026Zm-1.554-3.055h-1.922l-1.107-4.161h1.949Z" transform="translate(-300.604 -315.499)" fill="#4dffff"/><path d="M436.277,542.474h-9.9v9.56H434.7v2h-18.33v-2h7.954v-9.56h-9.507v-2h9.507v-8.111h2.054v8.111h9.9Z" transform="translate(-322.229 -315.584)" fill="#4dffff"/><path d="M317.214,650.923h-2.475L307,638.282v14.3h-4.846v-1.87h2.712V637.228l-7.532,13.063h-2.37l6.426-11.14H295.62v-2h9.243v-6.979H307v4.4l3.265,5.346,3.24-4.582h2.66l-4.556,6.426Z" transform="translate(-268.655 -359.305)" fill="#4dffff"/><path d="M350.817,635.754l-3,3.9v13.036h-1.923V642.154l-.869,1.133h-2.4l5.794-7.532Zm-.132-5.583-5.293,6.9h-2.423l5.294-6.9Zm14.222,7.19v1.87h-4.951v13.352h-4.53v-1.87h2.554V639.23h-7.163v-1.87Zm-1.133-6.4v1.87H351.738v-1.87Z" transform="translate(-289.961 -359.305)" fill="#4dffff"/><path d="M396.969,630.064l-2.476,6.162v16.355h-1.922V640.967l-.421,1.053h-2l4.793-11.956Zm2.265,4.845h2.028l-1.527,4.214,3.134,4.346h-2.291l-1.606-2.239-1.317,3.608h-2.028Zm13.247,15.248v2.475l-8.348-6.663-7.98,6.637v-2.528l6.9-5.741V634.12h-6.847v-1.87h6.847v-2.318H405v2.318h7.321v1.87H405v10.06Zm-4.5-15.248h2l-1.37,4.214,3.767,5.267h-2.292l-2.212-3.054-.685,2.133h-2Z" transform="translate(-311.204 -359.198)" fill="#4dffff"/><path d="M293.406,748.923h-2.476l-7.743-12.641v14.3h-4.845v-1.87h2.712V735.228l-7.532,13.063h-2.37l6.426-11.14h-5.768v-2h9.244v-6.979h2.133v4.4l3.266,5.346,3.239-4.582h2.66l-4.556,6.426Z" transform="translate(-258.013 -403.111)" fill="#4dffff"/><path d="M328.007,748.263h12.984v1.975H326.823l-2.792-4L321,750.581h-2.423l5.372-7.664,2.686,3.818,9.3-13.247H320.58V731.54h8.3v-3.608h1.976v3.608H339.7Z" transform="translate(-279.212 -403.004)" fill="#4dffff"/><path d="M370.764,740.758h2.212l-4.424,9.823h-2.213Zm.974-4.53v2.213l-5.319-2.581v-2.213Zm0-5.662v2.212l-4.793-2.317v-2.213Zm9.481,9.586-4,7.137h7.822l-1.659-3.977h2.159l3,7.269h-2.16l-.58-1.423H372.318v-1.87h2.633l4-7.137h-6.163v-1.9h6.689v-4.5h-5.53v-1.9h5.53v-3.924h2v3.924h6.031v1.9h-6.031v4.5h7.19v1.9Z" transform="translate(-300.561 -403.004)" fill="#4dffff"/><path d="M417.742,738.679v2.186h6.926V750h-8.9V731.147h2.317l1.185-2.976H421.4l-1.185,2.976h3.634v7.532Zm0-5.715v3.872h4.135v-3.872Zm4.951,9.718h-4.951v5.477h4.951Zm14.379-11.825h-5.056v3.582h4.425V747.87h-1.976V736.334h-2.449v14.354H430.04V736.334h-2.475V747.87H425.59V734.439h4.45v-3.582h-5.082v-1.975h12.114Z" transform="translate(-322.655 -403.111)" fill="#4dffff"/><path d="M293.451,846.265v2.5l-10.876-7.19-10.85,7.136v-2.449l9.77-6.452V826.171H283.6V839.76Zm-14.8-8.849h-2.291l-3.766-7.427h2.291Zm13.51-7.427-3.767,7.427H286.1l3.74-7.427Z" transform="translate(-258.268 -446.917)" fill="#4dffff"/><path d="M324.448,836.259v5.109l3.318,4.952h-2.159l-2.133-3.16-4.556,5.636-.053-.053v-2.9l3.661-4.556V826.647h1.922v6.189l1.027-1.712h2.106Zm-2.792-5.768v9.9h-1.791v-9.9Zm6.61,4.926h-2.291l5.056-8.664h2.292l-.9,1.553h8.138l-.711,7.532H333.56v-1.9h4.53l.342-3.74h-7.11Zm6.084,4.134v-1.9h6.031v10.982h-12.43V838.182L332.9,836.1v2.107l-3.028,1.264v2.213h3.16v1.87h-3.16v3.186h8.559v-3.186h-3.582v-1.87h3.582v-2.133Z" transform="translate(-279.34 -447.129)" fill="#4dffff"/><path d="M366.483,831.231l6.9-5.346,7.032,5.425v2.476l-7.032-5.451-6.9,5.346Zm6.4,15.643h-2.133l-.79-1.4-1.186,2.818h-2.028l2.9-6.952h2.027l-.843,2.028Zm-5.372-6.11V834.26h5.557v6.505Zm1.712-4.924v3.37H371.3v-3.37Zm.29-2.581v-1.791H377.1v1.791Zm8.085,8.085-.738,1.817,3.556,5.4h-2.239l-2.186-3.318-1.185,2.818h-2.028l2.818-6.715Zm-3.977-.58V834.26h5.662v6.505Zm1.712-4.924v3.37h2.186v-3.37Zm5.82,7.61V828.123h1.975v15.328Zm4.978-17.407H388.1V848.56h-1.975Z" transform="translate(-300.625 -446.789)" fill="#4dffff"/><path d="M436.277,836.474h-9.9v9.56H434.7v2h-18.33v-2h7.954v-9.56h-9.507v-2h9.507v-8.111h2.054v8.111h9.9Z" transform="translate(-322.229 -447.001)" fill="#4dffff"/><path d="M317.31,946.688l-11.14-4.714-11.114,4.714v-2.107l10.139-4.292v-6.795h1.975v6.795l10.139,4.292Zm-11.14-14.248-10.587,4.478v-2.081l9.612-4.082v-6.583h1.975v6.583l9.612,4.082v2.106Zm-5.5-1.817-3.134-4.478h2.4l3.134,4.478Zm-2.923,5.951h2.423l2.792,4h-2.4Zm13.958-5.951h-2.423l3.134-4.478h2.423Zm-2.318,9.955,2.792-4H314.6l-2.792,4Z" transform="translate(-268.698 -490.722)" fill="#4dffff"/><path d="M346.677,934.073v-2.292h-4v-1.922h4v-2.37l-1.053,1.633h-2.475l3.265-4.951h2.449l-.9,1.343h15.485v1.87H360.9v2.476h4.029v1.922H360.9v2.292h2.949v1.87H343.753v-1.87Zm7.085,3.107v1.528l-7.638,7.98h-2.554L347.1,943l-1.527-2.133-2.344,2.4v-2.607l4.4-4.5h2.554l-1.027,1.027Zm-5.372,4.477,2.633-2.765h-3.529l-.633.658Zm.184-14.274v2.476h2.213v-2.476Zm0,4.4v2.292h2.213v-2.292Zm16.355,11.035v1.869h-4.135v2h-1.949v-2h-7.321v-1.869h2.554v-4.609h4.767V936.39h1.949v1.818h2.581v1.869h-2.581v2.74Zm-12.246-12.957h2.212v-2.476h-2.212Zm2.212,1.922h-2.212v2.292h2.212Zm1.159,11.035h2.792v-2.74h-2.792ZM359,929.859v-2.476h-2.212v2.476Zm0,4.214v-2.292h-2.212v2.292Z" transform="translate(-289.983 -490.722)" fill="#4dffff"/><path d="M412.281,933.677H401.089l-1.87,1.685H409.49V946.37h-12.8v-8.744l-6.4,5.768v-2.66l7.848-7.058h-7.585v-2h8.48V928.7h-5.61v-1.976h5.61v-2.792h2.054v2.792h3.9v.764l3.213-2.9h2.976l-7.874,7.084h8.98Zm-4.74,6v-2.344h-8.9v2.344Zm-8.9,4.714h8.9V941.6h-8.9Zm5-15.7h-2.554v2.317Z" transform="translate(-311.267 -490.615)" fill="#4dffff"/><path d="M279.623,1034.707h-2.212v9.981h-2v-9.981h-4.161v-1.87h1.791l1.869-2.871-3.476-2.633,3.319-5.162h2.318l-3,4.661,1.923,1.449,2.87-4.372h2.265l-5.82,8.928h3.819l-.606-2.212h1.975l1.317,4.951h-1.975Zm-8.322,8.954,2.028-7.111h2l-2.028,7.111Zm8.48-6.294,2.028,4.135h-2l-2.028-4.135Zm8.058,4.793H293.5v1.976H279.833v-1.976h6.057v-16.17h-4.477v-1.948h11.061v1.948h-4.635Z" transform="translate(-258.056 -534.528)" fill="#4dffff"/><path d="M325.712,1026.3v-1.186h-6.847v-1.948h6.847v-1.186h1.975v1.186H332.3v-1.186h1.975v1.186h6.847v1.948h-6.847v1.186H332.3v-1.186h-4.609v1.186Zm1.87,16.2h13.537v1.843H326.792l-3.212-2.185-4.714,2.5v-2.185l3.424-1.844v-6h-3.265v-1.949h5.241v7.559Zm-3.055-11.166-4.819-1.818v-2.106l4.819,1.817Zm9.4,10.929h-1.87V1040.7h-6.452v-1.738h6.452v-.869h-5.5v-7.664h5.5v-.79h-6.4v-1.739h6.4v-1.184h1.87v1.184h6.742v1.739h-6.742v.79h5.609v7.664h-5.609v.869h6.794v1.738h-6.794Zm-1.87-10.113h-3.608v1.238h3.608Zm-3.608,4.24h3.608V1035.1h-3.608Zm9.139-4.24h-3.66v1.238h3.66Zm-3.66,4.24h3.66V1035.1h-3.66Z" transform="translate(-279.34 -534.443)" fill="#4dffff"/><path d="M370.764,1034.758h2.212l-4.424,9.823h-2.213Zm.974-4.53v2.212l-5.319-2.581v-2.212Zm0-5.662v2.212l-4.793-2.317v-2.212Zm9.481,9.586-4,7.136h7.822l-1.659-3.977h2.159l3,7.269h-2.16l-.58-1.423H372.318v-1.87h2.633l4-7.136h-6.163v-1.9h6.689v-4.5h-5.53v-1.9h5.53v-3.924h2v3.924h6.031v1.9h-6.031v4.5h7.19v1.9Z" transform="translate(-300.561 -534.421)" fill="#4dffff"/><path d="M417.742,1032.679v2.185h6.926V1044h-8.9v-18.856h2.317l1.185-2.976H421.4l-1.185,2.976h3.634v7.532Zm0-5.715v3.871h4.135v-3.871Zm4.951,9.717h-4.951v5.477h4.951Zm14.379-11.825h-5.056v3.582h4.425v13.431h-1.976v-11.535h-2.449v14.353H430.04v-14.353h-2.475v11.535H425.59v-13.431h4.45v-3.582h-5.082v-1.975h12.114Z" transform="translate(-322.655 -534.528)" fill="#4dffff"/></g><g transform="translate(64.287 84.178)"><path d="M106.082,143.517v10.8l1.686-2.107h-.9v-4h16.7v4H112.059l-.5.658h12.351v9.323h-5.24l-.237-.421h-1.765l-.158-.421-10.218.342v-1.87l4.582-.132v-.843h-4.029v-3.555h4.029v-.79h-.606l-.316.395h-3.871v4.345l-.922,2.95h-4.767l1.027-3.713v-19.3h22.517v4.346Zm13.142-2.528H106.082v.843h13.142Zm-10.719,4.4-2.107-1.422h4.451l2.054,1.422Zm2.344,2.265h-4.4l2.159-1.712h4.266Zm.027,9.007h-1.159v.738h1.159Zm.974-6.952h-1v.974h1Zm1.4-2.054V144.07H117.2v3.581Zm2.423,2.054h-1v.974h1Zm3.845,4.793h-4.635v.79h4v3.555h-.474l.5,1.264h.606Zm-3.608,2.159h-1.027v.738H115.9Zm-.343,2.186h-.685v.685l.948-.053Zm4.082-11.193-2.186-1.712h4.5l2.186,1.712Zm2.66-2.265h-4.688l1.9-1.422h4.714Zm-2.845,4.319h-1v.974h1Z" transform="translate(-100.393 -138.987)" fill="#4dffff"/><path d="M150.256,151.215h-1.817l.4-7.98H150.6Zm.737,10.8V138.838h4.4v23.175Zm5.741,0v-2.528h5.689v-5.847h-4.951v-2.581h4.951v-5.188H160.79l-.474,4.108h-3.529l.316-2.423h-1.079l-.237-4.319h1.343l.158,2.686.658-5.346h3.5l-.316,2.686h1.291v-4.424h4.714v4.424h4.74v2.607h-4.74v5.188h4.24v2.581h-4.24v5.847h4.977v2.528Z" transform="translate(-121.869 -138.838)" fill="#4dffff"/><path d="M148.135,354.79v3.055l-9.849-11.167v12.01h-2.028V346.837l-9.77,11.087v-3.081l9.77-11.087v-1.027h-9.534v-1.975h9.534v-4.582h2.028v4.582h9.586v1.975h-9.586v.9Z" transform="translate(-112.057 -227.045)" fill="#4dffff"/><path d="M148.074,650.923H145.6l-7.743-12.641v14.3h-4.845v-1.87h2.712V637.228l-7.532,13.063h-2.37l6.426-11.14h-5.768v-2h9.244v-6.979h2.133v4.4l3.265,5.346,3.239-4.582h2.66l-4.556,6.426Z" transform="translate(-111.759 -358.462)" fill="#4dffff"/><path d="M148.119,944.265v2.5l-10.876-7.19-10.85,7.136v-2.449l9.77-6.452V924.171h2.107V937.76Zm-14.8-8.849h-2.291l-3.766-7.427h2.291Zm13.51-7.427-3.766,7.427h-2.291l3.739-7.427Z" transform="translate(-112.014 -489.88)" fill="#4dffff"/></g><g transform="translate(299.729 84.072)"><path d="M526.144,161.9v-2.607H527.3V142.176h6.874l1.079-3.529h5.372l-1.106,3.529h9.112v17.118h1.238V161.9Zm7.295-17.092h-1.527v14.484h1.527Zm5.373,0h-1.58v14.484h1.58Zm5.319,0h-1.553v14.484h1.553Z" transform="translate(-526.144 -138.647)" fill="#4dffff"/><path d="M574.428,149.116v-1.949H597.34v1.949Zm.105,13.088v-2.08h8.928v-.869H575.4v-1.844h8.059v-.816H575.4v-6.61h21.042v6.61h-8.032v.816H596.5v1.844h-8.085v.869h8.98v2.08Zm.764-15.985v-6.953h21.174v6.953Zm16.249-4.925H580.2v.711h11.35Zm0,2.212H580.2v.711h11.35Zm-8.085,8.322h-3.214v.711h3.214Zm0,2.186h-3.214v.737h3.214Zm8.164-2.186h-3.213v.711h3.213Zm0,2.186h-3.213v.737h3.213Z" transform="translate(-547.727 -138.924)" fill="#4dffff"/><path d="M545.334,245.72a6.364,6.364,0,0,1,6.347-4.977c5.715,0,8.532,5.767,3.4,10.692-1.527,1.474-5.056,4.872-7.321,7.031h10.3v1.949H545.387v-2.133l8.559-8.4c3.424-3.344,1.9-7.347-2.185-7.347-3.739,0-4.583,3.74-4.583,3.74Z" transform="translate(-534.722 -184.284)" fill="#4dffff"/><path d="M579.694,248.046a6.055,6.055,0,0,1,6.136,6.136c0,3.134-1.975,6.663-7.268,6.716-5.267.027-6.611-5-6.611-5l1.87-.606A4.946,4.946,0,0,0,578.562,259c3.5,0,5.267-2.107,5.267-4.819a4.307,4.307,0,0,0-4.609-4.24,5.659,5.659,0,0,0-4.187,1.686h-1.9l1.422-10.218h10.666v1.869h-9.059l-.816,6A7,7,0,0,1,579.694,248.046Z" transform="translate(-546.62 -184.582)" fill="#4dffff"/><path d="M545.215,343.72a6.364,6.364,0,0,1,6.347-4.977c5.715,0,8.532,5.767,3.4,10.692-1.527,1.474-5.056,4.872-7.321,7.031h10.3v1.949H545.268v-2.133l8.559-8.4c3.424-3.344,1.9-7.347-2.185-7.347-3.739,0-4.583,3.74-4.583,3.74Z" transform="translate(-534.669 -228.089)" fill="#4dffff"/><path d="M578.837,338.743a6.883,6.883,0,0,1,7,7.031v5.794a7.005,7.005,0,1,1-14.01,0v-5.794A6.9,6.9,0,0,1,578.837,338.743Zm5.083,12.851v-5.846a5.083,5.083,0,1,0-10.165,0v5.846a5.083,5.083,0,1,0,10.165,0Z" transform="translate(-546.566 -228.089)" fill="#4dffff"/><path d="M545.215,441.72a6.364,6.364,0,0,1,6.347-4.978c5.715,0,8.532,5.768,3.4,10.692-1.527,1.475-5.056,4.872-7.321,7.032h10.3v1.948H545.268v-2.133l8.559-8.4c3.424-3.344,1.9-7.348-2.185-7.348-3.739,0-4.583,3.74-4.583,3.74Z" transform="translate(-534.669 -271.895)" fill="#4dffff"/><path d="M578.837,436.742a6.884,6.884,0,0,1,7,7.032v5.793a7.005,7.005,0,1,1-14.01,0v-5.793A6.9,6.9,0,0,1,578.837,436.742Zm5.083,12.852v-5.846a5.083,5.083,0,1,0-10.165,0v5.846a5.083,5.083,0,1,0,10.165,0Z" transform="translate(-546.566 -271.895)" fill="#4dffff"/><path d="M545.334,539.72a6.364,6.364,0,0,1,6.347-4.978c5.715,0,8.532,5.768,3.4,10.692-1.527,1.475-5.056,4.872-7.321,7.032h10.3v1.948H545.387v-2.133l8.559-8.4c3.424-3.344,1.9-7.348-2.185-7.348-3.739,0-4.583,3.74-4.583,3.74Z" transform="translate(-534.722 -315.7)" fill="#4dffff"/><path d="M579.694,542.046a6.055,6.055,0,0,1,6.136,6.136c0,3.134-1.975,6.663-7.268,6.716-5.267.026-6.611-5-6.611-5l1.87-.6A4.946,4.946,0,0,0,578.562,553c3.5,0,5.267-2.107,5.267-4.819a4.306,4.306,0,0,0-4.609-4.24,5.659,5.659,0,0,0-4.187,1.686h-1.9l1.422-10.218h10.666v1.87h-9.059l-.816,6A7,7,0,0,1,579.694,542.046Z" transform="translate(-546.62 -315.998)" fill="#4dffff"/><path d="M545.215,637.72a6.364,6.364,0,0,1,6.347-4.978c5.715,0,8.532,5.768,3.4,10.692-1.527,1.475-5.056,4.872-7.321,7.032h10.3v1.948H545.268v-2.133l8.559-8.4c3.424-3.344,1.9-7.348-2.185-7.348-3.739,0-4.583,3.74-4.583,3.74Z" transform="translate(-534.669 -359.506)" fill="#4dffff"/><path d="M578.837,632.742a6.884,6.884,0,0,1,7,7.032v5.793a7.005,7.005,0,1,1-14.01,0v-5.793A6.9,6.9,0,0,1,578.837,632.742Zm5.083,12.852v-5.846a5.083,5.083,0,1,0-10.165,0v5.846a5.083,5.083,0,1,0,10.165,0Z" transform="translate(-546.566 -359.506)" fill="#4dffff"/><path d="M545.215,735.72a6.364,6.364,0,0,1,6.347-4.978c5.715,0,8.532,5.768,3.4,10.692-1.527,1.475-5.056,4.873-7.321,7.032h10.3v1.948H545.268v-2.133l8.559-8.4c3.424-3.344,1.9-7.348-2.185-7.348-3.739,0-4.583,3.74-4.583,3.74Z" transform="translate(-534.669 -403.312)" fill="#4dffff"/><path d="M578.837,730.742a6.884,6.884,0,0,1,7,7.032v5.793a7.005,7.005,0,1,1-14.01,0v-5.793A6.9,6.9,0,0,1,578.837,730.742Zm5.083,12.852v-5.846a5.083,5.083,0,1,0-10.165,0v5.846a5.083,5.083,0,1,0,10.165,0Z" transform="translate(-546.566 -403.312)" fill="#4dffff"/><path d="M545.334,833.72a6.364,6.364,0,0,1,6.347-4.978c5.715,0,8.532,5.768,3.4,10.692-1.527,1.475-5.056,4.872-7.321,7.032h10.3v1.948H545.387v-2.133l8.559-8.4c3.424-3.344,1.9-7.348-2.185-7.348-3.739,0-4.583,3.74-4.583,3.74Z" transform="translate(-534.722 -447.117)" fill="#4dffff"/><path d="M579.694,836.046a6.055,6.055,0,0,1,6.136,6.136c0,3.134-1.975,6.663-7.268,6.716-5.267.026-6.611-5-6.611-5l1.87-.6A4.946,4.946,0,0,0,578.562,847c3.5,0,5.267-2.107,5.267-4.819a4.306,4.306,0,0,0-4.609-4.24,5.659,5.659,0,0,0-4.187,1.686h-1.9l1.422-10.218h10.666v1.87h-9.059l-.816,6A7,7,0,0,1,579.694,836.046Z" transform="translate(-546.62 -447.416)" fill="#4dffff"/><path d="M545.215,931.72a6.364,6.364,0,0,1,6.347-4.978c5.715,0,8.532,5.768,3.4,10.692-1.527,1.475-5.056,4.873-7.321,7.032h10.3v1.948H545.268v-2.133l8.559-8.4c3.424-3.344,1.9-7.348-2.185-7.348-3.739,0-4.583,3.74-4.583,3.74Z" transform="translate(-534.669 -490.923)" fill="#4dffff"/><path d="M578.837,926.742a6.884,6.884,0,0,1,7,7.032v5.793a7.005,7.005,0,1,1-14.01,0v-5.793A6.9,6.9,0,0,1,578.837,926.742Zm5.083,12.852v-5.846a5.083,5.083,0,1,0-10.165,0v5.846a5.083,5.083,0,1,0,10.165,0Z" transform="translate(-546.566 -490.923)" fill="#4dffff"/><path d="M545.215,1029.72a6.364,6.364,0,0,1,6.347-4.977c5.715,0,8.532,5.767,3.4,10.692-1.527,1.475-5.056,4.872-7.321,7.032h10.3v1.948H545.268v-2.133l8.559-8.4c3.424-3.344,1.9-7.347-2.185-7.347-3.739,0-4.583,3.739-4.583,3.739Z" transform="translate(-534.669 -534.729)" fill="#4dffff"/><path d="M578.837,1024.743a6.883,6.883,0,0,1,7,7.031v5.793a7.005,7.005,0,1,1-14.01,0v-5.793A6.9,6.9,0,0,1,578.837,1024.743Zm5.083,12.851v-5.846a5.083,5.083,0,1,0-10.165,0v5.846a5.083,5.083,0,1,0,10.165,0Z" transform="translate(-546.566 -534.729)" fill="#4dffff"/></g><g transform="translate(368.448 84.099)"><path d="M650.41,160.948v-2.5l2.344-.526v-15.8h-2.212V139.59h9.269v2.528h-2.133v14.642l2.423-.553v2.528Zm18.408,1-3.028-4.213-2.37,4.213h-4.978l4.556-8.19-3.661-5.162h5.32l.685.974,2.4-4.266h-2.95l-1.422,2.607h-5.056l5.161-9.217h4.952l-2.239,4.029h7.663v2.581h-1.133l-4.556,8.164,6.057,8.48Z" transform="translate(-650.41 -138.695)" fill="#4dffff"/><path d="M717,151.936l-1.448-.974-1.343.974H698.7v-2.449h-.764v-1.632h4.161V147.2h-3.608v-5.241h3.608v-.632h-3.976v-1.791h3.976v-.79h4.24v.79h3.792v1.791h-3.792v.632h3.555v2.291l1.133-1.764v-3.476h9.086v3.239h1.685l-1,2.291h-4.582v-3.292h-1.37v1.949l-.9,1.343h-4.056v2.66h-3.555v.659h4.056v1.632H709.7v2.133l3.266-2.344-2.16-1.422h4.135l.922-.685h-5.294v-2.106H720.66v2.185l-2.607,1.87,4.135,2.818Zm-4.767,7.506V162h-7.9l-1.159-1.844H707.1v-.711h-9.086v-1.975H707.1v-.659h-7.874v-1.632H707.1v-.659h-8.48v-1.791h17.329l.184-.447h4.82l-.764,2.238h-7.953v.659h8.138v1.632h-8.138v.659h9.191v1.975Zm-10.139-16.249H700.75v.764h1.343Zm0,1.949H700.75v.685h1.343Zm0,4.345h-1.238v.9h1.238Zm5.584-6.294h-1.343v.764h1.343Zm0,1.949h-1.343v.685h1.343Zm-.105,4.345h-1.238v.9h1.238Z" transform="translate(-671.652 -138.716)" fill="#4dffff"/><path d="M755.914,162.1l-1.291-2.739h8.191V144.431h-7.638v11.482l-4.582,6.189h-6.426l5.873-7.638V144.431h-4.767v-2.686h4.767v-3h5.135v3H767.87V162.1Z" transform="translate(-692.32 -138.716)" fill="#4dffff"/><path d="M714.175,248.046a6.055,6.055,0,0,1,6.136,6.136c0,3.134-1.975,6.663-7.269,6.716-5.267.027-6.61-5-6.61-5l1.87-.606a4.945,4.945,0,0,0,4.74,3.713c3.5,0,5.267-2.107,5.267-4.819a4.307,4.307,0,0,0-4.609-4.24,5.659,5.659,0,0,0-4.187,1.686h-1.9l1.423-10.218h10.666v1.869h-9.06l-.816,6A7,7,0,0,1,714.175,248.046Z" transform="translate(-675.452 -184.608)" fill="#4dffff"/><path d="M713.688,345.844c3.371.027,6.637,2.37,6.637,6.189,0,4.74-4.188,6.716-7.216,6.716s-6.794-2.107-6.794-6.189A8.992,8.992,0,0,1,707.867,348l5.083-8.928h2.16l-4.24,7.427A5.594,5.594,0,0,1,713.688,345.844Zm-.526,11.061c2.16,0,5.162-1.4,5.162-4.793,0-2.9-2.292-4.424-5-4.424a4.756,4.756,0,0,0-5.031,4.608A4.825,4.825,0,0,0,713.161,356.9Z" transform="translate(-675.399 -228.265)" fill="#4dffff"/><path d="M713.688,443.844c3.371.027,6.637,2.37,6.637,6.189,0,4.74-4.188,6.716-7.216,6.716s-6.794-2.107-6.794-6.189A8.992,8.992,0,0,1,707.867,446l5.083-8.928h2.16l-4.24,7.427A5.587,5.587,0,0,1,713.688,443.844Zm-.526,11.061c2.16,0,5.162-1.4,5.162-4.793,0-2.9-2.292-4.425-5-4.425a4.757,4.757,0,0,0-5.031,4.609A4.825,4.825,0,0,0,713.161,454.9Z" transform="translate(-675.399 -272.07)" fill="#4dffff"/><path d="M714.175,542.046a6.055,6.055,0,0,1,6.136,6.136c0,3.134-1.975,6.663-7.269,6.716-5.267.026-6.61-5-6.61-5l1.87-.6a4.945,4.945,0,0,0,4.74,3.713c3.5,0,5.267-2.107,5.267-4.819a4.306,4.306,0,0,0-4.609-4.24,5.659,5.659,0,0,0-4.187,1.686h-1.9l1.423-10.218h10.666v1.87h-9.06l-.816,6A7,7,0,0,1,714.175,542.046Z" transform="translate(-675.452 -316.025)" fill="#4dffff"/><path d="M713.688,639.844c3.371.027,6.637,2.37,6.637,6.189,0,4.74-4.188,6.716-7.216,6.716s-6.794-2.107-6.794-6.189A8.992,8.992,0,0,1,707.867,642l5.083-8.928h2.16l-4.24,7.427A5.588,5.588,0,0,1,713.688,639.844Zm-.526,11.061c2.16,0,5.162-1.4,5.162-4.793,0-2.9-2.292-4.425-5-4.425a4.757,4.757,0,0,0-5.031,4.609A4.825,4.825,0,0,0,713.161,650.9Z" transform="translate(-675.399 -359.682)" fill="#4dffff"/><path d="M713.688,737.844c3.371.027,6.637,2.37,6.637,6.189,0,4.74-4.188,6.716-7.216,6.716s-6.794-2.107-6.794-6.189A8.992,8.992,0,0,1,707.867,740l5.083-8.928h2.16l-4.24,7.427A5.588,5.588,0,0,1,713.688,737.844Zm-.526,11.061c2.16,0,5.162-1.4,5.162-4.793,0-2.9-2.292-4.425-5-4.425a4.757,4.757,0,0,0-5.031,4.609A4.825,4.825,0,0,0,713.161,748.9Z" transform="translate(-675.399 -403.488)" fill="#4dffff"/><path d="M714.175,836.046a6.055,6.055,0,0,1,6.136,6.136c0,3.134-1.975,6.663-7.269,6.716-5.267.026-6.61-5-6.61-5l1.87-.6a4.945,4.945,0,0,0,4.74,3.713c3.5,0,5.267-2.107,5.267-4.819a4.306,4.306,0,0,0-4.609-4.24,5.659,5.659,0,0,0-4.187,1.686h-1.9l1.423-10.218h10.666v1.87h-9.06l-.816,6A7,7,0,0,1,714.175,836.046Z" transform="translate(-675.452 -447.442)" fill="#4dffff"/><path d="M713.688,933.844c3.371.027,6.637,2.37,6.637,6.189,0,4.74-4.188,6.716-7.216,6.716s-6.794-2.107-6.794-6.189A8.992,8.992,0,0,1,707.867,936l5.083-8.928h2.16l-4.24,7.427A5.588,5.588,0,0,1,713.688,933.844Zm-.526,11.061c2.16,0,5.162-1.4,5.162-4.793,0-2.9-2.292-4.425-5-4.425a4.757,4.757,0,0,0-5.031,4.609A4.825,4.825,0,0,0,713.161,944.9Z" transform="translate(-675.399 -491.099)" fill="#4dffff"/><path d="M713.688,1031.844c3.371.026,6.637,2.37,6.637,6.189,0,4.74-4.188,6.715-7.216,6.715s-6.794-2.106-6.794-6.189a8.993,8.993,0,0,1,1.553-4.556l5.083-8.928h2.16l-4.24,7.427A5.587,5.587,0,0,1,713.688,1031.844Zm-.526,11.061c2.16,0,5.162-1.4,5.162-4.793,0-2.9-2.292-4.425-5-4.425a4.757,4.757,0,0,0-5.031,4.609A4.825,4.825,0,0,0,713.161,1042.9Z" transform="translate(-675.399 -534.905)" fill="#4dffff"/></g><g transform="translate(464.244 84.072)"><path d="M828.169,158.952v2.976h-4.53V138.989h9.349v8.48l-2.028,1.4,2.028,1.58v8.506Zm1.079-17.355h-1.079v5.978h1.079Zm0,8.612h-1.079v6.11h1.079Zm9.955-5.979v2.976h6.874v14.721H840.1l-1.343-2.633h2.712v-9.428H839.2v7.875l-1.791,4.187h-5.188l2.292-5.267V144.23h-1.079v-2.686h3.687l-.711-2.9h5.4l.685,2.9h4.266v2.686Z" transform="translate(-823.639 -138.647)" fill="#4dffff"/><path d="M875.642,161.712h-5.767l3.186-3.845h5.768Zm.105-10.008v-2.028l.633-.026v-3.819h2.054v3.74l.764-.027v-4.451H875.88V143.83l-.922,2.186h.4v5.557h-4.425v-4.161h-.843l1.659-4.029h-1.817l2-4.688h4.477l-1.765,4.108h1.712l-.184.395H879.2v-1.4h-.527l-.263.659h-2.792l1.632-3.766h2.739l-.447,1.027h5.424v2.08h-1.632v1.4h1.843v1.9h-1.843v.974h1.5v1.765h-1.5v1.5l1.923-.105v2.028Zm8.823,5.5v4.82h-6.057l-1.08-2.239H879.7v-2.581h-9.244V155.1H893.84v2.106ZM871.8,154.18v-1.9h20.884v1.9Zm16.934,7.532-3.529-3.845h5.531l3.529,3.845Zm1.58-11.14-.685-1.712v2.818h-4V139.221H893.6v11.351Zm.29-8.9h-.974v6.347h.974Z" transform="translate(-844.306 -138.668)" fill="#4dffff"/><path d="M928.714,162.1l-1.291-2.739h8.191V144.431h-7.638v11.482l-4.582,6.189h-6.426l5.873-7.638V144.431h-4.767v-2.686h4.767v-3h5.135v3H940.67V162.1Z" transform="translate(-865.357 -138.689)" fill="#4dffff"/><path d="M889.593,249.881a5.468,5.468,0,0,1,3.45,4.978c0,2.528-1.765,5.741-6.294,5.741a6.8,6.8,0,0,1-6.874-4.951l1.765-.658a4.982,4.982,0,0,0,5,3.713c1.475,0,4.477-.606,4.477-3.713,0-3.5-3.186-4.108-4.9-4.108v-1.87c1.975,0,4.4-.737,4.4-3.213,0-2.5-2.581-3.16-3.924-3.16a5.5,5.5,0,0,0-4.793,2.555l-1.58-1.053a7.216,7.216,0,0,1,6.373-3.4c3.371,0,5.846,2.291,5.846,4.977A4.15,4.15,0,0,1,889.593,249.881Z" transform="translate(-848.776 -184.284)" fill="#4dffff"/><path d="M880.327,343.72a6.364,6.364,0,0,1,6.347-4.977c5.715,0,8.533,5.767,3.4,10.692-1.527,1.474-5.057,4.872-7.322,7.031h10.3v1.949H880.38v-2.133l8.559-8.4c3.424-3.344,1.9-7.347-2.185-7.347-3.74,0-4.583,3.74-4.583,3.74Z" transform="translate(-848.978 -228.089)" fill="#4dffff"/><path d="M885.565,437.457h4.766v19.277h-1.975V439.353h-2.792Z" transform="translate(-851.32 -272.214)" fill="#4dffff"/><path d="M889.593,543.88a5.468,5.468,0,0,1,3.45,4.978c0,2.528-1.765,5.741-6.294,5.741a6.8,6.8,0,0,1-6.874-4.951l1.765-.658a4.982,4.982,0,0,0,5,3.713c1.475,0,4.477-.606,4.477-3.713,0-3.5-3.186-4.109-4.9-4.109v-1.87c1.975,0,4.4-.738,4.4-3.213,0-2.5-2.581-3.16-3.924-3.16a5.5,5.5,0,0,0-4.793,2.555l-1.58-1.053a7.216,7.216,0,0,1,6.373-3.4c3.371,0,5.846,2.292,5.846,4.978A4.15,4.15,0,0,1,889.593,543.88Z" transform="translate(-848.776 -315.7)" fill="#4dffff"/><path d="M880.327,637.72a6.364,6.364,0,0,1,6.347-4.978c5.715,0,8.533,5.768,3.4,10.692-1.527,1.475-5.057,4.872-7.322,7.032h10.3v1.948H880.38v-2.133l8.559-8.4c3.424-3.344,1.9-7.348-2.185-7.348-3.74,0-4.583,3.74-4.583,3.74Z" transform="translate(-848.978 -359.506)" fill="#4dffff"/><path d="M885.565,731.457h4.766v19.277h-1.975V733.353h-2.792Z" transform="translate(-851.32 -403.631)" fill="#4dffff"/><path d="M889.593,837.88a5.468,5.468,0,0,1,3.45,4.978c0,2.528-1.765,5.741-6.294,5.741a6.8,6.8,0,0,1-6.874-4.951l1.765-.658a4.982,4.982,0,0,0,5,3.713c1.475,0,4.477-.606,4.477-3.713,0-3.5-3.186-4.109-4.9-4.109v-1.87c1.975,0,4.4-.738,4.4-3.213,0-2.5-2.581-3.16-3.924-3.16a5.5,5.5,0,0,0-4.793,2.555l-1.58-1.053a7.216,7.216,0,0,1,6.373-3.4c3.371,0,5.846,2.292,5.846,4.978A4.15,4.15,0,0,1,889.593,837.88Z" transform="translate(-848.776 -447.117)" fill="#4dffff"/><path d="M880.327,931.72a6.364,6.364,0,0,1,6.347-4.978c5.715,0,8.533,5.768,3.4,10.692-1.527,1.475-5.057,4.873-7.322,7.032h10.3v1.948H880.38v-2.133l8.559-8.4c3.424-3.344,1.9-7.348-2.185-7.348-3.74,0-4.583,3.74-4.583,3.74Z" transform="translate(-848.978 -490.923)" fill="#4dffff"/><path d="M885.565,1025.457h4.766v19.277h-1.975v-17.381h-2.792Z" transform="translate(-851.32 -535.048)" fill="#4dffff"/></g><rect width="419.328" height="30.386" rx="15.193" transform="translate(121.577 134.573)" fill="#0068e8" opacity="0.2" style="mix-blend-mode:screen;isolation:isolate"/><rect width="419.328" height="30.386" rx="15.193" transform="translate(121.577 188.744)" fill="#0068e8" opacity="0.2" style="mix-blend-mode:screen;isolation:isolate"/><rect width="419.328" height="30.386" rx="15.193" transform="translate(121.577 242.915)" fill="#0068e8" opacity="0.2" style="mix-blend-mode:screen;isolation:isolate"/><rect width="419.328" height="30.386" rx="15.193" transform="translate(121.577 297.086)" fill="#0068e8" opacity="0.2" style="mix-blend-mode:screen;isolation:isolate"/><rect width="419.328" height="30.386" rx="15.193" transform="translate(121.577 351.257)" fill="#0068e8" opacity="0.2" style="mix-blend-mode:screen;isolation:isolate"/><rect width="419.328" height="30.386" rx="15.193" transform="translate(121.577 405.428)" fill="#0068e8" opacity="0.2" style="mix-blend-mode:screen;isolation:isolate"/><rect width="419.328" height="30.386" rx="15.193" transform="translate(121.577 459.599)" fill="#0068e8" opacity="0.2" style="mix-blend-mode:screen;isolation:isolate"/><rect width="419.328" height="30.386" rx="15.193" transform="translate(121.577 513.77)" fill="#0068e8" opacity="0.2" style="mix-blend-mode:screen;isolation:isolate"/><rect width="419.328" height="30.386" rx="15.193" transform="translate(121.577 567.941)" fill="#0068e8" opacity="0.2" style="mix-blend-mode:screen;isolation:isolate"/><rect width="501.265" height="2.515" transform="translate(47.183 120.532)" fill="#0068e8"/><rect width="501.265" height="2.515" transform="translate(47.183 283.43)" fill="#0068e8"/><rect width="501.265" height="2.515" transform="translate(47.183 446.327)" fill="#0068e8"/><rect width="501.265" height="2.515" transform="translate(47.183 609.224)" fill="#0068e8"/></g></svg>