<svg xmlns="http://www.w3.org/2000/svg" width="580" height="280.657" viewBox="0 0 580 280.657"><g transform="translate(-24.25 -10.516)"><g transform="translate(67.452 45.689)" opacity="0.2" style="mix-blend-mode:screen;isolation:isolate"><rect width="493.596" height="210.313" fill="none" stroke="#0068e8" stroke-miterlimit="10" stroke-width="1.547"/><line y2="210.313" transform="translate(35.965 0)" fill="none" stroke="#0068e8" stroke-miterlimit="10" stroke-width="1.547"/><line y2="210.313" transform="translate(71.017 0)" fill="none" stroke="#0068e8" stroke-miterlimit="10" stroke-width="1.547"/><line y2="210.313" transform="translate(106.069 0)" fill="none" stroke="#0068e8" stroke-miterlimit="10" stroke-width="1.547"/><line y2="210.313" transform="translate(141.121 0)" fill="none" stroke="#0068e8" stroke-miterlimit="10" stroke-width="1.547"/><line y2="210.313" transform="translate(176.173 0)" fill="none" stroke="#0068e8" stroke-miterlimit="10" stroke-width="1.547"/><line y2="210.313" transform="translate(211.225 0)" fill="none" stroke="#0068e8" stroke-miterlimit="10" stroke-width="1.547"/><line y2="210.313" transform="translate(246.277 0)" fill="none" stroke="#0068e8" stroke-miterlimit="10" stroke-width="1.547"/><line y2="210.313" transform="translate(281.329 0)" fill="none" stroke="#0068e8" stroke-miterlimit="10" stroke-width="1.547"/><line y2="210.313" transform="translate(316.382 0)" fill="none" stroke="#0068e8" stroke-miterlimit="10" stroke-width="1.547"/><line y2="210.313" transform="translate(351.434 0)" fill="none" stroke="#0068e8" stroke-miterlimit="10" stroke-width="1.547"/><line y2="210.313" transform="translate(386.486 0)" fill="none" stroke="#0068e8" stroke-miterlimit="10" stroke-width="1.547"/><line y2="210.313" transform="translate(421.538 0)" fill="none" stroke="#0068e8" stroke-miterlimit="10" stroke-width="1.547"/><line y2="210.313" transform="translate(456.59 0)" fill="none" stroke="#0068e8" stroke-miterlimit="10" stroke-width="1.547"/><line x1="493.162" transform="translate(0.261 35.182)" fill="none" stroke="#0068e8" stroke-miterlimit="10" stroke-width="2"/><line x1="493.162" transform="translate(0.261 70.278)" fill="none" stroke="#0068e8" stroke-miterlimit="10" stroke-width="2"/><line x1="493.162" transform="translate(0.261 105.374)" fill="none" stroke="#0068e8" stroke-miterlimit="10" stroke-width="2"/><line x1="493.162" transform="translate(0.261 140.469)" fill="none" stroke="#0068e8" stroke-miterlimit="10" stroke-width="2"/><line x1="493.162" transform="translate(0.261 175.565)" fill="none" stroke="#0068e8" stroke-miterlimit="10" stroke-width="2"/></g><g transform="translate(24.25 10.516)"><g transform="translate(20.203 19.127)"><path d="M593.22,280.734H53.626V38.328H593.22Zm-536.753-2.69H590.38V41.018H56.467Z" transform="translate(-53.626 -38.328)" fill="#4dffff"/></g><g transform="translate(29.435 27.868)" opacity="0.1" style="mix-blend-mode:screen;isolation:isolate"><rect width="519.708" height="223.578" transform="translate(0.711 0.672)" fill="#0068e8"/><path d="M588.18,275.962H67.051V51.039H588.18ZM68.472,274.618H586.759V52.383H68.472Z" transform="translate(-67.051 -51.039)" fill="#4dffff"/></g><g transform="translate(0 264.966)"><path d="M40.824,411.488H24.25V395.8h2.841v13H40.824Z" transform="translate(-24.25 -395.797)" fill="#4dffff"/></g><path d="M27.091,26.21H24.25V10.516H40.824v2.69H27.091Z" transform="translate(-24.25 -10.516)" fill="#4dffff"/><g transform="translate(563.426 264.966)"><path d="M860.088,411.488H843.514V408.8h13.733v-13h2.841Z" transform="translate(-843.514 -395.797)" fill="#4dffff"/></g><g transform="translate(563.426)"><path d="M860.088,26.21h-2.841v-13H843.514v-2.69h16.574Z" transform="translate(-843.514 -10.516)" fill="#4dffff"/></g></g><g transform="translate(59.848 65.181)"><rect width="508.804" height="31.505" rx="15.752" transform="translate(0 32.451)" fill="#0068e8" opacity="0.2" style="mix-blend-mode:screen;isolation:isolate"/><rect width="508.804" height="31.505" rx="15.752" transform="translate(0 87.18)" fill="#0068e8" opacity="0.2" style="mix-blend-mode:screen;isolation:isolate"/><rect width="508.804" height="31.505" rx="15.752" transform="translate(0 139.823)" fill="#0068e8" opacity="0.2" style="mix-blend-mode:screen;isolation:isolate"/><g transform="translate(28.494 0)"><g transform="translate(16.205)"><path d="M141.008,91.6c0-.419.182-.627.549-.627h6.057a.52.52,0,0,1,.588.587v4.372a.52.52,0,0,1-.588.588h-4.94a.433.433,0,0,0-.49.49v10.527a.588.588,0,0,1-1.177,0Zm6.018.686a.433.433,0,0,0-.49-.49h-3.862a.433.433,0,0,0-.49.49v.549a.433.433,0,0,0,.49.49h3.862a.434.434,0,0,0,.49-.49Zm0,2.353a.434.434,0,0,0-.49-.49h-3.862a.433.433,0,0,0-.49.49v.51a.433.433,0,0,0,.49.49h3.862a.434.434,0,0,0,.49-.49Zm-1.588,3.332q.608-.646,1-.548c.275.078.223.3-.156.666a5.626,5.626,0,0,1-.9.745q-.47.393-.431.471a.256.256,0,0,0,.118.118,6.079,6.079,0,0,0,1.314-.078,1.356,1.356,0,0,0,.784-.294q.725-.666,1.078-.51.353.177-.176.647a35.617,35.617,0,0,1-3.058,2.234l-.039.137a.861.861,0,0,0,.725.059l1.549-.254c.366-.066.516-.2.451-.392-.144-.249-.111-.405.1-.471s.432.138.667.569l.235.51q.235.647-.039.725a.319.319,0,0,1-.451-.215q-.2-.333-.784-.2a21.729,21.729,0,0,1-3.078.587q-.589.04-.666-.294-.119-.43.529-.862l.784-.568q.47-.274.49-.549-.216-.195-.9-.058l-.431.039c-.391.04-.607-.065-.646-.314s.151-.516.529-.764A13.4,13.4,0,0,0,145.438,97.971Zm2,5.685q0-.627.412-.627.451,0,.45.587a6.974,6.974,0,0,1-.058,1.569,2.778,2.778,0,0,1-2.235,2.49,7.66,7.66,0,0,1-1.2.333.67.67,0,0,1-.8-.352q-.176-.413.45-.49a3.831,3.831,0,0,0,2.607-1.235q.3-.47-.234-.47h-2.176a.519.519,0,0,1-.588-.588v-1.117q0-.589.45-.589.47,0,.47.589v.431a.433.433,0,0,0,.49.49h1.47a.433.433,0,0,0,.49-.49Zm3.941-5.626q.764-.764,1.118-.686.45.119-.118.686a14.052,14.052,0,0,1-1.176.921q-.627.432-.1.432a8.208,8.208,0,0,0,1.255-.1,1.82,1.82,0,0,0,1.1-.49q.549-.51.882-.334.353.2-.235.666a19.134,19.134,0,0,1-2.548,1.8,2.665,2.665,0,0,0-.452.354.176.176,0,0,0,.1.156,7.35,7.35,0,0,0,1.666-.118l.646-.078q.51-.136.294-.45-.216-.294.1-.372.333-.078.706.509l.294.589q.273.706,0,.784c-.222.065-.366.007-.431-.177a.649.649,0,0,0-.765-.352,20.85,20.85,0,0,1-3.156.549q-.667.078-.745-.256-.158-.47.49-.882l.784-.529q.529-.452.51-.569a1.644,1.644,0,0,0-.9,0l-.431.039q-.588.039-.647-.333-.039-.393.53-.785A14.388,14.388,0,0,0,151.378,98.03Zm-1.353,5.626q0-.627.431-.627.49,0,.49.587v.726a.433.433,0,0,0,.49.49h1.392a.433.433,0,0,0,.49-.49V103.7q0-.589.432-.589c.287,0,.431.2.431.589v1.333a.52.52,0,0,1-.588.588h-2.157a.433.433,0,0,0-.49.49v1.431q0,.588-.451.588-.47,0-.47-.588Zm.157-12.056c0-.419.183-.627.549-.627h6.156a.519.519,0,0,1,.587.587v14.86a3.482,3.482,0,0,1-.215.784,1.259,1.259,0,0,1-1.176.765,8.368,8.368,0,0,1-1.1-.039.882.882,0,0,1-.863-.706q-.137-.667.431-.53a2.824,2.824,0,0,0,1.275.078,1.093,1.093,0,0,0,.47-.863V96.932a.433.433,0,0,0-.49-.49H150.77a.52.52,0,0,1-.588-.588Zm6.116.686a.433.433,0,0,0-.49-.49h-3.96a.432.432,0,0,0-.489.49v.549a.433.433,0,0,0,.489.49h3.96a.433.433,0,0,0,.49-.49Zm0,2.353a.433.433,0,0,0-.49-.49h-3.96a.433.433,0,0,0-.489.49v.45a.433.433,0,0,0,.489.49h3.96a.433.433,0,0,0,.49-.49Z" transform="translate(-141.008 -90.306)" fill="#fff" stroke="#fff" stroke-miterlimit="10" stroke-width="1"/><path d="M181.794,90.63c0-.417.183-.627.549-.627h.2a.52.52,0,0,1,.588.588v1.47a.433.433,0,0,0,.49.49h7.077a.511.511,0,0,1,.588.568.52.52,0,0,1-.588.589h-7.077a.433.433,0,0,0-.49.49v2.49a.433.433,0,0,0,.49.49h8.645a.528.528,0,0,1,.588.607c0,.419-.2.627-.588.627H183.7a.434.434,0,0,0-.49.49v.961q0,.49.608.686a66.659,66.659,0,0,1,6.841,2.725.576.576,0,0,1,.274.941.724.724,0,0,1-1.019.215,62.485,62.485,0,0,0-6.176-2.666q-.528-.156-.529.294v5.41a.52.52,0,0,1-.589.589h-.156a.52.52,0,0,1-.589-.589V98.9a.433.433,0,0,0-.489-.49h-5.588a.528.528,0,0,1-.588-.607q0-.627.588-.627H181.3a.433.433,0,0,0,.49-.49Z" transform="translate(-151.688 -90.003)" fill="#fff" stroke="#fff" stroke-miterlimit="10" stroke-width="1"/></g><g transform="translate(110.629 0.328)"><path d="M285.874,90.975a.538.538,0,0,1,.726-.47q.725.176.549.8a10.06,10.06,0,0,1-.666,1.51q-.294.51.215.51h7.117a.519.519,0,0,1,.587.589v11.467a.433.433,0,0,0,.49.49h.785a.511.511,0,0,1,.587.569.52.52,0,0,1-.587.589H278.9a.511.511,0,0,1-.587-.569.52.52,0,0,1,.587-.589h.8a.433.433,0,0,0,.49-.49V93.917a.52.52,0,0,1,.588-.589h3.568a.951.951,0,0,0,.8-.588A9.706,9.706,0,0,0,285.874,90.975Zm-1.274,4a.433.433,0,0,0-.49-.49h-2.175a.434.434,0,0,0-.49.49v10.409a.433.433,0,0,0,.49.49h2.175a.433.433,0,0,0,.49-.49Zm4.235,0a.434.434,0,0,0-.49-.49h-2.038a.433.433,0,0,0-.49.49v10.409a.433.433,0,0,0,.49.49h2.038a.433.433,0,0,0,.49-.49Zm4.312,0a.433.433,0,0,0-.49-.49H290.58a.433.433,0,0,0-.49.49v10.409a.433.433,0,0,0,.49.49h2.078a.433.433,0,0,0,.49-.49Z" transform="translate(-278.308 -90.48)" fill="#fff" stroke="#fff" stroke-miterlimit="10" stroke-width="1"/><path d="M313.675,97.383q0-.47.569-.47h16.27q.589,0,.589.451,0,.47-.589.47h-16.25Q313.675,97.834,313.675,97.383Zm2.216,2.176q0-.608.568-.608H328.4a.52.52,0,0,1,.589.589v3.607a.52.52,0,0,1-.589.587h-4.979q-.49,0-.49.549t.49.549h5.587q.588,0,.588.431t-.588.431h-5.587q-.49,0-.49.588,0,.608.49.608h6.9q.589,0,.589.412t-.589.411H314.675q-.588,0-.588-.411t.588-.412h6.607q.489,0,.49-.588,0-.608-.49-.608H315.91q-.588,0-.588-.431t.588-.431h5.372q.489,0,.49-.549t-.49-.549h-4.8a.519.519,0,0,1-.587-.587Zm.137-7.958c0-.419.183-.627.549-.627h11.566a.52.52,0,0,1,.588.587v3.666a.52.52,0,0,1-.588.588H316.616a.52.52,0,0,1-.588-.588Zm5.744,8.821q0-.608-.47-.608h-3.764q-.49,0-.49.588,0,.608.49.607h3.745Q321.771,101.009,321.772,100.422Zm0,1.882q0-.608-.49-.608h-3.745c-.327,0-.49.2-.49.588s.164.608.49.608h3.745Q321.771,102.891,321.772,102.3Zm5.881-9.9q-.039-.607-.529-.607h-9.508q-.49,0-.49.587,0,.609.49.608h9.546Q327.652,92.991,327.652,92.4Zm0,1.96q0-.665-.451-.666h-9.585c-.327,0-.49.208-.49.627s.163.646.49.646h9.546Q327.652,94.971,327.652,94.363Zm.138,6.058q0-.608-.47-.608h-3.9q-.49,0-.49.588,0,.608.49.607H327.3Q327.789,101.009,327.79,100.422Zm0,1.882q0-.608-.49-.608h-3.882c-.327,0-.49.2-.49.588s.164.608.49.608H327.3Q327.789,102.891,327.79,102.3Z" transform="translate(-289.352 -90.634)" fill="#fff" stroke="#fff" stroke-miterlimit="10" stroke-width="1"/></g><g transform="translate(184.714 0.255)"><path d="M386.072,92.961a.485.485,0,0,1,.549-.549h6.136q.588,0,.589.529t-.589.53H390.8a.433.433,0,0,0-.489.49v8.37q0,.49.627.314l2.117-.686q.608-.216.686.274a.62.62,0,0,1-.432.765,53.664,53.664,0,0,1-6.43,1.882.594.594,0,0,1-.823-.49.535.535,0,0,1,.49-.706q1-.176,2-.431.529-.1.53-.549V93.96a.434.434,0,0,0-.49-.49H386.66Q386.072,93.47,386.072,92.961Zm10-2q.158-.568.765-.334a.637.637,0,0,1,.392.922l-.529,1.509q-.2.511.294.51h5.725a.588.588,0,1,1,0,1.176h-.589q-.49,0-.529.627a18.935,18.935,0,0,1-2.177,7.174.838.838,0,0,0,.157,1.058,15.035,15.035,0,0,0,3.43,2.882c.392.248.424.569.1.96a.684.684,0,0,1-1.059.1,24.855,24.855,0,0,1-3.274-3q-.392-.471-.862.02a13.848,13.848,0,0,1-3.626,2.94.7.7,0,1,1-.686-1.215,12.492,12.492,0,0,0,3.47-2.882.944.944,0,0,0,0-1.176A20.683,20.683,0,0,1,395.4,99.1a.75.75,0,0,1,.215-.98q.529-.413.745.137a17.179,17.179,0,0,0,1.451,2.921c.261.392.424.568.489.53a14.643,14.643,0,0,0,1.961-6.43c.013-.353-.13-.529-.431-.529H396.52a.912.912,0,0,0-.784.588,25.163,25.163,0,0,1-1.412,2.548q-.392.588-.882.255a.608.608,0,0,1-.157-.941A29.1,29.1,0,0,0,396.069,90.961Z" transform="translate(-386.033 -90.432)" fill="#fff" stroke="#fff" stroke-miterlimit="10" stroke-width="1"/><path d="M422.957,101.116q6.076-.078,12.329-.706a.755.755,0,0,1,.8.392q.216.413-.333.49-2.275.216-4.568.353a.557.557,0,0,0-.548.627q0,.647.489.646H436.8q.588,0,.588.393t-.588.392H431.13q-.489,0-.489.588,0,.608.489.607h6.725q.588,0,.588.412,0,.431-.588.431H431.13a.433.433,0,0,0-.489.49,1.767,1.767,0,0,1-.334,1.372,3.689,3.689,0,0,1-2.588.236q-.725-.119-.823-.589t.45-.373l1.274.138q.98.2.961-.765,0-.51-.49-.51h-7.646q-.587,0-.587-.411,0-.431.587-.432h7.646q.489,0,.49-.587,0-.608-.49-.608h-6.529q-.588,0-.588-.392t.588-.393h6.529q.489,0,.49-.568,0-.588-.607-.569l-5.764.177q-.588.02-.726-.412C422.408,101.26,422.564,101.116,422.957,101.116Zm2.058-10.389q0-.353.431-.353c.3,0,.45.111.45.333q0,.373.49.373h3.294c.391,0,.588.111.588.334s-.2.352-.588.352h-3.294q-.491,0-.49.471a.433.433,0,0,0,.49.49h2.352a.52.52,0,0,1,.588.588v2.274a.52.52,0,0,1-.588.589h-2.352a.433.433,0,0,0-.49.489q0,.511.49.51h2.8q.588,0,.588.353,0,.372-.588.372h-2.8a.434.434,0,0,0-.49.49v.588a.433.433,0,0,0,.49.49H427.9q.491,0,.49-.393c0-.261.144-.391.431-.391s.451.2.451.587v.216a.52.52,0,0,1-.588.588h-6.371a.52.52,0,0,1-.588-.588v-.216q0-.587.431-.587c.3,0,.451.124.451.372q0,.412.49.412h1.431a.434.434,0,0,0,.49-.49v-.588a.434.434,0,0,0-.49-.49H421.6q-.588,0-.589-.352,0-.373.589-.373h2.921a.434.434,0,0,0,.49-.49q0-.509-.49-.509h-2.372a.52.52,0,0,1-.588-.589V93.314a.519.519,0,0,1,.588-.588h2.372q.49,0,.49-.47a.434.434,0,0,0-.49-.49h-3q-.589,0-.589-.333,0-.353.589-.353h3Q425.015,91.08,425.015,90.727Zm0,3.058q0-.451-.49-.451h-1.588c-.327,0-.49.144-.49.431s.164.451.49.451h1.588Q425.015,94.216,425.015,93.785Zm0,1.353a.4.4,0,0,0-.451-.451h-1.627q-.49,0-.49.411,0,.431.49.431h1.588Q425.015,95.529,425.015,95.138Zm3.45-1.353q-.02-.451-.51-.451h-1.568c-.327,0-.49.144-.49.431s.163.451.49.451h1.588Q428.464,94.216,428.465,93.785Zm0,1.353a.4.4,0,0,0-.451-.451h-1.626q-.491,0-.49.411,0,.431.49.431h1.588Q428.464,95.529,428.465,95.138Zm2.294.47q0-.431.589-.431h5.861c.393,0,.588.111.588.334a1.355,1.355,0,0,1-.254.726,7.21,7.21,0,0,1-1.607,1.7q-.549.354-.078.51l1.666.49q.627.176.393.608a.657.657,0,0,1-.843.333,15.369,15.369,0,0,1-2.2-.823,1.223,1.223,0,0,0-1.058.059,12.052,12.052,0,0,1-2.411.745.659.659,0,0,1-.8-.294q-.235-.45.314-.529,1-.216,2.058-.51.51-.195.04-.607a6.018,6.018,0,0,1-1.216-1.372c-.17-.353-.38-.53-.627-.53A.364.364,0,0,1,430.758,95.608Zm.922-4.156q0-.607.568-.607h3.686a.52.52,0,0,1,.587.588,2.407,2.407,0,0,0,.275,1.725.909.909,0,0,0,.862.2c.392,0,.588.125.588.373s-.2.392-.588.392a3.165,3.165,0,0,1-1.784-.255,1.978,1.978,0,0,1-.412-1.686.434.434,0,0,0-.49-.49h-1.7q-.491,0-.51.608a3.97,3.97,0,0,1-.882,1.843q-.451.49-.882.177c-.326-.249-.294-.556.1-.922A2.211,2.211,0,0,0,431.68,91.452Zm4.626,5.058q.431-.49-.1-.49h-3.234c-.326,0-.347.21-.058.627a6.582,6.582,0,0,0,.941.823,1.131,1.131,0,0,0,1.2.059A7.188,7.188,0,0,0,436.306,96.51Z" transform="translate(-396.909 -90.374)" fill="#fff" stroke="#fff" stroke-miterlimit="10" stroke-width="1"/><path d="M464.374,91.486q0-.628.548-.628h.177a.52.52,0,0,1,.589.589q0,1.294-.079,2.588a.415.415,0,0,0,.471.49h6.351a.5.5,0,0,1,.569.588v2.744a50.359,50.359,0,0,1-.549,7.724,2.185,2.185,0,0,1-1.9,2.1,15.41,15.41,0,0,1-3.489-.039.852.852,0,0,1-.8-.726l-.039-.235q-.138-.588.451-.51a23.668,23.668,0,0,0,3.234.2,2.47,2.47,0,0,0,.784-.314,2.169,2.169,0,0,0,.49-1.176q.293-2.588.353-6.273V96.328a.433.433,0,0,0-.49-.49h-5.077c-.326,0-.5.208-.529.627a17.411,17.411,0,0,1-1.411,6.038,14.17,14.17,0,0,1-5.156,5.254.64.64,0,0,1-.961-.254.573.573,0,0,1,.235-.9,12,12,0,0,0,5.038-5.7,19.786,19.786,0,0,0,.941-4.528q.059-.529-.411-.529h-5.156a.52.52,0,0,1-.588-.589v-.137a.519.519,0,0,1,.588-.588h5.234q.49,0,.509-.608Z" transform="translate(-408.436 -90.525)" fill="#fff" stroke="#fff" stroke-miterlimit="10" stroke-width="1"/></g><g transform="translate(275.912 0.13)"><path d="M518.641,91.606q0-.608.568-.608h4.921q.588,0,.372.588-.881,2.372-1.7,4.744a.9.9,0,0,0,.294.941,5.241,5.241,0,0,1,1.49,4.941,2.242,2.242,0,0,1-1.823,1.783,3.159,3.159,0,0,1-1.177.1.938.938,0,0,1-.843-.785q-.137-.608.45-.47a1.762,1.762,0,0,0,1.843-.431,2.489,2.489,0,0,0,.333-2.02,5.957,5.957,0,0,0-1.431-2.666,1.144,1.144,0,0,1-.412-1.2l1.254-3.92q.157-.51-.334-.51h-2.077a.433.433,0,0,0-.49.489v14.84a.529.529,0,0,1-.608.588q-.627,0-.627-.588Zm10.919-.961a.737.737,0,0,1,.922.49,8.484,8.484,0,0,1,.51,1.49.647.647,0,0,0,.646.47h3.568a.588.588,0,0,1,0,1.177H529.56q-.431,0-.431.529l-.078,2.47a.414.414,0,0,0,.47.49h4.823a.519.519,0,0,1,.587.588,44.945,44.945,0,0,1-.646,8.037,1.492,1.492,0,0,1-1.1,1.314,5.526,5.526,0,0,1-3.234.019.8.8,0,0,1-.667-.725l-.039-.2q-.078-.589.529-.451a7.2,7.2,0,0,0,2.569.216,1.54,1.54,0,0,0,.8-1.255,45.35,45.35,0,0,0,.47-5.822.433.433,0,0,0-.49-.49H529.4c-.326,0-.516.2-.568.608a12,12,0,0,1-4,7.919q-.647.51-1.117-.019-.452-.53.2-1.02a9.777,9.777,0,0,0,3.567-6.194,41.643,41.643,0,0,0,.393-5.528.433.433,0,0,0-.49-.49h-1.569a.588.588,0,0,1,0-1.177h3.313q.51,0,.274-.627l-.411-.941q-.353-.647.294-.823A.694.694,0,0,0,529.56,90.645Z" transform="translate(-518.641 -90.324)" fill="#fff" stroke="#fff" stroke-miterlimit="10" stroke-width="1"/><path d="M556.009,93.571c.274-.392.53-.51.764-.352q.413.255.039.823-.745.8-.607,1.294v3.881q0,.589-.53.589t-.529-.589V96.707q0-.529-.627.04l-.157.118q-.627.489-.96.137-.354-.413.157-.843A14.146,14.146,0,0,0,556.009,93.571ZM553.4,103.2c0-.314.188-.471.568-.471h15.918q.588,0,.588.45,0,.47-.588.471h-6.9a.433.433,0,0,0-.49.49v2.509a1,1,0,0,1-.686,1.039,3.94,3.94,0,0,1-1.9.176q-.628-.1-.706-.588-.118-.568.47-.451,1.117.314,1.549-.391.059-1.138.039-2.294a.433.433,0,0,0-.49-.49H553.99Q553.4,103.647,553.4,103.2Zm2.136-12.448q.55-.647.9-.431.392.255-.019.843a10.556,10.556,0,0,1-1.843,1.862q-.627.451-.922.1-.392-.451.158-.823A11.923,11.923,0,0,0,555.538,90.748Zm1.628,14.056q.647-.471.941-.059.332.451-.275.882a18.066,18.066,0,0,1-2.921,1.646.568.568,0,0,1-.823-.274q-.255-.51.333-.726A19.961,19.961,0,0,0,557.166,104.8Zm-2.117-3.764q0-.431.588-.431h12.526q.588,0,.588.412,0,.43-.588.431H555.637Q555.049,101.451,555.049,101.04Zm4.078-10.193q.47-.726.862-.647.47.117.235.549-.314.491.215.49h3.431q.588,0,.588.431,0,.451-.588.45h-1.431a.433.433,0,0,0-.49.49v.51a.433.433,0,0,0,.49.49H564.2q.588,0,.589.432t-.589.431h-1.764a.433.433,0,0,0-.49.49v.432a.433.433,0,0,0,.49.49h1.49q.588,0,.587.373,0,.392-.587.392h-1.49a.433.433,0,0,0-.49.49v.608q0,.49.608.431l1.215-.2q.647-.118.726.294.059.47-.53.589a44.985,44.985,0,0,1-4.7.764.718.718,0,0,1-.823-.412q-.274-.567-.137-.686a1.456,1.456,0,0,0,.118-.666v-1.8q0-.589.51-.589t.51.589v2q0,.49.607.431a.979.979,0,0,0,.373-.039.542.542,0,0,0,.51-.569V94.963a.433.433,0,0,0-.49-.49H558.4q-.589,0-.589-.431t.589-.432h2.038a.433.433,0,0,0,.49-.49v-.51a.434.434,0,0,0-.49-.49h-.745a1.316,1.316,0,0,0-.882.471q-.47.372-.8.039-.353-.352.235-.823A4.286,4.286,0,0,0,559.126,90.847Zm6.116,13.761q.294-.333.863.059a14.814,14.814,0,0,0,3.117,1.588.473.473,0,0,1,.294.764.635.635,0,0,1-.921.294,17.316,17.316,0,0,1-3.353-2.137Q564.928,104.941,565.242,104.607Zm.47-12.741q0-.627.549-.627h3.254a.519.519,0,0,1,.588.587v5.8q-.234,1.313-1.7,1.078a.744.744,0,0,1-.706-.587q-.1-.53.47-.451.863.216.863-.8V92.689a.434.434,0,0,0-.49-.49H567.3a.434.434,0,0,0-.49.49V99.06q0,.588-.549.587t-.549-.587Z" transform="translate(-529.451 -90.192)" fill="#fff" stroke="#fff" stroke-miterlimit="10" stroke-width="1"/><path d="M596.356,91.486q0-.628.549-.628h.175a.52.52,0,0,1,.589.589q0,1.294-.078,2.588a.415.415,0,0,0,.47.49h6.352a.5.5,0,0,1,.568.588v2.744a50.275,50.275,0,0,1-.549,7.724,2.185,2.185,0,0,1-1.9,2.1,15.415,15.415,0,0,1-3.489-.039.852.852,0,0,1-.8-.726l-.039-.235q-.136-.588.451-.51a23.684,23.684,0,0,0,3.235.2,2.454,2.454,0,0,0,.783-.314,2.164,2.164,0,0,0,.49-1.176q.3-2.588.353-6.273V96.328a.433.433,0,0,0-.49-.49h-5.077c-.327,0-.5.208-.529.627A17.412,17.412,0,0,1,596,102.5a14.16,14.16,0,0,1-5.156,5.254.641.641,0,0,1-.961-.254.573.573,0,0,1,.236-.9,12,12,0,0,0,5.038-5.7,19.818,19.818,0,0,0,.941-4.528q.058-.529-.412-.529h-5.156a.52.52,0,0,1-.588-.589v-.137a.52.52,0,0,1,.588-.588h5.234q.49,0,.51-.608Z" transform="translate(-540.848 -90.4)" fill="#fff" stroke="#fff" stroke-miterlimit="10" stroke-width="1"/></g><g transform="translate(364.624 0.098)"><path d="M655.234,95.368a1.279,1.279,0,0,1,1.313-.353q.627.2.471.373-.176.2.352.608a34.647,34.647,0,0,0,7.057,3.411q.686.216.333.842a.766.766,0,0,1-.979.412,26.1,26.1,0,0,1-2.745-1.254q-.51-.275-.51.254,0,.49-.587.49h-7.9q-.588,0-.588-.353c0-.274-.209-.3-.627-.078q-1.059.549-2.117,1a.686.686,0,0,1-.961-.314.5.5,0,0,1,.274-.8A26.293,26.293,0,0,0,655.234,95.368Zm-4.862-4.47q.353-.666.941-.51.665.176.431.627-.275.55.235.549h3.784c.392,0,.588.164.588.49s-.2.49-.588.49h-4.509a1.275,1.275,0,0,0-.941.588q-.452.529-1.059,1.118-.725.568-1.137.157-.431-.431.275-1.019A10.948,10.948,0,0,0,650.372,90.9Zm-.2,11.82a.52.52,0,0,1,.589-.587h11.154a.519.519,0,0,1,.587.587v4.627q0,.588-.627.588t-.627-.412q0-.451-.49-.451H651.9q-.49,0-.49.431t-.608.432q-.627,0-.627-.588Zm11.076.941q0-.509-.47-.509H651.9a.433.433,0,0,0-.49.49v1.941a.434.434,0,0,0,.49.49h8.861a.433.433,0,0,0,.49-.49Zm-8.7-10.154a.688.688,0,0,1,.9.45,2.337,2.337,0,0,0,.177.47.562.562,0,0,1-.392.8q-.745.236-.862-.352l-.177-.608A.511.511,0,0,1,652.548,93.506Zm3.959,3.117a.82.82,0,0,0-1.058.137,22.229,22.229,0,0,1-2.607,1.784,2.092,2.092,0,0,0-.432.373q.039.353.706.254h6.2c.444.04.66-.046.646-.254a3.183,3.183,0,0,0-.706-.49Q657.88,97.563,656.508,96.623Zm2.059-5.685q.313-.608.862-.411.549.157.372.588c-.13.3-.026.45.314.45h4.391c.392,0,.588.164.588.49s-.2.49-.588.49h-5.038a1.124,1.124,0,0,0-.882.588l-.627.8q-.549.588-1.039.235-.491-.392.039-.921A13.4,13.4,0,0,0,658.567,90.937Zm2.469,3.333q-.255-.666.354-.843a.638.638,0,0,1,.862.393l.254.706a.569.569,0,0,1-.45.784q-.686.235-.823-.393Z" transform="translate(-647.636 -90.212)" fill="#fff" stroke="#fff" stroke-miterlimit="10" stroke-width="1"/><path d="M682.357,98.99q0-.49.589-.49h7.37q.589,0,.589.49t-.589.49h-1.98a.433.433,0,0,0-.489.49V101.3a.433.433,0,0,0,.489.49h1.687q.587,0,.587.49t-.587.49h-1.687a.433.433,0,0,0-.489.49v2.391q0,.49.607.666a38.6,38.6,0,0,0,6.136.49h3l2.058-.1q.588-.039.411.549a.714.714,0,0,1-.745.608h-5.135a25.518,25.518,0,0,1-6.842-.784,7.226,7.226,0,0,1-2.745-1.686q-.489-.43-.627.078a15.356,15.356,0,0,1-.7,1.824q-.334.665-.8.254a.791.791,0,0,1-.118-1,16.794,16.794,0,0,0,1.509-5.489q.079-.567.569-.451.51.078.47.667a19.3,19.3,0,0,1-.294,1.921,1.03,1.03,0,0,0,.236.941,8.672,8.672,0,0,0,1.411,1.2q.51.314.51-.2V99.97a.433.433,0,0,0-.49-.49h-3.312Q682.356,99.48,682.357,98.99Zm1.02-7.39c0-.419.182-.627.548-.627h5.607a.52.52,0,0,1,.588.587v5a.52.52,0,0,1-.588.588h-5.568a.52.52,0,0,1-.587-.588Zm5.566.862q0-.51-.47-.51h-3.45a.434.434,0,0,0-.49.49v.686a.433.433,0,0,0,.49.49h3.43a.433.433,0,0,0,.49-.49Zm0,2.509q0-.51-.47-.51h-3.45a.433.433,0,0,0-.49.49v.686a.433.433,0,0,0,.49.49h3.43a.433.433,0,0,0,.49-.49Zm4.176,8.665c.4-.365.739-.451,1-.254.287.208.248.49-.118.842a11.478,11.478,0,0,1-1.824,1.314c-.5.261-.83.235-1-.078s-.059-.594.372-.8A9.414,9.414,0,0,0,693.119,103.636Zm-1.96-12.153q0-.51.549-.51h7.371q.587,0,.587.49t-.587.49H696.53q-.471,0-.588.628l-.1.548q-.137.648.334.648h2.313a.52.52,0,0,1,.589.587v7.9a.52.52,0,0,1-.589.588h-6.038a.52.52,0,0,1-.589-.588v-7.9a.52.52,0,0,1,.589-.587H694q.489,0,.608-.608a2.99,2.99,0,0,1,.1-.569q.137-.647-.294-.647h-2.666Q691.158,91.952,691.159,91.483ZM697.98,95.3q0-.51-.47-.51h-4.1a.434.434,0,0,0-.49.49v.843a.433.433,0,0,0,.49.49h4.078a.433.433,0,0,0,.49-.49Zm0,2.666q0-.51-.47-.51h-4.1a.434.434,0,0,0-.49.49v.843a.433.433,0,0,0,.49.49h4.078a.433.433,0,0,0,.49-.49Zm0,2.646q0-.509-.47-.509h-4.1a.433.433,0,0,0-.49.49v.784a.433.433,0,0,0,.49.49h4.078a.433.433,0,0,0,.49-.49Zm-1.254,3.353q.312-.412.9-.059l1.353.823q.568.334.2.824a.647.647,0,0,1-1,.078l-1.372-1A.419.419,0,0,1,696.726,103.97Z" transform="translate(-658.434 -90.404)" fill="#fff" stroke="#fff" stroke-miterlimit="10" stroke-width="1"/><path d="M718.356,91.436a47.418,47.418,0,0,0,5.1-.941.647.647,0,0,1,.784.392q.256.529-.392.686l-1.666.372a.555.555,0,0,0-.47.588v2.333a.433.433,0,0,0,.49.49h1.725q.589,0,.589.568a.52.52,0,0,1-.589.589H722.2q-.49,0-.49.392a1.23,1.23,0,0,0,.314.764q.979,1.275,2.038,2.941a.983.983,0,0,1-.058,1.137q-.413.549-.726-.1-.431-.9-.941-1.822c-.262-.366-.431-.542-.51-.53a1.97,1.97,0,0,0-.118.706v7.312c0,.392-.21.588-.627.588s-.627-.2-.627-.588V101.14a2.157,2.157,0,0,0-.1-.667c-.1-.078-.236.033-.392.334a12.033,12.033,0,0,1-1.235,2.2q-.47.648-.882.255a.72.72,0,0,1-.02-1.039,15.935,15.935,0,0,0,2.412-5.194q.136-.51-.373-.51h-1.745a.511.511,0,0,1-.588-.569.52.52,0,0,1,.588-.588h1.843a.434.434,0,0,0,.49-.49v-2.1q0-.489-.608-.411l-.961.117q-.726.1-.922-.431T718.356,91.436Zm14.977,7.586q.294-.608.8-.412a.514.514,0,0,1,.314.8,16.65,16.65,0,0,1-2.96,4.529,15.267,15.267,0,0,1-5.861,3.666.713.713,0,0,1-.98-.411q-.315-.609.294-.8a19.175,19.175,0,0,0,2.979-1.333A13.392,13.392,0,0,0,733.333,99.022Zm-7-5.351a.459.459,0,0,1,.686-.393.62.62,0,0,1,.47.785,42.1,42.1,0,0,1-1.333,5.117q-.216.607-.764.314a.688.688,0,0,1-.372-.9A46.665,46.665,0,0,0,726.334,93.671Zm3.038-2.784q0-.627.589-.627.647,0,.646.588v9.566A.529.529,0,0,1,730,101q-.627,0-.627-.588Zm3.078,2.744q-.315-.647.177-.882a.616.616,0,0,1,.862.353,33.82,33.82,0,0,1,1.431,3.353q.216.647-.314.862-.727.313-.9-.275A21.924,21.924,0,0,0,732.451,93.631Z" transform="translate(-669.463 -90.182)" fill="#fff" stroke="#fff" stroke-miterlimit="10" stroke-width="1"/><path d="M756.637,90.6q0-.452.53-.451.567,0,.568.411,0,.452.49.451h2.353a.52.52,0,0,1,.587.588v1.058q0,.491.529.49t.529.411q0,.413-.51.412-.549,0-.549.49V95.6a.52.52,0,0,1-.587.588h-2.353q-.491,0-.49.667t.49.666h2.764a.52.52,0,0,1,.588.589v1.882a.52.52,0,0,1-.588.588H753.48a.52.52,0,0,1-.587-.588V98.105a.52.52,0,0,1,.587-.589h2.666q.49,0,.49-.666t-.49-.667h-2.372a.52.52,0,0,1-.588-.588V94.459q0-.49-.47-.49t-.471-.412q0-.412.452-.411a.433.433,0,0,0,.49-.49V91.6a.52.52,0,0,1,.588-.588h2.372Q756.636,91.008,756.637,90.6Zm-1.353,11.193a.773.773,0,0,1,.8-.529q.608.078.393.529-.255.53.255.53h2.136a.687.687,0,0,0,.667-.393q.117-.391.686-.391t.451.372q-.117.412.373.412h.471q.587,0,.587.411,0,.431-.587.431h-.785a.911.911,0,0,0-.784.589,8.612,8.612,0,0,1-.823,1.254q-.432.49.176.764l1.608.745q.568.293.235.765a.661.661,0,0,1-.961.156q-.96-.529-1.941-.98a1,1,0,0,0-.941.039,12.458,12.458,0,0,1-3.783,1.177q-.667.1-.823-.412c-.105-.34.065-.529.51-.569a9.68,9.68,0,0,0,2.725-.745q.568-.216.078-.45-.9-.393-1.823-.726-.686-.255-.235-.882l.156-.215q.392-.511-.137-.51h-1.137q-.588,0-.589-.411c0-.287.2-.431.589-.431H754.5A.909.909,0,0,0,755.284,101.79Zm1.353-3c0-.339-.157-.51-.47-.51H754.48a.434.434,0,0,0-.49.49v.548a.433.433,0,0,0,.49.49h1.666a.433.433,0,0,0,.49-.49Zm0-6.253c-.013-.444-.17-.666-.47-.666h-1.392q-.491,0-.49.627,0,.647.49.647h1.372Q756.636,93.145,756.637,92.537Zm0,2.118q0-.686-.47-.686h-1.392a.433.433,0,0,0-.49.49v.372a.433.433,0,0,0,.49.49h1.372Q756.636,95.321,756.637,94.655Zm2.058,9.017q.334-.511-.2-.51h-2.333a1.079,1.079,0,0,0-.843.452q-.353.47.118.666l1.587.569a.843.843,0,0,0,.941-.255A4.066,4.066,0,0,0,758.694,103.672Zm1.412-11.135c0-.444-.151-.666-.451-.666h-1.431q-.491,0-.49.627,0,.647.49.647h1.391Q760.106,93.145,760.106,92.537Zm0,2.118q0-.686-.47-.686h-1.411a.433.433,0,0,0-.49.49v.372a.433.433,0,0,0,.49.49h1.391Q760.106,95.321,760.106,94.655Zm.392,4.136c0-.339-.157-.51-.47-.51h-1.8a.433.433,0,0,0-.49.49v.548a.433.433,0,0,0,.49.49h1.783a.433.433,0,0,0,.49-.49Zm3.7-7.92q.1-.608.608-.45.489.137.392.8l-.294,1.509q-.118.549.314.549h4.019c.393,0,.588.184.588.549s-.2.549-.588.549h-.314c-.327,0-.5.208-.529.627a27.128,27.128,0,0,1-1.628,7.567,1.128,1.128,0,0,0,.158,1.058,14.088,14.088,0,0,0,2.2,2.45q.765.608.294,1.2-.471.567-1.059-.02a15.093,15.093,0,0,1-2-2.47q-.333-.511-.686.078a12.367,12.367,0,0,1-2.078,2.548q-.529.451-.922-.039-.372-.47.235-1.019a10.33,10.33,0,0,0,2.137-2.725,1.288,1.288,0,0,0-.02-1.176,20.955,20.955,0,0,1-1.214-3.137q-.217-.685.2-.979.392-.3.587.294a22.282,22.282,0,0,0,1.058,2.705c.17.287.334.235.49-.157a26.343,26.343,0,0,0,1.157-6.273q.02-.528-.412-.529h-1.882c-.327,0-.549.2-.666.608q-.314,1.038-.706,2.136-.275.627-.666.236a.879.879,0,0,1-.2-1A31.274,31.274,0,0,0,764.2,90.871Z" transform="translate(-680.303 -90.146)" fill="#fff" stroke="#fff" stroke-miterlimit="10" stroke-width="1"/></g><g transform="translate(0.211 40.569)"><path d="M120.5,149.686a.859.859,0,0,1,.976-.521q.585.109.238.8a.52.52,0,0,1-.108.217q-.282.564.26.563h4.9q.651,0,.651.564t-.651.565h-5.683a1.471,1.471,0,0,0-1.063.65l-.867.89q-.738.608-1.193.152-.478-.478.131-.977A11.41,11.41,0,0,0,120.5,149.686Zm-1.627,6.138q0-.563.651-.563h14.923a.575.575,0,0,1,.65.651V159.1a.575.575,0,0,1-.65.651H128.7a.479.479,0,0,0-.542.542v1.28a.479.479,0,0,0,.542.542h7.114a.555.555,0,0,1,.629.651,13.016,13.016,0,0,1-.759,4.273l-.239.282a2,2,0,0,1-1.127.521,18.736,18.736,0,0,1-2.668-.152.814.814,0,0,1-.759-.737q-.108-.781.565-.695a7.513,7.513,0,0,0,2.667.109.807.807,0,0,0,.5-.564,12.627,12.627,0,0,0,.26-2.017.459.459,0,0,0-.521-.543H128.7a.479.479,0,0,0-.542.543v4.186q0,.651-.695.651t-.694-.651v-4.186q0-.586-.629.087a7.92,7.92,0,0,1-1.844,1.475,18.953,18.953,0,0,1-5.162,2.494.768.768,0,0,1-1-.369q-.368-.674.391-.868a17.6,17.6,0,0,0,6.073-2.885c.391-.317.4-.477.022-.477h-4.967c-.434,0-.607-.217-.521-.65q.283-1.627.63-3.276a.722.722,0,0,1,.78-.651h5.683a.479.479,0,0,0,.542-.542V156.93a.479.479,0,0,0-.542-.542h-6.7Q118.873,156.388,118.873,155.824Zm7.9,4.489q0-.563-.521-.563h-4.6q-.543,0-.651.673l-.151,1.106q-.087.585.434.585h4.945a.479.479,0,0,0,.542-.542Zm-4.4-6.507q-.348-.693.3-.889a.782.782,0,0,1,1.02.412q.325.7-.325.911A.7.7,0,0,1,122.365,153.807Zm7.5-4.229q.282-.694.868-.563.628.13.39.78l-.087.217q-.325.738.239.737h5.162q.651,0,.651.564t-.651.565h-5.835a1.354,1.354,0,0,0-1.019.65l-.846,1.019q-.825.739-1.258.347-.455-.412.152-1A10.906,10.906,0,0,0,129.87,149.578Zm3.926,7.375q0-.564-.521-.565H128.7a.479.479,0,0,0-.542.542v1.194a.479.479,0,0,0,.542.542h4.555a.48.48,0,0,0,.543-.542Zm-1.475-3.21q-.413-.717.217-.933.607-.195,1,.5.3.716-.347.911A.66.66,0,0,1,132.321,153.743Z" transform="translate(-117.752 -148.994)" fill="#fff"/><path d="M157.1,161.555q0-.673.629-.673H174.4a.575.575,0,0,1,.651.651v.173a.576.576,0,0,1-.651.651H157.747a.576.576,0,0,1-.651-.651Z" transform="translate(-130.038 -152.706)" fill="#fff"/><path d="M195.63,150.632q0-.693.607-.694h6.7a.575.575,0,0,1,.651.651v4.837a.575.575,0,0,1-.651.651h-5.466a.48.48,0,0,0-.543.543v11.647a.65.65,0,1,1-1.3,0Zm6.658.759a.479.479,0,0,0-.542-.542h-4.273a.479.479,0,0,0-.543.542V152a.48.48,0,0,0,.543.543h4.273a.479.479,0,0,0,.542-.543Zm0,2.6a.479.479,0,0,0-.542-.542h-4.273a.479.479,0,0,0-.543.542v.564a.48.48,0,0,0,.543.543h4.273a.479.479,0,0,0,.542-.543Zm-1.756,3.688q.672-.716,1.106-.607.456.131-.173.737a6.21,6.21,0,0,1-1,.825q-.52.434-.477.521a.277.277,0,0,0,.131.129,6.732,6.732,0,0,0,1.453-.086,1.5,1.5,0,0,0,.867-.325q.8-.738,1.193-.564.39.195-.2.716a39.189,39.189,0,0,1-3.384,2.472l-.043.152a.96.96,0,0,0,.8.065l1.714-.282q.607-.109.5-.434-.239-.413.109-.521.347-.087.737.629l.26.564q.261.716-.043.8a.352.352,0,0,1-.5-.238q-.217-.369-.868-.217a23.846,23.846,0,0,1-3.4.651q-.651.043-.737-.325-.13-.477.585-.955l.868-.629q.52-.3.542-.608-.238-.217-1-.065l-.477.044q-.651.065-.716-.347-.043-.433.585-.845A14.91,14.91,0,0,0,200.531,157.681Zm2.212,6.29q0-.694.455-.694.5,0,.5.651a7.748,7.748,0,0,1-.065,1.735,3.073,3.073,0,0,1-2.472,2.755,8.6,8.6,0,0,1-1.323.369.742.742,0,0,1-.889-.39q-.2-.457.5-.543a4.24,4.24,0,0,0,2.885-1.366q.325-.521-.261-.521h-2.407a.574.574,0,0,1-.651-.65V164.08q0-.651.5-.651.521,0,.521.651v.477a.479.479,0,0,0,.542.543H202.2a.48.48,0,0,0,.543-.543Zm4.359-6.225q.847-.845,1.237-.759.5.13-.13.759a15.886,15.886,0,0,1-1.3,1.02q-.694.478-.108.477a8.987,8.987,0,0,0,1.388-.109,2.007,2.007,0,0,0,1.215-.542q.608-.564.977-.369.39.217-.261.737a21.038,21.038,0,0,1-2.82,2,2.849,2.849,0,0,0-.5.391.2.2,0,0,0,.108.173,8.2,8.2,0,0,0,1.844-.131l.716-.087q.564-.151.325-.5-.239-.325.109-.411.368-.087.781.563l.325.651q.3.781,0,.868c-.246.073-.405.008-.477-.2a.718.718,0,0,0-.847-.39,23.073,23.073,0,0,1-3.492.607c-.492.058-.766-.035-.824-.282q-.173-.52.543-.976l.867-.585c.391-.333.578-.542.564-.629a1.807,1.807,0,0,0-1,0l-.478.043q-.65.044-.716-.369-.043-.433.586-.868A15.673,15.673,0,0,0,207.1,157.746Zm-1.5,6.225q0-.694.477-.694.542,0,.542.651v.8a.48.48,0,0,0,.543.543h1.54a.479.479,0,0,0,.542-.543v-.716q0-.65.478-.651t.477.651v1.475a.575.575,0,0,1-.651.651h-2.386a.479.479,0,0,0-.543.542v1.584q0,.651-.5.651-.521,0-.521-.651Zm.173-13.339q0-.693.607-.694H213.2a.575.575,0,0,1,.651.651v16.441a3.939,3.939,0,0,1-.239.868,1.393,1.393,0,0,1-1.3.845,9.258,9.258,0,0,1-1.215-.043.975.975,0,0,1-.955-.781q-.152-.738.478-.585a3.109,3.109,0,0,0,1.409.087,1.208,1.208,0,0,0,.521-.955v-9.933a.479.479,0,0,0-.542-.542h-5.574a.576.576,0,0,1-.651-.651Zm6.767.759a.479.479,0,0,0-.542-.542h-4.381a.479.479,0,0,0-.542.542V152a.479.479,0,0,0,.542.543h4.381a.479.479,0,0,0,.542-.543Zm0,2.6a.479.479,0,0,0-.542-.542h-4.381a.479.479,0,0,0-.542.542v.5a.479.479,0,0,0,.542.543h4.381a.479.479,0,0,0,.542-.543Z" transform="translate(-142.071 -149.289)" fill="#fff"/></g><g transform="translate(117.482 41.231)"><path d="M291.938,150.111a5.713,5.713,0,0,1,4.685,1.085,4.47,4.47,0,0,1,.585,5.553,34.044,34.044,0,0,1-6.594,7.981q-.52.564.065.565h6.788q.651,0,.651.693,0,.76-.586.76h-8.611a.575.575,0,0,1-.651-.651v-.3a1.741,1.741,0,0,1,.651-1.258q6.073-5.51,7.374-9.7a2.84,2.84,0,0,0-2.038-3.319,3.417,3.417,0,0,0-3.688.955,4.371,4.371,0,0,0-.455,1.3q-.065.781-.716.781h-.3q-.65,0-.585-.651A3.909,3.909,0,0,1,291.938,150.111Z" transform="translate(-288.272 -149.972)" fill="#fff"/><path d="M317.591,150.03a4.734,4.734,0,0,1,5.227,2.624,11.839,11.839,0,0,1,1.193,5.205,13.583,13.583,0,0,1-1.085,6.333,5.273,5.273,0,0,1-2.126,2.343,5.415,5.415,0,0,1-4.446.065,6.494,6.494,0,0,1-3.058-4.879,16.586,16.586,0,0,1,.391-7.9Q314.944,150.4,317.591,150.03Zm.087,1.41a3.2,3.2,0,0,0-1.669,1.193,11.7,11.7,0,0,0-1.345,6.9,13.644,13.644,0,0,0,.607,3.47q1.128,2.929,3.644,2.646a3.6,3.6,0,0,0,2.82-2.494,15.658,15.658,0,0,0,.347-8.047,6.588,6.588,0,0,0-.586-1.735A3.229,3.229,0,0,0,317.678,151.44Z" transform="translate(-295.992 -149.957)" fill="#fff"/></g><path d="M426.235,151.074q.023-.694.651-.695h7.461a.651.651,0,1,1,0,1.3h-6.138q-.543,0-.564.672,0,2.191-.087,4.381,0,.564.695.087a4.926,4.926,0,0,1,3.6-.846,4.652,4.652,0,0,1,1.736.738,5.492,5.492,0,0,1,2,3.318,7.462,7.462,0,0,1-.369,4.207,4.843,4.843,0,0,1-5.141,2.907,6.269,6.269,0,0,1-2.6-.716,3.821,3.821,0,0,1-1.822-2.863c-.043-.434.153-.651.585-.651h.283a.724.724,0,0,1,.781.651,2.86,2.86,0,0,0,2.776,2.19h.868a3.491,3.491,0,0,0,2.906-2.429,5.262,5.262,0,0,0-.217-4.121,3.456,3.456,0,0,0-5.965-.109q-.325.738-.867.737h-.3c-.4,0-.6-.224-.585-.672Q426.04,155.128,426.235,151.074Z" transform="translate(-213.688 -108.857)" fill="#fff"/><path d="M564.793,150.89a1.6,1.6,0,0,1,1.128-.542q.629,0,.629.651V164.88q.043.651.022,1.323a.575.575,0,0,1-.651.651h-.261a.575.575,0,0,1-.651-.651V153.059q0-.585-.694.022a10.027,10.027,0,0,1-1.887,1.171q-.651.282-.651-.369v-.39a1,1,0,0,1,.651-.955A10,10,0,0,0,564.793,150.89Z" transform="translate(-256.2 -108.847)" fill="#fff"/><g transform="translate(384.458 40.677)"><path d="M679.49,150.89a1.6,1.6,0,0,1,1.128-.542q.629,0,.629.651V164.88q.043.651.022,1.323a.575.575,0,0,1-.651.651h-.261a.575.575,0,0,1-.651-.651V153.059q0-.585-.694.022a10.027,10.027,0,0,1-1.887,1.171q-.651.282-.651-.369v-.39a1,1,0,0,1,.651-.955A10,10,0,0,0,679.49,150.89Z" transform="translate(-676.475 -149.524)" fill="#fff"/><path d="M696.542,151.074q.022-.694.651-.695h7.462a.651.651,0,0,1,0,1.3h-6.139c-.361,0-.55.224-.563.672q0,2.191-.087,4.381,0,.564.695.087a4.926,4.926,0,0,1,3.6-.846,4.648,4.648,0,0,1,1.735.738,5.493,5.493,0,0,1,2,3.318,7.474,7.474,0,0,1-.369,4.207,4.844,4.844,0,0,1-5.141,2.907,6.266,6.266,0,0,1-2.6-.716,3.82,3.82,0,0,1-1.822-2.863q-.064-.651.586-.651h.282a.724.724,0,0,1,.781.651,2.859,2.859,0,0,0,2.776,2.19h.868a3.49,3.49,0,0,0,2.906-2.429,5.262,5.262,0,0,0-.217-4.121,3.456,3.456,0,0,0-5.965-.109q-.325.738-.868.737h-.3q-.608,0-.586-.672Q696.347,155.128,696.542,151.074Z" transform="translate(-682.557 -149.534)" fill="#fff"/><path d="M721.811,150.45a52.527,52.527,0,0,0,5.639-1.041.717.717,0,0,1,.867.433q.282.587-.434.76l-1.844.412a.615.615,0,0,0-.52.651v2.581a.479.479,0,0,0,.543.543h1.908a.565.565,0,0,1,.65.629.574.574,0,0,1-.65.651h-1.908c-.362,0-.543.144-.543.434a1.368,1.368,0,0,0,.347.846q1.084,1.41,2.256,3.254a1.089,1.089,0,0,1-.065,1.258q-.455.608-.8-.109-.478-1-1.041-2.017-.434-.608-.564-.585a2.215,2.215,0,0,0-.13.781v8.09q0,.651-.694.651t-.695-.651v-6.832a2.362,2.362,0,0,0-.108-.738c-.116-.087-.261.036-.434.369a13.285,13.285,0,0,1-1.367,2.43q-.52.715-.976.282a.8.8,0,0,1-.022-1.15,17.636,17.636,0,0,0,2.668-5.748q.152-.563-.412-.564h-1.93a.566.566,0,0,1-.651-.629.575.575,0,0,1,.651-.65h2.039a.479.479,0,0,0,.542-.543v-2.32q0-.543-.673-.456l-1.062.13q-.8.109-1.02-.477C721.232,150.732,721.377,150.509,721.811,150.45Zm16.571,8.394q.325-.672.89-.455a.569.569,0,0,1,.347.889,18.437,18.437,0,0,1-3.275,5.01,16.905,16.905,0,0,1-6.486,4.056.788.788,0,0,1-1.084-.455q-.348-.674.325-.889a21.244,21.244,0,0,0,3.3-1.475A14.822,14.822,0,0,0,738.382,158.845Zm-7.743-5.921a.507.507,0,0,1,.759-.434.685.685,0,0,1,.521.868,46.431,46.431,0,0,1-1.475,5.661q-.239.674-.846.347a.761.761,0,0,1-.412-1A51.457,51.457,0,0,0,730.639,152.924Zm3.362-3.08q0-.693.651-.693.715,0,.715.651v10.585a.585.585,0,0,1-.673.651q-.693,0-.693-.651Zm3.4,3.037q-.348-.716.2-.976a.682.682,0,0,1,.955.391A37.376,37.376,0,0,1,740.138,156q.239.717-.347.955-.8.348-1-.3A24.3,24.3,0,0,0,737.406,152.88Z" transform="translate(-690.348 -149.15)" fill="#fff"/></g><g transform="translate(0 93.172)"><path d="M120.192,226.175a.86.86,0,0,1,.976-.52q.586.108.239.8a.517.517,0,0,1-.108.217q-.283.564.26.563h4.9q.651,0,.651.565t-.651.564h-5.683a1.469,1.469,0,0,0-1.063.65l-.868.89q-.737.608-1.193.152-.478-.478.13-.977A11.37,11.37,0,0,0,120.192,226.175Zm-1.627,6.138q0-.563.651-.563h14.924a.575.575,0,0,1,.65.651v3.188a.575.575,0,0,1-.65.651h-5.749a.479.479,0,0,0-.542.542v1.281a.479.479,0,0,0,.542.542h7.114a.555.555,0,0,1,.629.651,13.012,13.012,0,0,1-.759,4.273l-.239.282a2,2,0,0,1-1.128.521,18.633,18.633,0,0,1-2.668-.152.813.813,0,0,1-.759-.737q-.109-.781.564-.695a7.517,7.517,0,0,0,2.668.109.808.808,0,0,0,.5-.564,12.615,12.615,0,0,0,.26-2.017.46.46,0,0,0-.521-.543h-5.661a.48.48,0,0,0-.542.543v4.186q0,.651-.695.651t-.693-.651v-4.186q0-.586-.629.087a7.935,7.935,0,0,1-1.844,1.475,18.952,18.952,0,0,1-5.162,2.494.767.767,0,0,1-1-.369c-.246-.449-.116-.737.391-.868a17.586,17.586,0,0,0,6.073-2.884c.391-.318.4-.478.023-.478h-4.967q-.651,0-.521-.65.283-1.627.629-3.276a.724.724,0,0,1,.781-.651h5.683a.479.479,0,0,0,.542-.542V233.42a.479.479,0,0,0-.542-.542h-6.7Q118.566,232.878,118.565,232.313Zm7.9,4.49q0-.563-.521-.564h-4.6q-.542,0-.651.673l-.152,1.106q-.087.586.434.586h4.946a.479.479,0,0,0,.542-.542Zm-4.4-6.507q-.348-.694.3-.889a.781.781,0,0,1,1.019.411c.217.464.108.768-.325.911A.7.7,0,0,1,122.057,230.3Zm7.5-4.23q.283-.694.868-.563.629.13.391.781l-.087.217q-.326.738.238.737h5.163q.651,0,.651.565t-.651.564H130.3a1.356,1.356,0,0,0-1.02.65l-.845,1.02q-.825.739-1.258.347-.456-.413.151-1A10.881,10.881,0,0,0,129.562,226.067Zm3.926,7.375c0-.376-.174-.564-.52-.564h-4.577a.479.479,0,0,0-.542.542v1.193a.479.479,0,0,0,.542.542h4.555a.479.479,0,0,0,.543-.542Zm-1.474-3.21q-.413-.716.217-.933.607-.195,1,.5.3.716-.347.911A.66.66,0,0,1,132.014,230.232Z" transform="translate(-117.445 -225.483)" fill="#fff"/><path d="M156.568,243.9q0-.759.607-.759H174.31a.575.575,0,0,1,.651.65v.153a.575.575,0,0,1-.651.65H157.219Q156.569,244.592,156.568,243.9Zm1.367-14.315q0-.758.607-.759h14.208a.575.575,0,0,1,.651.651v.152a.575.575,0,0,1-.651.651H158.585Q157.934,230.277,157.934,229.583Z" transform="translate(-129.662 -226.526)" fill="#fff"/><path d="M195.322,227.122q0-.694.607-.695h6.7a.575.575,0,0,1,.651.651v4.837a.575.575,0,0,1-.651.651h-5.465a.479.479,0,0,0-.543.542v11.647a.651.651,0,1,1-1.3,0Zm6.659.759a.479.479,0,0,0-.542-.542h-4.273a.479.479,0,0,0-.543.542v.607a.48.48,0,0,0,.543.543h4.273a.479.479,0,0,0,.542-.543Zm0,2.6a.479.479,0,0,0-.542-.542h-4.273a.479.479,0,0,0-.543.542v.565a.479.479,0,0,0,.543.542h4.273a.479.479,0,0,0,.542-.542Zm-1.757,3.688q.673-.717,1.107-.608.456.131-.173.737a6.179,6.179,0,0,1-1,.825c-.346.29-.505.463-.477.521a.279.279,0,0,0,.131.13,6.693,6.693,0,0,0,1.453-.087,1.5,1.5,0,0,0,.867-.325q.8-.738,1.193-.564.39.195-.2.716a39.444,39.444,0,0,1-3.384,2.473l-.044.151a.957.957,0,0,0,.8.065l1.714-.282c.4-.073.571-.217.5-.434q-.238-.412.109-.521.347-.087.738.629l.26.564q.26.716-.043.8a.353.353,0,0,1-.5-.238q-.216-.369-.867-.217a23.957,23.957,0,0,1-3.4.651c-.434.029-.68-.08-.738-.326q-.13-.477.586-.955l.868-.629q.52-.3.542-.608-.239-.216-1-.065l-.477.043c-.434.044-.672-.072-.716-.347q-.043-.433.586-.845A14.983,14.983,0,0,0,200.223,234.171Zm2.213,6.289q0-.694.455-.694c.332,0,.5.217.5.651a7.787,7.787,0,0,1-.065,1.734,3.075,3.075,0,0,1-2.473,2.755,8.5,8.5,0,0,1-1.323.369.742.742,0,0,1-.889-.39q-.195-.457.5-.543a4.237,4.237,0,0,0,2.884-1.366q.326-.52-.261-.521h-2.407a.575.575,0,0,1-.651-.651v-1.237q0-.65.5-.651.521,0,.521.651v.477a.479.479,0,0,0,.542.543h1.626a.48.48,0,0,0,.543-.543Zm4.359-6.225q.846-.845,1.237-.759.5.13-.131.759a15.735,15.735,0,0,1-1.3,1.02q-.694.478-.109.477a8.919,8.919,0,0,0,1.389-.109,2.007,2.007,0,0,0,1.215-.542q.607-.564.977-.369.389.217-.261.737a21.066,21.066,0,0,1-2.82,2,2.864,2.864,0,0,0-.5.391.2.2,0,0,0,.109.173,8.2,8.2,0,0,0,1.843-.131l.716-.087q.564-.151.326-.5-.239-.326.108-.412.369-.087.781.563l.325.651q.3.781,0,.867-.369.109-.477-.2a.718.718,0,0,0-.846-.39,23.086,23.086,0,0,1-3.492.607q-.738.087-.825-.282-.173-.52.543-.976l.867-.586c.391-.332.578-.542.565-.629a1.809,1.809,0,0,0-1,0l-.477.043q-.651.044-.716-.369-.043-.433.586-.867A15.929,15.929,0,0,0,206.8,234.235Zm-1.5,6.225q0-.694.477-.694.543,0,.543.651v.8a.479.479,0,0,0,.543.542h1.54a.479.479,0,0,0,.542-.542V240.5q0-.651.477-.651t.477.651v1.474a.576.576,0,0,1-.651.651h-2.385a.479.479,0,0,0-.543.542v1.583q0,.651-.5.651-.521,0-.521-.651Zm.173-13.338q0-.694.607-.695h6.811a.575.575,0,0,1,.651.651v16.441a3.9,3.9,0,0,1-.238.867,1.392,1.392,0,0,1-1.3.846,9.262,9.262,0,0,1-1.215-.043.974.974,0,0,1-.955-.781q-.153-.737.477-.585a3.112,3.112,0,0,0,1.41.087,1.208,1.208,0,0,0,.521-.955v-9.933a.479.479,0,0,0-.542-.542h-5.575a.575.575,0,0,1-.651-.651Zm6.767.759a.479.479,0,0,0-.542-.542h-4.381a.479.479,0,0,0-.542.542v.607a.479.479,0,0,0,.542.543H211.7a.479.479,0,0,0,.542-.543Zm0,2.6a.479.479,0,0,0-.542-.542h-4.381a.479.479,0,0,0-.542.542v.5a.479.479,0,0,0,.542.543H211.7a.479.479,0,0,0,.542-.543Z" transform="translate(-141.764 -225.778)" fill="#fff"/></g><g transform="translate(118.118 93.87)"><path d="M292.863,226.6a5.711,5.711,0,0,1,4.685,1.085,4.472,4.472,0,0,1,.586,5.553,34.078,34.078,0,0,1-6.594,7.982q-.521.563.065.564h6.789q.651,0,.651.694,0,.759-.586.759h-8.61a.575.575,0,0,1-.651-.651v-.3a1.74,1.74,0,0,1,.651-1.258q6.073-5.51,7.374-9.695a2.841,2.841,0,0,0-2.038-3.32,3.421,3.421,0,0,0-3.688.955,4.368,4.368,0,0,0-.455,1.3q-.064.781-.716.781h-.3q-.651,0-.586-.651A3.908,3.908,0,0,1,292.863,226.6Z" transform="translate(-289.197 -226.497)" fill="#fff"/><path d="M314.058,227.563q.022-.694.651-.695h7.461a.651.651,0,1,1,0,1.3h-6.138q-.543,0-.564.672,0,2.192-.087,4.382,0,.563.695.087a4.927,4.927,0,0,1,3.6-.847,4.663,4.663,0,0,1,1.736.738,5.492,5.492,0,0,1,2,3.319,7.462,7.462,0,0,1-.369,4.207,4.841,4.841,0,0,1-5.14,2.906,6.269,6.269,0,0,1-2.6-.716,3.821,3.821,0,0,1-1.822-2.863q-.065-.651.586-.651h.282a.724.724,0,0,1,.781.651,2.86,2.86,0,0,0,2.777,2.191h.867a3.492,3.492,0,0,0,2.906-2.43,5.262,5.262,0,0,0-.217-4.121,3.456,3.456,0,0,0-5.964-.109q-.326.738-.868.737h-.3c-.4,0-.6-.224-.585-.672Q313.863,231.618,314.058,227.563Z" transform="translate(-296.776 -226.613)" fill="#fff"/></g><path d="M429.473,226.592a6.938,6.938,0,0,1,4.164.3,3.4,3.4,0,0,1,1.974,2.712q.087.781-.563.78h-.3a.7.7,0,0,1-.759-.651,2.76,2.76,0,0,0-3.254-1.974,3.5,3.5,0,0,0-3.036,2.278,12.414,12.414,0,0,0-.781,3.73q0,.587.694-.087a5.393,5.393,0,0,1,5.1-1.041,4.469,4.469,0,0,1,2.732,2.69,7.184,7.184,0,0,1-.3,5.7,4.663,4.663,0,0,1-1.432,1.648,5.509,5.509,0,0,1-5.053.391,6,6,0,0,1-3.189-4.751,16.956,16.956,0,0,1-.2-3.99,14.334,14.334,0,0,1,1.194-5.206A4.873,4.873,0,0,1,429.473,226.592Zm1.93,7.179q-2.906-.194-4.055,2.907a4.346,4.346,0,0,0,.737,3.991,3.5,3.5,0,0,0,1.67,1.258,3.356,3.356,0,0,0,3.535-.933,4.832,4.832,0,0,0,.8-4.837A3.221,3.221,0,0,0,431.4,233.771Z" transform="translate(-213.559 -132.597)" fill="#fff"/><path d="M561.775,226.6a5.713,5.713,0,0,1,4.685,1.085,4.471,4.471,0,0,1,.585,5.553,34.063,34.063,0,0,1-6.594,7.982c-.347.375-.325.564.065.564h6.789q.651,0,.651.694,0,.759-.585.759H558.76a.575.575,0,0,1-.651-.651v-.3a1.74,1.74,0,0,1,.651-1.258q6.073-5.51,7.374-9.695a2.841,2.841,0,0,0-2.038-3.32,3.42,3.42,0,0,0-3.688.955,4.349,4.349,0,0,0-.455,1.3q-.065.781-.716.781h-.3q-.651,0-.585-.651A3.907,3.907,0,0,1,561.775,226.6Z" transform="translate(-255.054 -132.627)" fill="#fff"/><g transform="translate(384.035 93.28)"><path d="M678.875,227.379a1.6,1.6,0,0,1,1.129-.542.566.566,0,0,1,.629.651v13.882q.043.651.021,1.323a.574.574,0,0,1-.65.651h-.261a.575.575,0,0,1-.651-.651V229.549q0-.586-.693.021a10.072,10.072,0,0,1-1.887,1.171q-.651.282-.651-.369v-.391a1,1,0,0,1,.651-.954A10.036,10.036,0,0,0,678.875,227.379Z" transform="translate(-675.86 -226.013)" fill="#fff"/><path d="M700.386,226.52a4.735,4.735,0,0,1,5.227,2.624,11.839,11.839,0,0,1,1.193,5.206,13.576,13.576,0,0,1-1.084,6.333,5.278,5.278,0,0,1-2.125,2.342,5.419,5.419,0,0,1-4.447.065,6.5,6.5,0,0,1-3.058-4.88,16.6,16.6,0,0,1,.391-7.9Q697.739,226.888,700.386,226.52Zm.087,1.411a3.19,3.19,0,0,0-1.67,1.193,11.7,11.7,0,0,0-1.345,6.9,13.608,13.608,0,0,0,.608,3.47q1.126,2.929,3.643,2.646a3.6,3.6,0,0,0,2.82-2.494,15.659,15.659,0,0,0,.347-8.047,6.587,6.587,0,0,0-.586-1.735A3.227,3.227,0,0,0,700.472,227.93Z" transform="translate(-682.083 -225.891)" fill="#fff"/><path d="M722.426,226.939a52.225,52.225,0,0,0,5.639-1.041.717.717,0,0,1,.867.434q.282.586-.434.759l-1.844.412a.615.615,0,0,0-.521.651v2.581a.48.48,0,0,0,.543.543h1.909a.565.565,0,0,1,.65.629.574.574,0,0,1-.65.651h-1.909q-.543,0-.543.434a1.363,1.363,0,0,0,.347.846q1.084,1.41,2.256,3.254a1.087,1.087,0,0,1-.065,1.258q-.456.608-.8-.109-.478-1-1.041-2.016-.434-.608-.564-.586a2.21,2.21,0,0,0-.131.781v8.09q0,.651-.693.651t-.695-.651v-6.832a2.355,2.355,0,0,0-.108-.737q-.174-.131-.434.369a13.27,13.27,0,0,1-1.367,2.429q-.52.715-.976.282a.8.8,0,0,1-.021-1.15,17.654,17.654,0,0,0,2.668-5.747q.152-.564-.413-.565h-1.93a.565.565,0,0,1-.651-.629.575.575,0,0,1,.651-.65H724.2a.479.479,0,0,0,.542-.543v-2.32q0-.542-.673-.456l-1.063.13q-.8.109-1.019-.477T722.426,226.939Zm16.57,8.4q.326-.673.89-.456a.568.568,0,0,1,.347.889,18.436,18.436,0,0,1-3.274,5.011,16.912,16.912,0,0,1-6.486,4.055.788.788,0,0,1-1.084-.455q-.348-.673.325-.889a21.184,21.184,0,0,0,3.3-1.475A14.817,14.817,0,0,0,739,235.335Zm-7.742-5.922a.507.507,0,0,1,.759-.434.685.685,0,0,1,.521.868,46.421,46.421,0,0,1-1.475,5.661q-.238.674-.845.347a.761.761,0,0,1-.413-1A51.3,51.3,0,0,0,731.254,229.413Zm3.362-3.08q0-.694.651-.694.715,0,.715.651v10.585a.585.585,0,0,1-.673.651q-.694,0-.694-.651Zm3.406,3.037q-.348-.717.2-.977a.681.681,0,0,1,.954.391,37.174,37.174,0,0,1,1.583,3.709q.239.716-.347.954-.8.348-1-.3A24.319,24.319,0,0,0,738.021,229.37Z" transform="translate(-690.117 -225.639)" fill="#fff"/></g><g transform="translate(3.56 145.776)"><path d="M125.369,302.665a.859.859,0,0,1,.975-.521q.586.108.239.8a.517.517,0,0,1-.108.217q-.283.564.26.564h4.9q.651,0,.651.564t-.651.564h-5.683a1.472,1.472,0,0,0-1.063.651l-.868.89q-.737.607-1.193.151-.478-.478.131-.977A11.408,11.408,0,0,0,125.369,302.665Zm-1.628,6.138q0-.563.651-.564h14.923a.575.575,0,0,1,.65.651v3.188a.575.575,0,0,1-.65.651h-5.749a.479.479,0,0,0-.542.543v1.28a.479.479,0,0,0,.542.542h7.114a.555.555,0,0,1,.629.651,13.008,13.008,0,0,1-.759,4.273l-.239.282a2,2,0,0,1-1.128.521,18.641,18.641,0,0,1-2.668-.152.814.814,0,0,1-.759-.737q-.108-.781.564-.695a7.537,7.537,0,0,0,2.668.109.808.808,0,0,0,.5-.565,12.615,12.615,0,0,0,.26-2.016.459.459,0,0,0-.521-.543h-5.661a.479.479,0,0,0-.542.543v4.186q0,.65-.694.651t-.694-.651v-4.186q0-.587-.629.087a7.93,7.93,0,0,1-1.844,1.474A18.952,18.952,0,0,1,124,320.819a.767.767,0,0,1-1-.369q-.368-.673.391-.868a17.574,17.574,0,0,0,6.073-2.884q.587-.477.023-.477h-4.967q-.651,0-.521-.651.283-1.627.629-3.275a.724.724,0,0,1,.781-.651H131.1a.479.479,0,0,0,.542-.542v-1.193a.479.479,0,0,0-.542-.542h-6.7Q123.742,309.367,123.741,308.8Zm7.9,4.489q0-.563-.521-.564h-4.6q-.542,0-.651.673l-.152,1.106q-.087.586.434.586H131.1a.479.479,0,0,0,.542-.542Zm-4.4-6.507q-.347-.694.3-.889a.78.78,0,0,1,1.019.412c.217.463.108.767-.325.911A.7.7,0,0,1,127.233,306.786Zm7.505-4.229q.282-.694.867-.564.629.13.391.781l-.087.217q-.326.738.238.738h5.163q.651,0,.651.564t-.651.564h-5.835a1.357,1.357,0,0,0-1.02.651l-.845,1.019q-.825.739-1.258.347-.456-.413.152-1A10.915,10.915,0,0,0,134.739,302.557Zm3.926,7.374q0-.564-.521-.564h-4.577a.479.479,0,0,0-.542.542V311.1a.479.479,0,0,0,.542.542h4.555a.48.48,0,0,0,.543-.542Zm-1.475-3.21q-.413-.716.217-.933.607-.2,1,.5.3.717-.347.911A.661.661,0,0,1,137.19,306.721Z" transform="translate(-122.621 -301.972)" fill="#fff"/><path d="M161.744,320.4q0-.716.607-.715H179.4q.651,0,.651.693t-.651.695h-17A.585.585,0,0,1,161.744,320.4Zm1.041-15.161q0-.717.607-.716h14.944q.651,0,.651.694t-.651.694h-14.9A.585.585,0,0,1,162.785,305.241Zm.955,7.374q0-.715.607-.715h13.036q.651,0,.65.694t-.65.695H164.39A.585.585,0,0,1,163.74,312.615Z" transform="translate(-134.838 -302.769)" fill="#fff"/><path d="M200.5,303.611q0-.694.607-.695h6.7a.576.576,0,0,1,.651.651V308.4a.575.575,0,0,1-.651.651h-5.465a.479.479,0,0,0-.543.542v11.648a.651.651,0,0,1-1.3,0Zm6.659.759a.479.479,0,0,0-.542-.543h-4.273a.48.48,0,0,0-.543.543v.607a.479.479,0,0,0,.543.543h4.273a.479.479,0,0,0,.542-.543Zm0,2.6a.479.479,0,0,0-.542-.542h-4.273a.479.479,0,0,0-.543.542v.564a.479.479,0,0,0,.543.542h4.273a.479.479,0,0,0,.542-.542ZM205.4,310.66q.673-.716,1.107-.608.456.131-.173.737a6.245,6.245,0,0,1-1,.825q-.52.434-.477.521a.277.277,0,0,0,.131.129,6.7,6.7,0,0,0,1.453-.087,1.5,1.5,0,0,0,.867-.325q.8-.737,1.193-.564.39.2-.2.716a39.193,39.193,0,0,1-3.384,2.473l-.044.151a.957.957,0,0,0,.8.065l1.714-.282q.607-.108.5-.434-.238-.412.109-.521.347-.087.738.629l.26.565q.261.715-.043.8a.352.352,0,0,1-.5-.239q-.217-.368-.868-.217a24.057,24.057,0,0,1-3.4.651q-.651.043-.738-.326-.13-.477.586-.954l.868-.629q.52-.3.542-.608-.239-.217-1-.065l-.477.043c-.434.044-.672-.072-.716-.347q-.043-.433.586-.846A14.9,14.9,0,0,0,205.4,310.66Zm2.213,6.29q0-.694.455-.694.5,0,.5.651a7.739,7.739,0,0,1-.065,1.734,3.073,3.073,0,0,1-2.473,2.755,8.513,8.513,0,0,1-1.322.369.741.741,0,0,1-.889-.39q-.2-.456.5-.543a4.239,4.239,0,0,0,2.884-1.366q.326-.521-.26-.521h-2.407a.575.575,0,0,1-.651-.65v-1.237q0-.651.5-.651.521,0,.521.651v.477a.479.479,0,0,0,.542.543h1.626a.48.48,0,0,0,.543-.543Zm4.359-6.225q.846-.846,1.237-.759.5.13-.131.759a15.714,15.714,0,0,1-1.3,1.019q-.694.478-.108.478a8.915,8.915,0,0,0,1.388-.109,2,2,0,0,0,1.215-.542q.608-.564.977-.369.39.217-.261.737a21.088,21.088,0,0,1-2.82,2,2.857,2.857,0,0,0-.5.391.193.193,0,0,0,.108.173,8.18,8.18,0,0,0,1.843-.13l.716-.087q.564-.152.326-.5-.239-.325.108-.412.369-.087.781.564l.325.651q.3.781,0,.868-.369.108-.477-.2a.718.718,0,0,0-.846-.391,23.079,23.079,0,0,1-3.492.607q-.738.087-.824-.282-.173-.52.543-.976l.867-.586c.391-.332.578-.542.565-.629a1.808,1.808,0,0,0-1,0l-.477.043c-.434.03-.672-.094-.716-.369q-.043-.433.586-.868A15.941,15.941,0,0,0,211.972,310.724Zm-1.5,6.225q0-.694.477-.694.542,0,.542.651v.8a.479.479,0,0,0,.543.542h1.54a.479.479,0,0,0,.542-.542v-.716q0-.651.477-.651t.477.651v1.475a.576.576,0,0,1-.651.651h-2.385a.479.479,0,0,0-.543.542v1.584q0,.65-.5.651-.521,0-.521-.651Zm.173-13.339q0-.694.607-.695h6.811a.576.576,0,0,1,.651.651v16.441a3.922,3.922,0,0,1-.239.867,1.392,1.392,0,0,1-1.3.846,9.26,9.26,0,0,1-1.215-.043.974.974,0,0,1-.955-.781q-.152-.738.477-.586a3.112,3.112,0,0,0,1.41.087,1.208,1.208,0,0,0,.521-.955V309.51a.479.479,0,0,0-.542-.542H211.3a.575.575,0,0,1-.651-.651Zm6.767.759a.479.479,0,0,0-.542-.543h-4.381a.479.479,0,0,0-.542.543v.607a.479.479,0,0,0,.542.543h4.381a.479.479,0,0,0,.542-.543Zm0,2.6a.479.479,0,0,0-.542-.542h-4.381a.479.479,0,0,0-.542.542v.5a.479.479,0,0,0,.542.543h4.381a.479.479,0,0,0,.542-.543Z" transform="translate(-146.94 -302.267)" fill="#fff"/></g><path d="M425.688,304.052q0-.693.651-.694h8.72q.651,0,.651.607a2.885,2.885,0,0,1-.173,1.063l-5.7,14.12a.942.942,0,0,1-.889.694h-.521q-.651,0-.391-.651l5.77-13.9q.26-.564-.3-.564h-7.159A.585.585,0,0,1,425.688,304.052Z" transform="translate(-213.702 -156.629)" fill="#fff"/><path d="M559.91,303.661a7.277,7.277,0,0,1,5.379-.152,3.794,3.794,0,0,1,2.537,2.928,4.657,4.657,0,0,1-.087,2.234,4.35,4.35,0,0,1-1.93,2.234q-.521.3.217.695a4.172,4.172,0,0,1,2.1,4.164,4.074,4.074,0,0,1-1.909,3.254,6.536,6.536,0,0,1-5.813.673,4.071,4.071,0,0,1-2.8-3.514q-.066-.672.542-.672h.347a.7.7,0,0,1,.759.651,2.812,2.812,0,0,0,2.43,2.429,4.321,4.321,0,0,0,4.121-1.215,3.416,3.416,0,0,0,.672-3.058,2.475,2.475,0,0,0-1.15-1.648,4.741,4.741,0,0,0-2.689-.759.535.535,0,0,1-.651-.607v-.174a.535.535,0,0,1,.651-.607,3.437,3.437,0,0,0,3.6-2.212,2.885,2.885,0,0,0-1.584-3.514,4.725,4.725,0,0,0-4.078.173,2.537,2.537,0,0,0-1.085,1.692.7.7,0,0,1-.76.651h-.3q-.651,0-.586-.651A3.852,3.852,0,0,1,559.91,303.661Z" transform="translate(-254.897 -156.542)" fill="#fff"/><g transform="translate(391.154 145.883)"><path d="M686.8,304.052q.023-.693.651-.694h7.461a.651.651,0,1,1,0,1.3h-6.138q-.543,0-.564.673,0,2.191-.087,4.381,0,.564.695.087a4.927,4.927,0,0,1,3.6-.847,4.653,4.653,0,0,1,1.736.739,5.49,5.49,0,0,1,2,3.318,7.462,7.462,0,0,1-.369,4.207,4.843,4.843,0,0,1-5.141,2.907,6.289,6.289,0,0,1-2.6-.716,3.822,3.822,0,0,1-1.822-2.864c-.043-.433.153-.651.585-.651h.283a.724.724,0,0,1,.781.651,2.86,2.86,0,0,0,2.776,2.191h.868a3.493,3.493,0,0,0,2.906-2.429,5.262,5.262,0,0,0-.217-4.121,3.456,3.456,0,0,0-5.965-.109q-.325.738-.867.738h-.3c-.4,0-.6-.224-.585-.673Q686.609,308.108,686.8,304.052Z" transform="translate(-686.212 -302.512)" fill="#fff"/><path d="M712.074,303.429a52.376,52.376,0,0,0,5.639-1.041.716.716,0,0,1,.867.434q.283.586-.433.759l-1.844.412a.615.615,0,0,0-.521.651v2.581a.479.479,0,0,0,.543.543h1.909a.565.565,0,0,1,.65.629.575.575,0,0,1-.65.651h-1.909q-.543,0-.543.434a1.363,1.363,0,0,0,.347.845q1.084,1.41,2.256,3.254a1.089,1.089,0,0,1-.065,1.259q-.456.607-.8-.109-.478-1-1.041-2.016c-.29-.405-.477-.6-.564-.586a2.209,2.209,0,0,0-.131.781V321q0,.65-.694.651c-.463,0-.694-.217-.694-.651v-6.833a2.323,2.323,0,0,0-.109-.737c-.116-.087-.261.036-.434.369a13.241,13.241,0,0,1-1.367,2.429q-.52.716-.976.282a.8.8,0,0,1-.021-1.15,17.645,17.645,0,0,0,2.668-5.747q.151-.564-.413-.564h-1.93a.566.566,0,0,1-.651-.629.576.576,0,0,1,.651-.651h2.038a.479.479,0,0,0,.543-.543V304.9q0-.542-.673-.456l-1.062.131q-.8.108-1.019-.477T712.074,303.429Zm16.57,8.394q.326-.673.89-.455a.568.568,0,0,1,.347.889,18.449,18.449,0,0,1-3.275,5.01,16.892,16.892,0,0,1-6.485,4.055.788.788,0,0,1-1.084-.455q-.348-.673.325-.889a21.272,21.272,0,0,0,3.3-1.474A14.821,14.821,0,0,0,728.644,311.824ZM720.9,305.9a.507.507,0,0,1,.759-.433.684.684,0,0,1,.521.867A46.441,46.441,0,0,1,720.706,312q-.238.673-.845.347a.761.761,0,0,1-.413-1A51.312,51.312,0,0,0,720.9,305.9Zm3.362-3.08q0-.694.651-.694.716,0,.715.651v10.585a.585.585,0,0,1-.672.651q-.694,0-.694-.651Zm3.4,3.037q-.348-.716.2-.977a.682.682,0,0,1,.955.391,37.163,37.163,0,0,1,1.583,3.709q.238.716-.347.955-.8.348-1-.3A24.251,24.251,0,0,0,727.668,305.859Z" transform="translate(-694.004 -302.128)" fill="#fff"/></g><g transform="translate(117.175 146.438)"><path d="M290.131,303.661a7.277,7.277,0,0,1,5.379-.152,3.794,3.794,0,0,1,2.538,2.928,4.655,4.655,0,0,1-.087,2.234,4.348,4.348,0,0,1-1.93,2.234q-.521.3.217.695a4.171,4.171,0,0,1,2.1,4.164,4.074,4.074,0,0,1-1.908,3.254,6.536,6.536,0,0,1-5.813.673,4.072,4.072,0,0,1-2.8-3.514q-.065-.672.542-.672h.347a.7.7,0,0,1,.759.651,2.812,2.812,0,0,0,2.43,2.429,4.32,4.32,0,0,0,4.121-1.215,3.414,3.414,0,0,0,.673-3.058,2.477,2.477,0,0,0-1.15-1.648,4.744,4.744,0,0,0-2.689-.759.536.536,0,0,1-.651-.607v-.174a.536.536,0,0,1,.651-.607,3.436,3.436,0,0,0,3.6-2.212,2.883,2.883,0,0,0-1.584-3.514,4.724,4.724,0,0,0-4.077.173,2.534,2.534,0,0,0-1.085,1.692.7.7,0,0,1-.76.651h-.3q-.651,0-.586-.651A3.853,3.853,0,0,1,290.131,303.661Z" transform="translate(-287.826 -302.979)" fill="#fff"/><path d="M318.037,303.008a4.735,4.735,0,0,1,5.227,2.625,11.836,11.836,0,0,1,1.193,5.205,13.583,13.583,0,0,1-1.085,6.333,5.271,5.271,0,0,1-2.126,2.342,5.415,5.415,0,0,1-4.446.065,6.5,6.5,0,0,1-3.058-4.88,16.583,16.583,0,0,1,.391-7.9Q315.39,303.377,318.037,303.008Zm.087,1.411a3.2,3.2,0,0,0-1.669,1.193,11.7,11.7,0,0,0-1.345,6.9,13.648,13.648,0,0,0,.607,3.47q1.128,2.928,3.644,2.646a3.6,3.6,0,0,0,2.82-2.494,15.658,15.658,0,0,0,.347-8.047,6.578,6.578,0,0,0-.586-1.734A3.228,3.228,0,0,0,318.124,304.419Z" transform="translate(-295.825 -302.935)" fill="#fff"/></g></g></g></g></svg>