<svg xmlns="http://www.w3.org/2000/svg" width="583.363" height="282.285" viewBox="0 0 583.363 282.285"><g transform="translate(-24.25 -10.516)"><g transform="translate(67.702 45.893)" opacity="0.2" style="mix-blend-mode:screen;isolation:isolate"><rect width="496.459" height="211.532" fill="none" stroke="#0068e8" stroke-miterlimit="10" stroke-width="1.547"/><line y2="211.532" transform="translate(36.173 0)" fill="none" stroke="#0068e8" stroke-miterlimit="10" stroke-width="1.547"/><line y2="211.532" transform="translate(71.429 0)" fill="none" stroke="#0068e8" stroke-miterlimit="10" stroke-width="1.547"/><line y2="211.532" transform="translate(106.684 0)" fill="none" stroke="#0068e8" stroke-miterlimit="10" stroke-width="1.547"/><line y2="211.532" transform="translate(141.939 0)" fill="none" stroke="#0068e8" stroke-miterlimit="10" stroke-width="1.547"/><line y2="211.532" transform="translate(177.195 0)" fill="none" stroke="#0068e8" stroke-miterlimit="10" stroke-width="1.547"/><line y2="211.532" transform="translate(212.45 0)" fill="none" stroke="#0068e8" stroke-miterlimit="10" stroke-width="1.547"/><line y2="211.532" transform="translate(247.705 0)" fill="none" stroke="#0068e8" stroke-miterlimit="10" stroke-width="1.547"/><line y2="211.532" transform="translate(282.961 0)" fill="none" stroke="#0068e8" stroke-miterlimit="10" stroke-width="1.547"/><line y2="211.532" transform="translate(318.216 0)" fill="none" stroke="#0068e8" stroke-miterlimit="10" stroke-width="1.547"/><line y2="211.532" transform="translate(353.472 0)" fill="none" stroke="#0068e8" stroke-miterlimit="10" stroke-width="1.547"/><line y2="211.532" transform="translate(388.727 0)" fill="none" stroke="#0068e8" stroke-miterlimit="10" stroke-width="1.547"/><line y2="211.532" transform="translate(423.982 0)" fill="none" stroke="#0068e8" stroke-miterlimit="10" stroke-width="1.547"/><line y2="211.532" transform="translate(459.238 0)" fill="none" stroke="#0068e8" stroke-miterlimit="10" stroke-width="1.547"/><line x1="496.022" transform="translate(0.262 35.386)" fill="none" stroke="#0068e8" stroke-miterlimit="10" stroke-width="2"/><line x1="496.022" transform="translate(0.262 70.686)" fill="none" stroke="#0068e8" stroke-miterlimit="10" stroke-width="2"/><line x1="496.022" transform="translate(0.262 105.985)" fill="none" stroke="#0068e8" stroke-miterlimit="10" stroke-width="2"/><line x1="496.022" transform="translate(0.262 141.284)" fill="none" stroke="#0068e8" stroke-miterlimit="10" stroke-width="2"/><line x1="496.022" transform="translate(0.262 176.583)" fill="none" stroke="#0068e8" stroke-miterlimit="10" stroke-width="2"/></g><g transform="translate(24.25 10.516)"><g transform="translate(20.32 19.238)"><path d="M596.35,282.14H53.626V38.328H596.35ZM56.483,279.435H593.492V41.033H56.483Z" transform="translate(-53.626 -38.328)" fill="#4dffff"/></g><g transform="translate(29.606 28.03)" opacity="0.1" style="mix-blend-mode:screen;isolation:isolate"><rect width="522.722" height="224.875" transform="translate(0.715 0.676)" fill="#0068e8"/><path d="M591.2,277.266H67.051V51.039H591.2ZM68.48,275.914H589.773V52.391H68.48Z" transform="translate(-67.051 -51.039)" fill="#4dffff"/></g><g transform="translate(0 266.502)"><path d="M40.92,411.579H24.25V395.8h2.857v13.077H40.92Z" transform="translate(-24.25 -395.797)" fill="#4dffff"/></g><path d="M27.107,26.3H24.25V10.516H40.92v2.705H27.107Z" transform="translate(-24.25 -10.516)" fill="#4dffff"/><g transform="translate(566.693 266.502)"><path d="M860.184,411.579h-16.67v-2.705h13.813V395.8h2.857Z" transform="translate(-843.514 -395.797)" fill="#4dffff"/></g><g transform="translate(566.693)"><path d="M860.184,26.3h-2.857V13.222H843.514V10.516h16.67Z" transform="translate(-843.514 -10.516)" fill="#4dffff"/></g></g><g transform="translate(60.054 57.874)"><rect width="511.755" height="31.688" rx="15.844" transform="translate(0 40.264)" fill="#0068e8" opacity="0.2" style="mix-blend-mode:screen;isolation:isolate"/><rect width="511.755" height="31.688" rx="15.844" transform="translate(0 95.309)" fill="#0068e8" opacity="0.2" style="mix-blend-mode:screen;isolation:isolate"/><rect width="511.755" height="31.688" rx="15.844" transform="translate(0 148.258)" fill="#0068e8" opacity="0.2" style="mix-blend-mode:screen;isolation:isolate"/><text transform="translate(52.415 19)" fill="#4dffff" font-size="23" font-family="HanWangHeiLight"><tspan x="-23" y="0">關卡</tspan><tspan font-size="19"><tspan x="-19" y="50">簡易</tspan><tspan x="-19" y="100">中等</tspan><tspan x="-19" y="150">困難</tspan></tspan></text><text transform="translate(139.702 19)" fill="#4dffff" font-size="23" font-family="HanWangHeiLight"><tspan x="-23" y="0">血量</tspan><tspan font-size="26"><tspan x="-14.841" y="50">20</tspan><tspan x="-15.323" y="100">30</tspan><tspan x="-15.044" y="150">50</tspan></tspan></text><text transform="translate(224.919 19)" fill="#4dffff" font-size="23" font-family="HanWangHeiLight"><tspan x="-34.5" y="0">攻擊力</tspan><tspan font-size="26"><tspan x="-7.617" y="50">4</tspan><tspan x="-7.274" y="100">5</tspan><tspan x="-7.554" y="150">6</tspan></tspan></text><text transform="translate(325.573 19)" fill="#4dffff" font-size="23" font-family="HanWangHeiLight"><tspan x="-34.5" y="0">防禦力</tspan><tspan font-size="26"><tspan x="-5.662" y="50">1</tspan><tspan x="-5.662" y="100">1</tspan><tspan x="-7.071" y="150">2</tspan></tspan></text><text transform="translate(441.41 19)" fill="#4dffff" font-size="23" font-family="HanWangHeiLight"><tspan x="-46" y="0">回答秒數</tspan><tspan font-size="26"><tspan x="-12.937" y="50">15</tspan><tspan x="-13.432" y="100">10</tspan><tspan x="-7.947" y="150">8</tspan></tspan></text></g></g></svg>