<svg xmlns="http://www.w3.org/2000/svg" width="583.363" height="282.285" viewBox="0 0 583.363 282.285"><g transform="translate(-24.25 -10.516)"><g transform="translate(67.702 45.893)" opacity="0.2" style="mix-blend-mode:screen;isolation:isolate"><rect width="496.459" height="211.532" fill="none" stroke="#0068e8" stroke-miterlimit="10" stroke-width="1.547"/><line y2="211.532" transform="translate(36.173 0)" fill="none" stroke="#0068e8" stroke-miterlimit="10" stroke-width="1.547"/><line y2="211.532" transform="translate(71.429 0)" fill="none" stroke="#0068e8" stroke-miterlimit="10" stroke-width="1.547"/><line y2="211.532" transform="translate(106.684 0)" fill="none" stroke="#0068e8" stroke-miterlimit="10" stroke-width="1.547"/><line y2="211.532" transform="translate(141.939 0)" fill="none" stroke="#0068e8" stroke-miterlimit="10" stroke-width="1.547"/><line y2="211.532" transform="translate(177.195 0)" fill="none" stroke="#0068e8" stroke-miterlimit="10" stroke-width="1.547"/><line y2="211.532" transform="translate(212.45 0)" fill="none" stroke="#0068e8" stroke-miterlimit="10" stroke-width="1.547"/><line y2="211.532" transform="translate(247.705 0)" fill="none" stroke="#0068e8" stroke-miterlimit="10" stroke-width="1.547"/><line y2="211.532" transform="translate(282.961 0)" fill="none" stroke="#0068e8" stroke-miterlimit="10" stroke-width="1.547"/><line y2="211.532" transform="translate(318.216 0)" fill="none" stroke="#0068e8" stroke-miterlimit="10" stroke-width="1.547"/><line y2="211.532" transform="translate(353.472 0)" fill="none" stroke="#0068e8" stroke-miterlimit="10" stroke-width="1.547"/><line y2="211.532" transform="translate(388.727 0)" fill="none" stroke="#0068e8" stroke-miterlimit="10" stroke-width="1.547"/><line y2="211.532" transform="translate(423.982 0)" fill="none" stroke="#0068e8" stroke-miterlimit="10" stroke-width="1.547"/><line y2="211.532" transform="translate(459.238 0)" fill="none" stroke="#0068e8" stroke-miterlimit="10" stroke-width="1.547"/><line x1="496.022" transform="translate(0.262 35.386)" fill="none" stroke="#0068e8" stroke-miterlimit="10" stroke-width="2"/><line x1="496.022" transform="translate(0.262 70.686)" fill="none" stroke="#0068e8" stroke-miterlimit="10" stroke-width="2"/><line x1="496.022" transform="translate(0.262 105.985)" fill="none" stroke="#0068e8" stroke-miterlimit="10" stroke-width="2"/><line x1="496.022" transform="translate(0.262 141.284)" fill="none" stroke="#0068e8" stroke-miterlimit="10" stroke-width="2"/><line x1="496.022" transform="translate(0.262 176.583)" fill="none" stroke="#0068e8" stroke-miterlimit="10" stroke-width="2"/></g><g transform="translate(24.25 10.516)"><g transform="translate(20.32 19.238)"><path d="M596.35,282.14H53.626V38.328H596.35ZM56.483,279.435H593.492V41.033H56.483Z" transform="translate(-53.626 -38.328)" fill="#4dffff"/></g><g transform="translate(29.606 28.03)" opacity="0.1" style="mix-blend-mode:screen;isolation:isolate"><rect width="522.722" height="224.875" transform="translate(0.715 0.676)" fill="#0068e8"/><path d="M591.2,277.266H67.051V51.039H591.2ZM68.48,275.914H589.773V52.391H68.48Z" transform="translate(-67.051 -51.039)" fill="#4dffff"/></g><g transform="translate(0 266.502)"><path d="M40.92,411.579H24.25V395.8h2.857v13.077H40.92Z" transform="translate(-24.25 -395.797)" fill="#4dffff"/></g><path d="M27.107,26.3H24.25V10.516H40.92v2.705H27.107Z" transform="translate(-24.25 -10.516)" fill="#4dffff"/><g transform="translate(566.693 266.502)"><path d="M860.184,411.579h-16.67v-2.705h13.813V395.8h2.857Z" transform="translate(-843.514 -395.797)" fill="#4dffff"/></g><g transform="translate(566.693)"><path d="M860.184,26.3h-2.857V13.222H843.514V10.516h16.67Z" transform="translate(-843.514 -10.516)" fill="#4dffff"/></g></g><g transform="translate(60.054 58.912)"><rect width="511.755" height="31.688" rx="15.844" transform="translate(0 39.226)" fill="#0068e8" opacity="0.2" style="mix-blend-mode:screen;isolation:isolate"/><rect width="511.755" height="31.688" rx="15.844" transform="translate(0 94.272)" fill="#0068e8" opacity="0.2" style="mix-blend-mode:screen;isolation:isolate"/><rect width="511.755" height="31.688" rx="15.844" transform="translate(0 147.22)" fill="#0068e8" opacity="0.2" style="mix-blend-mode:screen;isolation:isolate"/><g transform="translate(58.339)"><path d="M183.673,82.345q0-.736.643-.735h7.1a.609.609,0,0,1,.689.689v5.122a.609.609,0,0,1-.689.689h-5.788a.507.507,0,0,0-.574.574v12.333a.689.689,0,1,1-1.378,0Zm7.051.8a.507.507,0,0,0-.574-.574h-4.524a.507.507,0,0,0-.574.574v.643a.508.508,0,0,0,.574.574h4.524a.508.508,0,0,0,.574-.574Zm0,2.756a.508.508,0,0,0-.574-.574h-4.524a.508.508,0,0,0-.574.574v.6a.508.508,0,0,0,.574.574h4.524a.508.508,0,0,0,.574-.574Zm-1.86,3.9q.712-.758,1.171-.643.482.138-.184.781a6.572,6.572,0,0,1-1.056.873q-.551.46-.506.551a.3.3,0,0,0,.138.138,7.081,7.081,0,0,0,1.538-.092,1.585,1.585,0,0,0,.919-.344q.851-.78,1.264-.6.413.206-.207.757a41.453,41.453,0,0,1-3.583,2.619l-.046.16a1.014,1.014,0,0,0,.849.069l1.814-.3q.643-.115.528-.459c-.168-.291-.131-.475.115-.551q.367-.091.781.666l.275.6q.276.758-.046.85a.374.374,0,0,1-.528-.252q-.229-.391-.919-.23a25.481,25.481,0,0,1-3.606.689q-.689.047-.781-.344-.138-.505.62-1.011l.919-.666c.367-.215.559-.428.574-.643q-.252-.229-1.056-.069l-.506.046q-.689.068-.758-.367-.045-.461.62-.9A15.77,15.77,0,0,0,188.864,89.81Zm2.342,6.66q0-.736.483-.735.527,0,.528.689a8.214,8.214,0,0,1-.068,1.838,3.256,3.256,0,0,1-2.619,2.916,9.1,9.1,0,0,1-1.4.391.787.787,0,0,1-.941-.414q-.206-.482.528-.574a4.491,4.491,0,0,0,3.055-1.447q.344-.551-.275-.551h-2.55a.609.609,0,0,1-.689-.689V96.585q0-.689.528-.689.551,0,.551.689v.5a.507.507,0,0,0,.574.574h1.722a.507.507,0,0,0,.574-.574Zm4.616-6.592q.9-.9,1.309-.8.527.138-.138.8a16.758,16.758,0,0,1-1.378,1.08q-.735.5-.115.506a9.4,9.4,0,0,0,1.47-.116,2.13,2.13,0,0,0,1.287-.574q.643-.6,1.033-.39.413.229-.276.781a22.392,22.392,0,0,1-2.985,2.113,3.038,3.038,0,0,0-.528.413.208.208,0,0,0,.115.184,8.685,8.685,0,0,0,1.953-.138l.757-.092c.4-.107.513-.284.344-.528q-.252-.344.115-.436.39-.091.827.6l.344.689q.321.827,0,.919-.39.115-.506-.207a.76.76,0,0,0-.9-.414,24.314,24.314,0,0,1-3.7.643q-.781.091-.873-.3-.184-.551.574-1.033l.919-.62q.62-.529.6-.666a1.923,1.923,0,0,0-1.056,0l-.5.046q-.69.047-.758-.39c-.03-.307.176-.612.62-.919A16.7,16.7,0,0,0,195.822,89.878Zm-1.585,6.592q0-.736.506-.735.574,0,.574.689v.85a.507.507,0,0,0,.574.574h1.63a.507.507,0,0,0,.574-.574v-.758q0-.689.506-.689t.5.689v1.562a.609.609,0,0,1-.689.689h-2.526a.507.507,0,0,0-.574.574v1.677q0,.689-.528.689-.551,0-.551-.689Zm.184-14.125q0-.736.643-.735h7.212a.609.609,0,0,1,.689.689V99.708a4.126,4.126,0,0,1-.252.919,1.475,1.475,0,0,1-1.378.9,9.743,9.743,0,0,1-1.287-.046,1.031,1.031,0,0,1-1.01-.827q-.162-.782.5-.62a3.293,3.293,0,0,0,1.493.092,1.281,1.281,0,0,0,.551-1.011V88.592a.507.507,0,0,0-.574-.574h-5.9a.609.609,0,0,1-.689-.689Zm7.165.8a.507.507,0,0,0-.574-.574h-4.639a.507.507,0,0,0-.574.574v.643a.508.508,0,0,0,.574.574h4.639a.508.508,0,0,0,.574-.574Zm0,2.756a.508.508,0,0,0-.574-.574h-4.639a.508.508,0,0,0-.574.574v.528a.507.507,0,0,0,.574.574h4.639a.507.507,0,0,0,.574-.574Z" transform="translate(-167.542 -80.829)" fill="#4dffff"/><path d="M224.427,81.216q0-.736.643-.735h.23a.609.609,0,0,1,.689.69v1.722a.507.507,0,0,0,.574.574h8.291a.6.6,0,0,1,.689.666.609.609,0,0,1-.689.689h-8.291a.507.507,0,0,0-.574.574v2.917a.508.508,0,0,0,.574.574h10.128a.62.62,0,0,1,.69.712q0,.736-.69.735H226.655a.507.507,0,0,0-.574.574v1.125c0,.382.237.651.712.8a78.307,78.307,0,0,1,8.016,3.192.675.675,0,0,1,.322,1.1.851.851,0,0,1-1.195.252,72.891,72.891,0,0,0-7.235-3.124q-.62-.184-.62.344v6.339a.609.609,0,0,1-.689.69h-.184a.609.609,0,0,1-.689-.69V90.909a.508.508,0,0,0-.574-.574H217.4a.62.62,0,0,1-.689-.712q0-.736.689-.735h6.454a.508.508,0,0,0,.574-.574Z" transform="translate(-177.727 -80.481)" fill="#4dffff"/><path d="M162.376,161.7q5.864-.075,11.9-.681a.726.726,0,0,1,.775.378q.209.4-.321.472-2.194.21-4.407.341a.537.537,0,0,0-.53.605q0,.624.472.624h5.467q.568,0,.567.378t-.567.378h-5.467q-.473,0-.472.567c0,.39.157.587.472.587h6.488q.568,0,.568.4,0,.415-.568.416h-6.488a.417.417,0,0,0-.472.473,1.7,1.7,0,0,1-.322,1.324,3.558,3.558,0,0,1-2.5.227q-.7-.113-.795-.567t.435-.36l1.229.133q.946.188.927-.738,0-.492-.472-.492H160.92q-.568,0-.568-.4,0-.415.568-.416H168.3q.473,0,.472-.568,0-.585-.472-.586H162q-.568,0-.567-.378t.567-.378h6.3q.473,0,.472-.549,0-.568-.586-.549l-5.561.17q-.568.019-.7-.4Q161.809,161.7,162.376,161.7Zm1.986-10.024c0-.227.138-.34.416-.34s.435.107.435.322c0,.239.157.359.472.359h3.178q.568,0,.567.322,0,.34-.567.34h-3.178q-.473,0-.472.454a.417.417,0,0,0,.472.472h2.27a.5.5,0,0,1,.567.567v2.194a.5.5,0,0,1-.567.568h-2.27a.417.417,0,0,0-.472.472c0,.329.157.492.472.492h2.7q.568,0,.568.34,0,.359-.568.36h-2.7a.418.418,0,0,0-.472.473v.567a.417.417,0,0,0,.472.472h1.457c.315,0,.472-.125.472-.378s.139-.378.416-.378.435.189.435.567v.208a.5.5,0,0,1-.567.567h-6.147a.5.5,0,0,1-.568-.567v-.208q0-.568.416-.567c.29,0,.435.12.435.359,0,.265.157.4.473.4h1.381a.417.417,0,0,0,.472-.472v-.567a.418.418,0,0,0-.472-.473h-2.819q-.567,0-.567-.34,0-.359.567-.36h2.819a.417.417,0,0,0,.472-.472c0-.329-.157-.492-.472-.492H161.6a.5.5,0,0,1-.567-.568v-2.194a.5.5,0,0,1,.567-.567h2.289q.473,0,.472-.454a.418.418,0,0,0-.472-.473H161c-.378,0-.567-.107-.567-.322s.189-.34.567-.34h2.894C164.2,152.018,164.362,151.9,164.362,151.677Zm0,2.951q0-.436-.472-.435h-1.532q-.473,0-.473.416,0,.436.473.435h1.532Q164.363,155.044,164.362,154.628Zm0,1.3a.384.384,0,0,0-.435-.434h-1.569q-.473,0-.473.4,0,.415.473.416h1.532C164.2,156.311,164.362,156.186,164.362,155.933Zm3.329-1.3c-.013-.291-.176-.435-.492-.435h-1.513q-.473,0-.472.416,0,.436.472.435h1.532Q167.691,155.044,167.691,154.628Zm0,1.3a.384.384,0,0,0-.435-.434h-1.57q-.473,0-.472.4,0,.415.472.416h1.532C167.533,156.311,167.691,156.186,167.691,155.933Zm2.213.454q0-.416.567-.416h5.655c.378,0,.567.107.567.322a1.307,1.307,0,0,1-.246.7,6.946,6.946,0,0,1-1.551,1.646q-.53.34-.076.492l1.608.472q.6.17.378.587a.634.634,0,0,1-.813.322,15.109,15.109,0,0,1-2.119-.795,1.176,1.176,0,0,0-1.021.057,11.614,11.614,0,0,1-2.327.719.636.636,0,0,1-.775-.284q-.227-.436.3-.51.964-.209,1.986-.492.491-.189.037-.587a5.815,5.815,0,0,1-1.172-1.324q-.246-.51-.605-.51A.351.351,0,0,1,169.9,156.387Zm.889-4.01q0-.586.549-.587H174.9a.5.5,0,0,1,.567.567,2.324,2.324,0,0,0,.265,1.665.878.878,0,0,0,.832.189q.568,0,.567.36,0,.379-.567.378a3.059,3.059,0,0,1-1.721-.246,1.912,1.912,0,0,1-.4-1.626.418.418,0,0,0-.472-.473h-1.646c-.315,0-.479.2-.492.587a3.837,3.837,0,0,1-.851,1.778q-.435.472-.852.17-.473-.359.095-.889A2.131,2.131,0,0,0,170.793,152.377Zm4.464,4.88q.417-.473-.094-.473h-3.121q-.473,0-.057.605a6.426,6.426,0,0,0,.908.794,1.094,1.094,0,0,0,1.154.057A6.9,6.9,0,0,0,175.256,157.257Z" transform="translate(-160.352 -102.325)" fill="#4dffff"/><path d="M190.771,165.494q.435-.606.927-.36.473.266.057.889A9.974,9.974,0,0,1,190.3,167.8a.624.624,0,0,1-.946,0q-.473-.454.113-.965A8.4,8.4,0,0,0,190.771,165.494Zm-1.305-12.653q0-.586.549-.587h5.6a.5.5,0,0,1,.567.567v10.894a.5.5,0,0,1-.567.568h-5.58a.5.5,0,0,1-.567-.568Zm5.523,1a.418.418,0,0,0-.473-.473H191.13a.418.418,0,0,0-.472.473v1.513a.418.418,0,0,0,.472.473h3.386a.418.418,0,0,0,.473-.473Zm0,3.593q0-.492-.454-.492h-3.4a.418.418,0,0,0-.472.473v1.626a.418.418,0,0,0,.472.473h3.386a.418.418,0,0,0,.473-.473Zm0,3.688q0-.492-.454-.492h-3.4a.418.418,0,0,0-.472.473V162.7a.417.417,0,0,0,.472.472h3.386a.418.418,0,0,0,.473-.472Zm-1.022,4.955q-.4-.549.113-.775t.965.378a13.39,13.39,0,0,1,.926,1.457.492.492,0,0,1-.284.794.583.583,0,0,1-.851-.34A11.6,11.6,0,0,0,193.967,166.08Zm5.485-13.958q.189-.642.681-.473a.549.549,0,0,1,.378.757q-.208.812-.492,1.626c-.1.329.006.492.322.492h4.823a.568.568,0,1,1,0,1.135.6.6,0,0,0-.662.605,20.956,20.956,0,0,1-2.213,6.96.936.936,0,0,0,.133,1.135,14.8,14.8,0,0,0,3.083,2.5q.548.341.075.946-.4.49-1.022.057a19.582,19.582,0,0,1-2.723-2.44.6.6,0,0,0-1.022,0,11.69,11.69,0,0,1-2.723,2.572.6.6,0,0,1-.927-.246.556.556,0,0,1,.227-.89,11.035,11.035,0,0,0,2.761-2.61.815.815,0,0,0,0-1.022,19.158,19.158,0,0,1-1.531-2.8q-.284-.663.17-.984c.277-.215.5-.145.662.208a16.311,16.311,0,0,0,1.286,2.459c.265.391.422.574.473.549a18.808,18.808,0,0,0,2.118-6.488q.076-.51-.378-.51h-3.026a.808.808,0,0,0-.719.567q-.453,1.04-1,2.081-.36.568-.832.208a.635.635,0,0,1-.17-.908A26.108,26.108,0,0,0,199.452,152.122Z" transform="translate(-169.227 -102.41)" fill="#4dffff"/><path d="M225.183,151.046a.763.763,0,0,1,.983.4q.227.624.681.624h6.033c.378,0,.568.163.568.492s-.19.492-.568.492H219.206a.418.418,0,0,0-.473.473V160.3a27.178,27.178,0,0,1-.984,6.828q-.189.642-.681.359a.812.812,0,0,1-.435-1,26.008,26.008,0,0,0,1-6.961v-6.885a.5.5,0,0,1,.568-.567h6.279q.453,0,.3-.473Q224.615,151.159,225.183,151.046Zm-.095,7.888a.556.556,0,0,1,.7-.34q.548.132.321.416c-.214.215-.151.322.19.322h5.485a.5.5,0,0,1,.568.567v3.386a.5.5,0,0,1-.568.567h-4.558a.418.418,0,0,0-.473.473v1.986a.719.719,0,0,0,.624.946l.473.038h2.723l1.589-.113c.24.012.429-.17.568-.549q.113-.34.624-.113a.572.572,0,0,1,.284.813q-.208.529-.624.549a14.5,14.5,0,0,1-2.761.228H227.32l-.756-.057q-.775.056-.927-.927v-2.8c0-.315-.208-.473-.625-.473a.733.733,0,0,0-.794.587,4.39,4.39,0,0,1-1.929,2.648,6.6,6.6,0,0,1-2.137.908c-.416.114-.687.006-.813-.321q-.208-.606.34-.719a10.4,10.4,0,0,0,1.287-.435,3.756,3.756,0,0,0,2.118-2.175q.133-.492-.34-.492H221.06a.5.5,0,0,1-.568-.567V159.9a.5.5,0,0,1,.568-.567h3.29A.869.869,0,0,0,225.088,158.933Zm-4.861-2.213q.057-.643.435-.643.417,0,.4.567a4.667,4.667,0,0,1-.3,1.4q-.34.681-.775.435-.416-.246-.038-.813A3.318,3.318,0,0,0,220.227,156.72Zm1.93-2.611q0-.4.472-.4.51,0,.51.378,0,.4.473.4h1.324q.568,0,.567.378t-.567.378h-1.324a.418.418,0,0,0-.473.472v2.137q0,.568-.492.568t-.491-.568v-2.137a.418.418,0,0,0-.473-.472h-1.229q-.568,0-.568-.378t.568-.378h1.229Q222.157,154.488,222.157,154.11Zm3.8,6.6c-.013-.416-.176-.624-.492-.624h-3.518q-.473,0-.473.605,0,.624.473.624h3.537Q225.958,161.316,225.958,160.711Zm0,1.816q0-.624-.454-.624h-3.555q-.473,0-.473.605,0,.624.473.624h3.537Q225.958,163.132,225.958,162.527Zm-1.816-5.844q0-.606.4-.605.435,0,.435.567.037.776.681.662.34-.018.34.227,0,.3-.567.36a1.566,1.566,0,0,1-1.04-.246A1.789,1.789,0,0,1,224.143,156.682Zm5.3-2.572q0-.4.454-.4.51,0,.51.378,0,.4.473.4h1.7q.568,0,.567.378t-.567.378h-1.7a.418.418,0,0,0-.473.472v2.137q0,.568-.472.568-.492,0-.492-.568v-2.137a.418.418,0,0,0-.473-.472h-1.532q-.567,0-.567-.378t.567-.378h1.532Q229.438,154.488,229.438,154.11ZM227.49,156.8q.133-.719.511-.719.416,0,.359.567a3.234,3.234,0,0,1-.359,1.135q-.435.568-.813.359-.378-.226.057-.775A2.213,2.213,0,0,0,227.49,156.8Zm3.916,3.915q0-.624-.473-.624H227.49q-.473,0-.472.605,0,.624.472.624h3.443Q231.406,161.316,231.406,160.711Zm0,1.816q0-.624-.454-.624H227.49q-.473,0-.472.605,0,.624.472.624h3.443Q231.406,163.132,231.406,162.527Zm-2.724,2.534q.435-.681.795-.586.34.075-.057.681-.53.624,0,.624a8.306,8.306,0,0,0,1.191-.132c.328-.051.454-.183.378-.4s-.038-.347.151-.4q.359-.094.624.4l.151.359q.17.586-.19.7c-.239.075-.378.062-.416-.038q-.057-.19-.662-.095l-1.967.208q-.6.036-.7-.265-.113-.322.473-.794Zm2.8-8.379q0-.606.4-.605.435,0,.435.473-.17,1.078.719,1.04.625-.056.625.246,0,.4-.568.51a2.443,2.443,0,0,1-.605-.038,1.663,1.663,0,0,1-.719-.208A2.727,2.727,0,0,1,231.481,156.682Z" transform="translate(-177.689 -102.223)" fill="#4dffff"/><path d="M245.683,153.353a.494.494,0,0,1,.549-.567H260.02a.549.549,0,1,1,0,1.1h-5.844a.418.418,0,0,0-.473.473v4.615a.418.418,0,0,0,.473.472h5.012a.493.493,0,0,1,.567.549.5.5,0,0,1-.567.567h-5.012a.418.418,0,0,0-.473.473v5.258a.418.418,0,0,0,.473.472h6.411a.568.568,0,1,1,0,1.135H245.494a.568.568,0,0,1,0-1.135h6.3a.418.418,0,0,0,.473-.472v-5.258a.418.418,0,0,0-.473-.473h-4.634c-.378,0-.567-.182-.567-.549a.5.5,0,0,1,.567-.567h4.634a.418.418,0,0,0,.473-.472v-4.615a.418.418,0,0,0-.473-.473h-5.541Q245.683,153.883,245.683,153.353Z" transform="translate(-186.426 -102.772)" fill="#4dffff"/><path d="M161.361,233.166a.5.5,0,0,1,.567-.567h7.585a.5.5,0,0,1,.567.567v5.145a.5.5,0,0,1-.567.567h-2.837a.418.418,0,0,0-.472.473v.472a.418.418,0,0,0,.472.473h3.4q.568,0,.568.53c0,.352-.19.529-.568.529h-3.4a.418.418,0,0,0-.472.473v1.854a.494.494,0,0,1-.549.567.5.5,0,0,1-.567-.567v-1.854a.418.418,0,0,0-.473-.473h-3.367c-.378,0-.568-.177-.568-.529s.19-.53.568-.53h3.367a.418.418,0,0,0,.473-.473v-.472a.418.418,0,0,0-.473-.473h-2.686a.5.5,0,0,1-.567-.567Zm-.435-4.823q0-.586.549-.587h2.931a.5.5,0,0,1,.568.567v2.421a.5.5,0,0,1-.568.568h-2.913a.5.5,0,0,1-.567-.568Zm3.026.719c0-.329-.151-.492-.454-.492h-1.04a.418.418,0,0,0-.473.473v.964a.418.418,0,0,0,.473.473h1.021a.418.418,0,0,0,.473-.473Zm1.135,5.012c0-.329-.152-.492-.454-.492h-1.664a.418.418,0,0,0-.473.473v.794a.418.418,0,0,0,.473.473h1.646a.418.418,0,0,0,.473-.473Zm0,2.648q0-.492-.454-.492h-1.664a.418.418,0,0,0-.473.473v.7a.418.418,0,0,0,.473.473h1.646a.418.418,0,0,0,.473-.473Zm3.858-2.648c0-.329-.151-.492-.454-.492h-1.816a.418.418,0,0,0-.472.473v.794a.418.418,0,0,0,.472.473h1.8a.418.418,0,0,0,.473-.473Zm0,2.648q0-.492-.454-.492h-1.816a.418.418,0,0,0-.472.473v.7a.418.418,0,0,0,.472.473h1.8a.418.418,0,0,0,.473-.473Zm-2.667-8.379q0-.586.549-.587h3.064a.5.5,0,0,1,.567.567v2.421a.5.5,0,0,1-.567.568h-3.045a.5.5,0,0,1-.568-.568Zm3.1.719c0-.329-.151-.492-.454-.492h-1.116a.418.418,0,0,0-.473.473v.964a.418.418,0,0,0,.473.473h1.1a.418.418,0,0,0,.473-.473Zm2.761-1.229q-.02-.606.567-.605.625,0,.624.567.038,1.929.133,3.915.019.472.605.4l2.8-.378a.469.469,0,0,1,.605.492.584.584,0,0,1-.568.719l-2.837.416c-.315.038-.473.258-.473.662a24.9,24.9,0,0,0,.643,4.388q.133.492.51-.151a21.534,21.534,0,0,0,1.305-2.761q.227-.586.662-.36.453.227.246.795a23.534,23.534,0,0,1-1.816,3.782,1.318,1.318,0,0,0-.227,1.154l.625,1.495c.29.352.479.529.567.529q.416-.151.3-1.116.02-.7.568-.53a.621.621,0,0,1,.492.738,10.473,10.473,0,0,1-.284,1.361c-.176.568-.479.863-.908.89a1.238,1.238,0,0,1-1.078-.416,5.673,5.673,0,0,1-1.1-1.891q-.19-.512-.625-.076a13.547,13.547,0,0,1-2.326,1.949c-.392.251-.668.227-.832-.076q-.247-.492.322-.87a11.7,11.7,0,0,0,2.515-2.25,1.179,1.179,0,0,0,.208-1.022,36.69,36.69,0,0,1-.889-5.466c-.038-.341-.2-.492-.492-.454l-.246.038a.532.532,0,0,1-.662-.51.537.537,0,0,1,.491-.681l.265-.037c.3-.05.454-.265.454-.643Q172.18,229.838,172.142,227.833Zm2.61.321q.473-.322.927.208.454.549.832,1.1a.6.6,0,0,1-.113.927q-.473.359-.832-.227-.51-.756-1.1-1.513C174.368,228.507,174.462,228.344,174.752,228.154Z" transform="translate(-160.453 -125.722)" fill="#4dffff"/><path d="M189.706,228.318q0-.586.549-.587h3.783a.5.5,0,0,1,.567.567V242.73a2.047,2.047,0,0,1-.549,1.324,2.428,2.428,0,0,1-1.74.208.866.866,0,0,1-.813-.7q-.151-.681.378-.567l.775.094q.738.227.889-.813v-4.331a.418.418,0,0,0-.473-.473h-1.929c-.315,0-.479.2-.492.587a31.875,31.875,0,0,1-.832,5.466q-.208.681-.737.378a.679.679,0,0,1-.36-.832,29.954,29.954,0,0,0,.984-7.32Zm3.84.984q0-.51-.435-.511H191.2a.418.418,0,0,0-.472.473v2.308a.418.418,0,0,0,.472.473h1.872a.418.418,0,0,0,.473-.473Zm0,4.274a.418.418,0,0,0-.473-.472H191.2a.417.417,0,0,0-.472.472v2.4a.418.418,0,0,0,.472.473h1.872a.418.418,0,0,0,.473-.473Zm6.658-5.825c.1-.48.322-.674.662-.587a.546.546,0,0,1,.416.719q-.226,1.174-.549,2.4-.113.492.36.492h3.329q.568,0,.568.472c0,.315-.19.473-.568.473h-3.65q-.473,0-.662.586a6.837,6.837,0,0,1-.378.908q-.227.492.246.492h5.031c.378,0,.567.163.567.492s-.189.492-.567.492h-1.551q-.492,0-.075.492a10.271,10.271,0,0,0,1.7,1.513q.624.454.246.889-.4.472-.984,0a13.033,13.033,0,0,1-2.194-2.44.888.888,0,0,0-.757-.454H199.5a1.041,1.041,0,0,0-.832.567,12.078,12.078,0,0,1-2.137,2.421c-.327.277-.618.309-.87.095q-.435-.4.133-.908a11.38,11.38,0,0,0,1.494-1.626c.252-.367.233-.549-.057-.549h-1.21q-.568,0-.567-.492c0-.329.189-.492.567-.492h1.759a.958.958,0,0,0,.794-.568,6.645,6.645,0,0,0,.416-.926c.113-.329.012-.492-.3-.492H196.7c-.378,0-.567-.158-.567-.473s.189-.472.567-.472h2.346q.473,0,.624-.605Q199.977,228.962,200.2,227.75Zm-.889,8.908q0-.755.492-.756.529,0,.529.567l-.019.775a.418.418,0,0,0,.472.473h2.705a.5.5,0,0,1,.567.567,27.237,27.237,0,0,1-.208,3.972,3.688,3.688,0,0,1-.322,1.287,2.586,2.586,0,0,1-2.61.51.78.78,0,0,1-.681-.587q-.133-.531.416-.454l.927.075a.83.83,0,0,0,1.04-.624,27.636,27.636,0,0,0,.246-3.291.417.417,0,0,0-.472-.472h-1.7q-.473,0-.568.586a6.559,6.559,0,0,1-2.988,4.672.694.694,0,0,1-.946-.019q-.322-.379.246-.738a5.435,5.435,0,0,0,2.629-4.029.4.4,0,0,0-.454-.472h-.851q-.567,0-.567-.492c0-.329.19-.492.567-.492h.965c.315,0,.5-.2.549-.587Zm-2.572-8.624q.435-.3.87.208l.435.605q.34.568-.095.813t-.775-.34a6.2,6.2,0,0,0-.454-.624Q196.382,228.28,196.742,228.034Zm6.279.322c.214-.466.5-.65.852-.549s.416.371.227.775l-.341.643q-.453.7-.889.454-.453-.246-.132-.795Z" transform="translate(-169.09 -125.695)" fill="#4dffff"/><path d="M225.183,227.046a.763.763,0,0,1,.983.4q.227.624.681.624h6.033c.378,0,.568.163.568.492s-.19.492-.568.492H219.206a.418.418,0,0,0-.473.473V236.3a27.178,27.178,0,0,1-.984,6.828q-.189.642-.681.359a.812.812,0,0,1-.435-1,26.008,26.008,0,0,0,1-6.961v-6.885a.5.5,0,0,1,.568-.567h6.279q.453,0,.3-.473Q224.615,227.159,225.183,227.046Zm-.095,7.888a.556.556,0,0,1,.7-.34q.548.132.321.416c-.214.215-.151.322.19.322h5.485a.5.5,0,0,1,.568.567v3.386a.5.5,0,0,1-.568.567h-4.558a.418.418,0,0,0-.473.473v1.986a.719.719,0,0,0,.624.946l.473.038h2.723l1.589-.113c.24.012.429-.17.568-.549q.113-.34.624-.113a.572.572,0,0,1,.284.813q-.208.529-.624.549a14.5,14.5,0,0,1-2.761.228H227.32l-.756-.057q-.775.056-.927-.927v-2.8c0-.315-.208-.473-.625-.473a.733.733,0,0,0-.794.587,4.39,4.39,0,0,1-1.929,2.648,6.6,6.6,0,0,1-2.137.908c-.416.114-.687.006-.813-.321q-.208-.606.34-.719a10.4,10.4,0,0,0,1.287-.435,3.756,3.756,0,0,0,2.118-2.175q.133-.492-.34-.492H221.06a.5.5,0,0,1-.568-.567V235.9a.5.5,0,0,1,.568-.567h3.29A.869.869,0,0,0,225.088,234.933Zm-4.861-2.213q.057-.643.435-.643.417,0,.4.567a4.667,4.667,0,0,1-.3,1.4q-.34.681-.775.435-.416-.246-.038-.813A3.318,3.318,0,0,0,220.227,232.72Zm1.93-2.611q0-.4.472-.4.51,0,.51.378,0,.4.473.4h1.324q.568,0,.567.378t-.567.378h-1.324a.418.418,0,0,0-.473.472v2.137q0,.568-.492.568t-.491-.568v-2.137a.418.418,0,0,0-.473-.472h-1.229q-.568,0-.568-.378t.568-.378h1.229Q222.157,230.488,222.157,230.11Zm3.8,6.6c-.013-.416-.176-.624-.492-.624h-3.518q-.473,0-.473.605,0,.624.473.624h3.537Q225.958,237.316,225.958,236.711Zm0,1.816q0-.624-.454-.624h-3.555q-.473,0-.473.605,0,.624.473.624h3.537Q225.958,239.132,225.958,238.527Zm-1.816-5.844q0-.606.4-.605.435,0,.435.567.037.776.681.662.34-.018.34.227,0,.3-.567.36a1.566,1.566,0,0,1-1.04-.246A1.789,1.789,0,0,1,224.143,232.682Zm5.3-2.572q0-.4.454-.4.51,0,.51.378,0,.4.473.4h1.7q.568,0,.567.378t-.567.378h-1.7a.418.418,0,0,0-.473.472v2.137q0,.568-.472.568-.492,0-.492-.568v-2.137a.418.418,0,0,0-.473-.472h-1.532q-.567,0-.567-.378t.567-.378h1.532Q229.438,230.488,229.438,230.11ZM227.49,232.8q.133-.719.511-.719.416,0,.359.567a3.234,3.234,0,0,1-.359,1.135q-.435.568-.813.359-.378-.226.057-.775A2.213,2.213,0,0,0,227.49,232.8Zm3.916,3.915q0-.624-.473-.624H227.49q-.473,0-.472.605,0,.624.472.624h3.443Q231.406,237.316,231.406,236.711Zm0,1.816q0-.624-.454-.624H227.49q-.473,0-.472.605,0,.624.472.624h3.443Q231.406,239.132,231.406,238.527Zm-2.724,2.534q.435-.681.795-.586.34.075-.057.681-.53.624,0,.624a8.3,8.3,0,0,0,1.191-.132c.328-.051.454-.183.378-.4s-.038-.347.151-.4q.359-.094.624.4l.151.359q.17.586-.19.7c-.239.075-.378.062-.416-.038q-.057-.19-.662-.095l-1.967.208q-.6.036-.7-.265-.113-.322.473-.794Zm2.8-8.379q0-.606.4-.605.435,0,.435.473-.17,1.078.719,1.04.625-.056.625.246,0,.4-.568.51a2.442,2.442,0,0,1-.605-.038,1.663,1.663,0,0,1-.719-.208A2.727,2.727,0,0,1,231.481,232.682Z" transform="translate(-177.689 -125.653)" fill="#4dffff"/><path d="M245.683,229.353a.494.494,0,0,1,.549-.567H260.02a.549.549,0,1,1,0,1.1h-5.844a.418.418,0,0,0-.473.473v4.615a.418.418,0,0,0,.473.472h5.012a.493.493,0,0,1,.567.549.5.5,0,0,1-.567.567h-5.012a.418.418,0,0,0-.473.473v5.258a.418.418,0,0,0,.473.472h6.411a.568.568,0,1,1,0,1.135H245.494a.568.568,0,0,1,0-1.135h6.3a.418.418,0,0,0,.473-.472v-5.258a.418.418,0,0,0-.473-.473h-4.634c-.378,0-.567-.182-.567-.549a.5.5,0,0,1,.567-.567h4.634a.418.418,0,0,0,.473-.472v-4.615a.418.418,0,0,0-.473-.473h-5.541Q245.683,229.883,245.683,229.353Z" transform="translate(-186.426 -126.202)" fill="#4dffff"/><path d="M161.361,309.166a.5.5,0,0,1,.567-.567h7.585a.5.5,0,0,1,.567.567v5.145a.5.5,0,0,1-.567.567h-2.837a.418.418,0,0,0-.472.473v.472a.418.418,0,0,0,.472.473h3.4q.568,0,.568.53c0,.352-.19.529-.568.529h-3.4a.418.418,0,0,0-.472.473v1.854a.494.494,0,0,1-.549.567.5.5,0,0,1-.567-.567v-1.854a.418.418,0,0,0-.473-.473h-3.367c-.378,0-.568-.177-.568-.529s.19-.53.568-.53h3.367a.418.418,0,0,0,.473-.473v-.472a.418.418,0,0,0-.473-.473h-2.686a.5.5,0,0,1-.567-.567Zm-.435-4.823q0-.586.549-.587h2.931a.5.5,0,0,1,.568.567v2.421a.5.5,0,0,1-.568.568h-2.913a.5.5,0,0,1-.567-.568Zm3.026.719c0-.329-.151-.492-.454-.492h-1.04a.418.418,0,0,0-.473.473v.964a.418.418,0,0,0,.473.473h1.021a.418.418,0,0,0,.473-.473Zm1.135,5.012c0-.329-.152-.492-.454-.492h-1.664a.418.418,0,0,0-.473.473v.794a.418.418,0,0,0,.473.473h1.646a.418.418,0,0,0,.473-.473Zm0,2.648q0-.492-.454-.492h-1.664a.418.418,0,0,0-.473.473v.7a.418.418,0,0,0,.473.473h1.646a.418.418,0,0,0,.473-.473Zm3.858-2.648c0-.329-.151-.492-.454-.492h-1.816a.418.418,0,0,0-.472.473v.794a.418.418,0,0,0,.472.473h1.8a.418.418,0,0,0,.473-.473Zm0,2.648q0-.492-.454-.492h-1.816a.418.418,0,0,0-.472.473v.7a.418.418,0,0,0,.472.473h1.8a.418.418,0,0,0,.473-.473Zm-2.667-8.379q0-.586.549-.587h3.064a.5.5,0,0,1,.567.567v2.421a.5.5,0,0,1-.567.568h-3.045a.5.5,0,0,1-.568-.568Zm3.1.719c0-.329-.151-.492-.454-.492h-1.116a.418.418,0,0,0-.473.473v.964a.418.418,0,0,0,.473.473h1.1a.418.418,0,0,0,.473-.473Zm2.761-1.229q-.02-.606.567-.605.625,0,.624.567.038,1.929.133,3.915.019.472.605.4l2.8-.378a.469.469,0,0,1,.605.492.584.584,0,0,1-.568.719l-2.837.416c-.315.038-.473.258-.473.662a24.9,24.9,0,0,0,.643,4.388q.133.492.51-.151a21.534,21.534,0,0,0,1.305-2.761q.227-.586.662-.36.453.227.246.795a23.533,23.533,0,0,1-1.816,3.782,1.318,1.318,0,0,0-.227,1.154l.625,1.495c.29.352.479.529.567.529q.416-.152.3-1.116.02-.7.568-.53a.621.621,0,0,1,.492.738,10.472,10.472,0,0,1-.284,1.361c-.176.568-.479.863-.908.89a1.238,1.238,0,0,1-1.078-.416,5.672,5.672,0,0,1-1.1-1.891q-.19-.512-.625-.076a13.547,13.547,0,0,1-2.326,1.949c-.392.251-.668.227-.832-.076q-.247-.492.322-.87a11.7,11.7,0,0,0,2.515-2.25,1.179,1.179,0,0,0,.208-1.022,36.69,36.69,0,0,1-.889-5.466c-.038-.341-.2-.492-.492-.454l-.246.038a.532.532,0,0,1-.662-.51.537.537,0,0,1,.491-.681l.265-.037c.3-.05.454-.265.454-.643Q172.18,305.838,172.142,303.833Zm2.61.321q.473-.322.927.208.454.549.832,1.1a.6.6,0,0,1-.113.927q-.473.359-.832-.227-.51-.756-1.1-1.513C174.368,304.507,174.462,304.344,174.752,304.154Z" transform="translate(-160.453 -149.152)" fill="#4dffff"/><path d="M190.771,317.494q.435-.606.927-.36.473.266.057.889A9.975,9.975,0,0,1,190.3,319.8a.624.624,0,0,1-.946,0q-.473-.454.113-.965A8.4,8.4,0,0,0,190.771,317.494Zm-1.305-12.653q0-.586.549-.587h5.6a.5.5,0,0,1,.567.567v10.894a.5.5,0,0,1-.567.568h-5.58a.5.5,0,0,1-.567-.568Zm5.523,1a.418.418,0,0,0-.473-.473H191.13a.418.418,0,0,0-.472.473v1.513a.418.418,0,0,0,.472.473h3.386a.418.418,0,0,0,.473-.473Zm0,3.593q0-.492-.454-.492h-3.4a.418.418,0,0,0-.472.473v1.626a.418.418,0,0,0,.472.473h3.386a.418.418,0,0,0,.473-.473Zm0,3.688q0-.492-.454-.492h-3.4a.418.418,0,0,0-.472.473V314.7a.417.417,0,0,0,.472.472h3.386a.418.418,0,0,0,.473-.472Zm-1.022,4.955q-.4-.549.113-.775t.965.378a13.391,13.391,0,0,1,.926,1.457.492.492,0,0,1-.284.794.583.583,0,0,1-.851-.34A11.6,11.6,0,0,0,193.967,318.08Zm5.485-13.958q.189-.642.681-.473a.549.549,0,0,1,.378.757q-.208.812-.492,1.626c-.1.329.006.492.322.492h4.823a.568.568,0,1,1,0,1.135.6.6,0,0,0-.662.605,20.956,20.956,0,0,1-2.213,6.96.936.936,0,0,0,.133,1.135,14.8,14.8,0,0,0,3.083,2.5q.548.341.075.946-.4.49-1.022.057a19.582,19.582,0,0,1-2.723-2.44.6.6,0,0,0-1.022,0,11.69,11.69,0,0,1-2.723,2.572.6.6,0,0,1-.927-.246.556.556,0,0,1,.227-.89,11.034,11.034,0,0,0,2.761-2.61.815.815,0,0,0,0-1.022,19.157,19.157,0,0,1-1.531-2.8q-.284-.663.17-.984c.277-.215.5-.145.662.207a16.309,16.309,0,0,0,1.286,2.459c.265.391.422.574.473.549a18.808,18.808,0,0,0,2.118-6.488q.076-.51-.378-.51h-3.026a.808.808,0,0,0-.719.567q-.453,1.04-1,2.081-.36.568-.832.208a.635.635,0,0,1-.17-.908A26.108,26.108,0,0,0,199.452,304.122Z" transform="translate(-169.227 -149.27)" fill="#4dffff"/><path d="M225.183,303.046a.763.763,0,0,1,.983.4q.227.624.681.624h6.033c.378,0,.568.163.568.492s-.19.492-.568.492H219.206a.418.418,0,0,0-.473.473V312.3a27.178,27.178,0,0,1-.984,6.828q-.189.642-.681.359a.812.812,0,0,1-.435-1,26.008,26.008,0,0,0,1-6.961v-6.885a.5.5,0,0,1,.568-.567h6.279q.453,0,.3-.473Q224.615,303.159,225.183,303.046Zm-.095,7.888a.556.556,0,0,1,.7-.34q.548.132.321.416c-.214.215-.151.322.19.322h5.485a.5.5,0,0,1,.568.567v3.386a.5.5,0,0,1-.568.567h-4.558a.418.418,0,0,0-.473.473v1.986a.719.719,0,0,0,.624.946l.473.038h2.723l1.589-.113c.24.012.429-.17.568-.549q.113-.34.624-.113a.572.572,0,0,1,.284.813q-.208.529-.624.549a14.5,14.5,0,0,1-2.761.228H227.32l-.756-.057q-.775.056-.927-.927v-2.8c0-.315-.208-.473-.625-.473a.733.733,0,0,0-.794.587,4.39,4.39,0,0,1-1.929,2.648,6.6,6.6,0,0,1-2.137.908c-.416.114-.687.006-.813-.321q-.208-.606.34-.719a10.392,10.392,0,0,0,1.287-.435,3.756,3.756,0,0,0,2.118-2.175q.133-.492-.34-.492H221.06a.5.5,0,0,1-.568-.567V311.9a.5.5,0,0,1,.568-.567h3.29A.869.869,0,0,0,225.088,310.933Zm-4.861-2.213q.057-.643.435-.643.417,0,.4.567a4.667,4.667,0,0,1-.3,1.4q-.34.681-.775.435-.416-.246-.038-.813A3.318,3.318,0,0,0,220.227,308.72Zm1.93-2.611q0-.4.472-.4.51,0,.51.378,0,.4.473.4h1.324q.568,0,.567.378t-.567.378h-1.324a.418.418,0,0,0-.473.472v2.137q0,.568-.492.568t-.491-.568v-2.137a.418.418,0,0,0-.473-.472h-1.229q-.568,0-.568-.378t.568-.378h1.229Q222.157,306.488,222.157,306.11Zm3.8,6.6c-.013-.416-.176-.624-.492-.624h-3.518q-.473,0-.473.605,0,.624.473.624h3.537Q225.958,313.316,225.958,312.711Zm0,1.816q0-.624-.454-.624h-3.555q-.473,0-.473.605,0,.624.473.624h3.537Q225.958,315.132,225.958,314.527Zm-1.816-5.844q0-.606.4-.605.435,0,.435.567.037.776.681.662.34-.018.34.227,0,.3-.567.36a1.566,1.566,0,0,1-1.04-.246A1.789,1.789,0,0,1,224.143,308.682Zm5.3-2.572q0-.4.454-.4.51,0,.51.378,0,.4.473.4h1.7q.568,0,.567.378t-.567.378h-1.7a.418.418,0,0,0-.473.472v2.137q0,.568-.472.568-.492,0-.492-.568v-2.137a.418.418,0,0,0-.473-.472h-1.532q-.567,0-.567-.378t.567-.378h1.532Q229.438,306.488,229.438,306.11ZM227.49,308.8q.133-.719.511-.719.416,0,.359.567a3.234,3.234,0,0,1-.359,1.135q-.435.568-.813.359-.378-.226.057-.775A2.213,2.213,0,0,0,227.49,308.8Zm3.916,3.915q0-.624-.473-.624H227.49q-.473,0-.472.605,0,.624.472.624h3.443Q231.406,313.316,231.406,312.711Zm0,1.816q0-.624-.454-.624H227.49q-.473,0-.472.605,0,.624.472.624h3.443Q231.406,315.132,231.406,314.527Zm-2.724,2.534q.435-.681.795-.586.34.075-.057.681-.53.624,0,.624a8.3,8.3,0,0,0,1.191-.132c.328-.051.454-.183.378-.4s-.038-.347.151-.4q.359-.094.624.4l.151.359q.17.586-.19.7c-.239.075-.378.062-.416-.038q-.057-.19-.662-.095l-1.967.208q-.6.036-.7-.265-.113-.322.473-.794Zm2.8-8.379q0-.606.4-.605.435,0,.435.473-.17,1.078.719,1.04.625-.056.625.246,0,.4-.568.51a2.442,2.442,0,0,1-.605-.038,1.662,1.662,0,0,1-.719-.207A2.727,2.727,0,0,1,231.481,308.682Z" transform="translate(-177.689 -149.083)" fill="#4dffff"/><path d="M245.683,305.353a.494.494,0,0,1,.549-.567H260.02a.549.549,0,1,1,0,1.1h-5.844a.418.418,0,0,0-.473.473v4.615a.418.418,0,0,0,.473.472h5.012a.493.493,0,0,1,.567.549.5.5,0,0,1-.567.567h-5.012a.418.418,0,0,0-.473.473v5.258a.418.418,0,0,0,.473.472h6.411a.568.568,0,1,1,0,1.135H245.494a.568.568,0,0,1,0-1.135h6.3a.418.418,0,0,0,.473-.472v-5.258a.418.418,0,0,0-.473-.473h-4.634a.493.493,0,0,1-.567-.549.5.5,0,0,1,.567-.567h4.634a.418.418,0,0,0,.473-.472v-4.615a.418.418,0,0,0-.473-.473h-5.541Q245.683,305.883,245.683,305.353Z" transform="translate(-186.426 -149.632)" fill="#4dffff"/></g><g transform="translate(202.174 0.096)"><path d="M371.684,81.374q.551-.874,1.171-.735c.444.077.589.268.436.575q-.253.528.322.528h4.456q.689,0,.689.6t-.689.6h-5.42a1.375,1.375,0,0,0-1.033.551,13.362,13.362,0,0,1-1.976,1.86q-.757.551-1.148.161-.505-.552.275-1.08A14.856,14.856,0,0,0,371.684,81.374Zm-1.608,5.305a.609.609,0,0,1,.689-.689h6.384a.609.609,0,0,1,.69.689v4.731a.609.609,0,0,1-.69.689h-5.213a.508.508,0,0,0-.574.574v8.038q0,.689-.643.689t-.643-.689ZM376.6,87.8q0-.758-.551-.758h-4.112q-.574,0-.574.735,0,.757.574.757h4.089C376.407,88.539,376.6,88.3,376.6,87.8Zm0,2.458q0-.805-.551-.8h-4.112a.508.508,0,0,0-.574.575v.436a.508.508,0,0,0,.574.574h4.089C376.407,91.043,376.6,90.783,376.6,90.262Zm-2.55-6.385a.9.9,0,0,1,1.125.184c.352.4.344.7-.023.919s-.751.084-1.195-.391l-.275-.275C373.575,84.237,373.7,84.092,374.049,83.877Zm.23,10.45q0-.736.643-.735h7.762a.609.609,0,0,1,.69.689v4.5a.609.609,0,0,1-.69.689h-7.717a.609.609,0,0,1-.689-.689Zm7.809,1.033q0-.758-.528-.758h-5.42q-.575,0-.575.735t.575.735h5.374Q382.087,96.073,382.088,95.361Zm0,2.319q0-.8-.551-.8h-5.4a.508.508,0,0,0-.575.574v.436a.508.508,0,0,0,.575.574h5.374Q382.087,98.461,382.088,97.68Zm-1.125-16.4c.276-.49.627-.681,1.057-.574q.619.138.413.574c-.2.307-.092.459.322.459h5.558q.689,0,.689.6t-.689.6H382a1.62,1.62,0,0,0-1.148.689,17.726,17.726,0,0,1-1.194,1.355q-.758.62-1.217.138-.437-.551.3-1.148A12.331,12.331,0,0,0,380.962,81.282Zm-.964,5.4a.609.609,0,0,1,.689-.689h6.706a.609.609,0,0,1,.689.689v13a1.673,1.673,0,0,1-1.562,1.814q-.827.022-1.768-.046a.916.916,0,0,1-.988-.735q-.115-.644.643-.551a6.1,6.1,0,0,0,1.768.023,1.212,1.212,0,0,0,.528-1.011v-6.5a.508.508,0,0,0-.574-.574h-5.443a.609.609,0,0,1-.689-.689ZM386.7,87.8q0-.758-.551-.758h-4.226q-.575,0-.574.735,0,.757.574.757h4.2Q386.7,88.539,386.7,87.8Zm0,2.458q0-.805-.551-.8h-4.226a.508.508,0,0,0-.574.575v.436a.507.507,0,0,0,.574.574h4.2Q386.7,91.043,386.7,90.262Zm-2.917-6.385a1.028,1.028,0,0,1,1.172.046l.252.183q.665.574.115.9t-1.263-.3l-.276-.206Q383.328,84.175,383.787,83.877Z" transform="translate(-368.293 -80.62)" fill="#4dffff"/><path d="M407.2,91.1a1.025,1.025,0,0,1,1.148-.483q.711.208.252.873-.437.642.184.643h12.172a.609.609,0,0,1,.689.689,35.313,35.313,0,0,1-.5,7.28,1.953,1.953,0,0,1-.965,1.24,7.332,7.332,0,0,1-3.422.276.9.9,0,0,1-.941-.781q-.206-.874.414-.8a15.318,15.318,0,0,0,2.756.023,1.006,1.006,0,0,0,.574-.436,4.062,4.062,0,0,0,.414-1.837q.16-2.528.138-3.928a.508.508,0,0,0-.574-.574H418q-.575,0-.8.712-1.47,4.043-6.339,6.73l-1.378.735a1.066,1.066,0,0,1-1.332-.275q-.529-.6.252-.919a20.667,20.667,0,0,0,3.675-2.09,9.7,9.7,0,0,0,3.606-4.318c.152-.383.03-.574-.368-.574h-2.2a1.556,1.556,0,0,0-1.125.689,20.641,20.641,0,0,1-7.257,5.305.932.932,0,0,1-1.217-.207q-.505-.576.23-.873a21.267,21.267,0,0,0,6.73-4.318q.573-.6-.046-.6h-2.848a1.585,1.585,0,0,0-1.011.367,13.832,13.832,0,0,1-2.756,1.585q-.805.323-1.125-.322-.276-.6.459-.9A9.476,9.476,0,0,0,407.2,91.1Zm-1.884-8.888q0-.736.643-.735h13.849a.609.609,0,0,1,.689.689v6.66a.609.609,0,0,1-.689.689h-13.8a.609.609,0,0,1-.689-.689Zm13.688,1.1q0-.6-.551-.6H407.364a.507.507,0,0,0-.574.574v1.079a.507.507,0,0,0,.574.574h11.07a.508.508,0,0,0,.574-.574Zm0,3.33q0-.6-.551-.6H407.364a.507.507,0,0,0-.574.574V87.7a.508.508,0,0,0,.574.574h11.07a.508.508,0,0,0,.574-.574Z" transform="translate(-378.871 -80.885)" fill="#4dffff"/><path d="M384.123,144.236a6.943,6.943,0,0,1,5.691,1.317,5.429,5.429,0,0,1,.711,6.744q-2.213,4.163-8.009,9.7-.632.685.079.685h8.246q.791,0,.791.843,0,.922-.712.923H380.461a.7.7,0,0,1-.79-.791v-.369a2.114,2.114,0,0,1,.79-1.528q7.377-6.691,8.958-11.776a3.448,3.448,0,0,0-2.477-4.03,4.148,4.148,0,0,0-4.478,1.159,5.3,5.3,0,0,0-.553,1.581q-.079.948-.869.948h-.369q-.791,0-.711-.791Q380.461,144.843,384.123,144.236Z" transform="translate(-371.801 -100.193)" fill="#4dffff"/><path d="M407.309,144.139a5.749,5.749,0,0,1,6.349,3.187,14.37,14.37,0,0,1,1.449,6.323,16.489,16.489,0,0,1-1.317,7.693,6.408,6.408,0,0,1-2.582,2.845,6.573,6.573,0,0,1-5.4.08,7.891,7.891,0,0,1-3.714-5.928,20.153,20.153,0,0,1,.474-9.589Q404.095,144.586,407.309,144.139Zm.105,1.711a3.888,3.888,0,0,0-2.029,1.45q-1.923,3.083-1.633,8.377a16.576,16.576,0,0,0,.737,4.215q1.371,3.557,4.426,3.214a4.378,4.378,0,0,0,3.425-3.03,19.008,19.008,0,0,0,.421-9.773,8.049,8.049,0,0,0-.711-2.108A3.922,3.922,0,0,0,407.414,145.85Z" transform="translate(-378.6 -100.175)" fill="#4dffff"/><path d="M384.123,225.236a6.943,6.943,0,0,1,5.691,1.317,5.429,5.429,0,0,1,.711,6.744q-2.213,4.163-8.009,9.7-.632.685.079.685h8.246q.791,0,.791.843,0,.922-.712.923H380.461a.7.7,0,0,1-.79-.791v-.369a2.114,2.114,0,0,1,.79-1.528q7.377-6.691,8.958-11.776a3.448,3.448,0,0,0-2.477-4.03,4.148,4.148,0,0,0-4.478,1.159,5.3,5.3,0,0,0-.553,1.581q-.079.948-.869.948h-.369q-.791,0-.711-.791Q380.461,225.843,384.123,225.236Z" transform="translate(-371.801 -125.165)" fill="#4dffff"/><path d="M407.309,225.139a5.749,5.749,0,0,1,6.349,3.187,14.37,14.37,0,0,1,1.449,6.323,16.489,16.489,0,0,1-1.317,7.693,6.408,6.408,0,0,1-2.582,2.845,6.573,6.573,0,0,1-5.4.08,7.892,7.892,0,0,1-3.714-5.928,20.153,20.153,0,0,1,.474-9.589Q404.095,225.586,407.309,225.139Zm.105,1.711a3.888,3.888,0,0,0-2.029,1.45q-1.923,3.083-1.633,8.377a16.576,16.576,0,0,0,.737,4.215q1.371,3.557,4.426,3.214a4.378,4.378,0,0,0,3.425-3.03,19.008,19.008,0,0,0,.421-9.773,8.049,8.049,0,0,0-.711-2.108A3.922,3.922,0,0,0,407.414,226.85Z" transform="translate(-378.6 -125.146)" fill="#4dffff"/><path d="M387.008,302.18a1.94,1.94,0,0,1,1.37-.659.687.687,0,0,1,.764.79v16.86q.053.791.026,1.608a.7.7,0,0,1-.79.791h-.316a.7.7,0,0,1-.791-.791V304.814q0-.711-.842.026a12.228,12.228,0,0,1-2.292,1.423q-.791.342-.791-.447v-.474a1.216,1.216,0,0,1,.791-1.159A12.194,12.194,0,0,0,387.008,302.18Z" transform="translate(-372.934 -148.722)" fill="#4dffff"/><path d="M405.195,301.139a5.75,5.75,0,0,1,6.349,3.187,14.379,14.379,0,0,1,1.449,6.323,16.5,16.5,0,0,1-1.317,7.693,6.412,6.412,0,0,1-2.582,2.845,6.573,6.573,0,0,1-5.4.08,7.894,7.894,0,0,1-3.715-5.928,20.136,20.136,0,0,1,.475-9.589Q401.98,301.586,405.195,301.139Zm.106,1.711a3.888,3.888,0,0,0-2.029,1.45q-1.923,3.083-1.633,8.377a16.519,16.519,0,0,0,.737,4.215q1.37,3.557,4.426,3.214a4.378,4.378,0,0,0,3.425-3.03,19.015,19.015,0,0,0,.421-9.773,8.047,8.047,0,0,0-.711-2.108A3.923,3.923,0,0,0,405.3,302.85Z" transform="translate(-377.948 -148.576)" fill="#4dffff"/></g><g transform="translate(310.853 0.186)"><path d="M533.494,81.515q0-.736.643-.735h.207a.609.609,0,0,1,.689.689v2.986a.507.507,0,0,0,.574.574h6.89a.609.609,0,0,1,.689.689V93.3a.609.609,0,0,1-.689.689h-6.89a.507.507,0,0,0-.574.574v6.385a.609.609,0,0,1-.689.689h-.16a.609.609,0,0,1-.69-.689V94.56a.508.508,0,0,0-.574-.574H526.1a.609.609,0,0,1-.689-.689V85.718a.609.609,0,0,1,.689-.689h6.821a.508.508,0,0,0,.574-.574Zm0,5.443q0-.6-.551-.6h-5.4a.507.507,0,0,0-.574.574v5.121a.507.507,0,0,0,.574.574h5.374a.508.508,0,0,0,.574-.574Zm8.154,0q0-.6-.551-.6h-5.489a.507.507,0,0,0-.574.574v5.121a.507.507,0,0,0,.574.574h5.467a.508.508,0,0,0,.574-.574Z" transform="translate(-525.41 -80.759)" fill="#4dffff"/><path d="M567.45,86.558q0-.736.689-.735.758,0,.758.689v.482a.507.507,0,0,0,.574.574h7.556q.689,0,.69.643t-.69.643h-7.556a.507.507,0,0,0-.574.574v.988a.507.507,0,0,0,.574.574h6.545q.69,0,.69.574c0,.382-.23.574-.69.574h-1.493a.507.507,0,0,0-.574.574V93.7a.508.508,0,0,0,.574.574h3.514q.689,0,.689.643t-.689.643h-3.514a.507.507,0,0,0-.574.574V99.7a1.522,1.522,0,0,1-1.493,1.7,15.56,15.56,0,0,1-3.284-.138,1.033,1.033,0,0,1-.919-.9q-.093-.69.62-.528a17.1,17.1,0,0,0,2.366.23q1.354.045,1.08-1.263V96.135a.508.508,0,0,0-.574-.574H559.136q-.689,0-.689-.643t.689-.643h12.609a.508.508,0,0,0,.574-.574v-.988a.508.508,0,0,0-.574-.574H560.583c-.459,0-.689-.192-.689-.574s.23-.574.689-.574h6.293a.508.508,0,0,0,.574-.574v-.988a.508.508,0,0,0-.574-.574h-7.212q-.689,0-.689-.643t.689-.643h7.212a.508.508,0,0,0,.574-.574Zm-6.133-5.167a.949.949,0,0,1,1.08-.62q.8.185.551.735-.345.666.253.666h4.432q.689,0,.689.574c0,.382-.23.574-.689.574h-5.282a1.432,1.432,0,0,0-1.08.689,11.605,11.605,0,0,1-1.355,1.4q-.758.574-1.194.115-.529-.528.138-1.1A12.231,12.231,0,0,0,561.318,81.391Zm2.09,15.571a.9.9,0,0,1,1.24.207l.666.666q.757.85.046,1.378-.6.482-1.194-.275a8.81,8.81,0,0,0-.643-.758Q562.809,97.375,563.408,96.962Zm.758-12.723a.909.909,0,0,1,1.148.459.6.6,0,0,1,.138.275q.345.736-.322.942-.851.275-1.1-.436a.724.724,0,0,0-.115-.276Q563.522,84.446,564.166,84.239Zm6.8-2.71q.366-.78.964-.6c.443.152.6.4.483.735q-.231.505.367.506h5.168q.689,0,.689.574c0,.382-.23.574-.689.574h-5.719a1.213,1.213,0,0,0-.988.689l-.6.941q-.529.712-1.125.23-.6-.436-.069-1.056A13.6,13.6,0,0,0,570.964,81.529Zm3.215,3.514q-.438-.689.253-.919a1.046,1.046,0,0,1,1.217.528,2.279,2.279,0,0,1,.253.459q.321.689-.367.919a.793.793,0,0,1-1.1-.459Z" transform="translate(-535.595 -80.749)" fill="#4dffff"/><path d="M537.486,144.929a8.842,8.842,0,0,1,6.534-.185A4.608,4.608,0,0,1,547.1,148.3a5.654,5.654,0,0,1-.106,2.713,5.286,5.286,0,0,1-2.344,2.714q-.633.368.263.843a5.067,5.067,0,0,1,2.556,5.058,4.951,4.951,0,0,1-2.319,3.952,7.934,7.934,0,0,1-7.06.816,4.944,4.944,0,0,1-3.4-4.268q-.079-.817.659-.816h.422a.846.846,0,0,1,.922.791q.264,2.265,2.95,2.95a5.246,5.246,0,0,0,5.006-1.475,4.149,4.149,0,0,0,.816-3.715,3,3,0,0,0-1.4-2,5.751,5.751,0,0,0-3.267-.921.65.65,0,0,1-.791-.738v-.21a.651.651,0,0,1,.791-.738,4.172,4.172,0,0,0,4.373-2.687q.765-2.661-1.923-4.268a5.739,5.739,0,0,0-4.953.21,3.083,3.083,0,0,0-1.317,2.055.846.846,0,0,1-.922.791h-.369q-.79,0-.711-.791A4.681,4.681,0,0,1,537.486,144.929Z" transform="translate(-528.27 -100.317)" fill="#4dffff"/><path d="M563.4,144.139a5.75,5.75,0,0,1,6.349,3.187,14.369,14.369,0,0,1,1.449,6.323,16.5,16.5,0,0,1-1.317,7.693,6.412,6.412,0,0,1-2.582,2.845,6.573,6.573,0,0,1-5.4.08,7.894,7.894,0,0,1-3.715-5.928,20.136,20.136,0,0,1,.474-9.589Q560.186,144.586,563.4,144.139Zm.106,1.711a3.888,3.888,0,0,0-2.029,1.45q-1.923,3.083-1.633,8.377a16.55,16.55,0,0,0,.737,4.215q1.371,3.557,4.426,3.214a4.378,4.378,0,0,0,3.425-3.03,19.008,19.008,0,0,0,.421-9.773,8.049,8.049,0,0,0-.711-2.108A3.923,3.923,0,0,0,563.506,145.85Z" transform="translate(-535.401 -100.264)" fill="#4dffff"/><path d="M537.486,225.929a8.842,8.842,0,0,1,6.534-.185A4.608,4.608,0,0,1,547.1,229.3a5.654,5.654,0,0,1-.106,2.713,5.286,5.286,0,0,1-2.344,2.714q-.633.368.263.843a5.067,5.067,0,0,1,2.556,5.058,4.951,4.951,0,0,1-2.319,3.952,7.934,7.934,0,0,1-7.06.816,4.944,4.944,0,0,1-3.4-4.268q-.079-.817.659-.816h.422a.846.846,0,0,1,.922.791q.264,2.265,2.95,2.95a5.246,5.246,0,0,0,5.006-1.475,4.149,4.149,0,0,0,.816-3.715,3,3,0,0,0-1.4-2,5.751,5.751,0,0,0-3.267-.921.65.65,0,0,1-.791-.738v-.21a.651.651,0,0,1,.791-.738,4.172,4.172,0,0,0,4.373-2.687q.765-2.661-1.923-4.268a5.739,5.739,0,0,0-4.953.21,3.083,3.083,0,0,0-1.317,2.055.846.846,0,0,1-.922.791h-.369q-.79,0-.711-.791A4.681,4.681,0,0,1,537.486,225.929Z" transform="translate(-528.27 -125.288)" fill="#4dffff"/><path d="M563.4,225.139a5.75,5.75,0,0,1,6.349,3.187,14.369,14.369,0,0,1,1.449,6.323,16.5,16.5,0,0,1-1.317,7.693,6.412,6.412,0,0,1-2.582,2.845,6.573,6.573,0,0,1-5.4.08,7.894,7.894,0,0,1-3.715-5.928,20.136,20.136,0,0,1,.474-9.589Q560.186,225.586,563.4,225.139Zm.106,1.711a3.888,3.888,0,0,0-2.029,1.45q-1.923,3.083-1.633,8.377a16.55,16.55,0,0,0,.737,4.215q1.371,3.557,4.426,3.214a4.378,4.378,0,0,0,3.425-3.03,19.008,19.008,0,0,0,.421-9.773,8.049,8.049,0,0,0-.711-2.108A3.923,3.923,0,0,0,563.506,226.85Z" transform="translate(-535.401 -125.235)" fill="#4dffff"/><path d="M543.12,302.18a1.941,1.941,0,0,1,1.37-.659.687.687,0,0,1,.764.79v16.86q.053.791.026,1.608a.7.7,0,0,1-.791.791h-.316a.7.7,0,0,1-.79-.791V304.814q0-.711-.843.026a12.2,12.2,0,0,1-2.292,1.423q-.79.342-.79-.447v-.474a1.216,1.216,0,0,1,.79-1.159A12.21,12.21,0,0,0,543.12,302.18Z" transform="translate(-529.741 -148.811)" fill="#4dffff"/><path d="M555.9,302.4q.025-.843.79-.843h9.063a.79.79,0,0,1,0,1.581h-7.456q-.658,0-.685.816,0,2.661-.105,5.322,0,.685.843.105a5.979,5.979,0,0,1,4.373-1.026,5.626,5.626,0,0,1,2.108.9,6.671,6.671,0,0,1,2.424,4.03,9.072,9.072,0,0,1-.448,5.111q-2.081,3.978-6.243,3.53a7.621,7.621,0,0,1-3.161-.869,4.639,4.639,0,0,1-2.214-3.477q-.079-.791.712-.791h.342a.88.88,0,0,1,.948.791,3.473,3.473,0,0,0,3.372,2.66h1.053a4.243,4.243,0,0,0,3.531-2.951,6.394,6.394,0,0,0-.264-5.005,4.2,4.2,0,0,0-7.245-.131q-.4.9-1.053.9h-.369q-.738,0-.712-.818Q555.659,307.329,555.9,302.4Z" transform="translate(-534.587 -148.823)" fill="#4dffff"/></g><g transform="translate(417.84 0.401)"><path d="M680.08,82.93a.609.609,0,0,1,.689-.689h17.2a.609.609,0,0,1,.689.689v18.282q0,.689-.735.689c-.49,0-.735-.177-.735-.528a.507.507,0,0,0-.574-.574H682.124q-.574,0-.574.551t-.735.551q-.735,0-.735-.689Zm17.11,1.263q0-.6-.551-.6H682.124a.508.508,0,0,0-.574.574v14.7a.508.508,0,0,0,.574.574h14.492a.507.507,0,0,0,.574-.574Zm-8.452,1.264q0-.712.666-.712a.609.609,0,0,1,.689.689v1.746a.508.508,0,0,0,.575.574h3.605a.689.689,0,1,1,0,1.378h-3.605q-.574,0-.575.666a1.561,1.561,0,0,0,.69,1.217,48.446,48.446,0,0,1,3.9,3.123q.8.736.344,1.4-.413.619-1.24-.207a39.39,39.39,0,0,0-3.1-2.894q-.6-.5-.6.115v4.984a.6.6,0,0,1-.666.689.609.609,0,0,1-.69-.689V91.91a2.255,2.255,0,0,0-.138-.758c-.168-.031-.329.092-.482.367a15.031,15.031,0,0,1-3.766,4.456c-.49.382-.842.4-1.057.046a.821.821,0,0,1,.276-1.125,18.709,18.709,0,0,0,4.111-5.144q.323-.62-.252-.62h-2.963a.689.689,0,0,1,0-1.378h3.7a.507.507,0,0,0,.574-.574Z" transform="translate(-680.08 -81.424)" fill="#4dffff"/><path d="M725.912,81.67q.206-.757.735-.574c.367.123.49.428.367.919l-.528,1.838q-.252.78.322.781h2.159q.575,0,.414-.735l-.391-1.4q-.275-.78.3-.965a.666.666,0,0,1,.941.459l.529,2.09a.721.721,0,0,0,.735.551h1.079q.689,0,.689.6t-.689.6H730.9a.508.508,0,0,0-.574.574v2.435a.508.508,0,0,0,.574.574h1.355q.689,0,.689.6t-.689.6H730.9a.508.508,0,0,0-.574.574v2.274a.508.508,0,0,0,.574.574h1.355q.689,0,.689.574c0,.382-.23.574-.689.574H730.9a.508.508,0,0,0-.574.574v2.756a.508.508,0,0,0,.574.574h1.837q.69,0,.69.574t-.69.575h-6.109c-.382,0-.574.221-.574.665q0,.643-.62.643-.642,0-.643-.689v-11.3q-.091-.757-.253-.689a1.307,1.307,0,0,0-.322.39q-.436.758-1.056.3-.735-.529-.735.092v2.2a.609.609,0,0,1-.689.689H719q-.574,0-.574.69,0,.711.574.712h2.733q.689,0,.689.528,0,.551-.689.551H719q-.574,0-.574.712-.068.78.482.781h3.7q.689,0,.689.528,0,.552-.689.551h-3.973a1.164,1.164,0,0,0-.965.689,9.807,9.807,0,0,1-3.514,2.963q-.711.344-1.033-.252-.345-.575.39-.919a8.5,8.5,0,0,0,2.664-1.884c.275-.4.215-.6-.184-.6h-2.549q-.689,0-.689-.528,0-.551.689-.551h3.1q.575,0,.643-.735,0-.757-.574-.758H714.2c-.459,0-.69-.175-.69-.528q0-.552.69-.551h2.411q.575,0,.574-.689,0-.712-.574-.712h-2.343a.609.609,0,0,1-.689-.689V89.02a.609.609,0,0,1,.689-.689h2.343q.575,0,.574-.735,0-.758-.574-.758h-.965a.609.609,0,0,1-.689-.689V84.656a.507.507,0,0,0-.574-.574h-.941q-.689,0-.689-.551t.689-.551h.941q.575,0,.574-.781,0-.757.643-.758t.643.758q0,.78.574.781h2.342q.575,0,.575-.781,0-.757.643-.758t.643.758q0,.78.574.781h.919q.689,0,.689.551t-.689.551h-.919a.508.508,0,0,0-.574.574v1.493a.609.609,0,0,1-.689.689H719q-.574,0-.574.735,0,.757.574.757h2.733c.459,0,.689.077.689.23-.015.291.062.459.23.506q.208-.07.436-.506A36.7,36.7,0,0,0,725.912,81.67Zm-8.727,8.314q0-.6-.551-.6H715.37a.508.508,0,0,0-.574.574v.9a.508.508,0,0,0,.574.574h1.24a.508.508,0,0,0,.574-.574Zm2.55-5.305q0-.6-.551-.6h-2.366a.508.508,0,0,0-.574.574v.6a.508.508,0,0,0,.574.574h2.342a.508.508,0,0,0,.575-.574Zm1.493,5.305q0-.6-.551-.6H719a.508.508,0,0,0-.574.574v.9a.508.508,0,0,0,.574.574h1.654a.508.508,0,0,0,.574-.574Zm-2.274,8.957a.816.816,0,0,1,1.056-.16,19.107,19.107,0,0,1,2.458,1.24q.689.389.275.849t-1.148.023a18.265,18.265,0,0,0-2.756-1.446C718.7,99.385,718.739,99.217,718.953,98.941Zm10.082-12.517q0-.6-.551-.6h-1.861a.508.508,0,0,0-.574.574v2.435a.508.508,0,0,0,.574.574h1.838a.508.508,0,0,0,.574-.574Zm0,4.8q0-.62-.529-.62h-1.883a.508.508,0,0,0-.574.574v2.274a.508.508,0,0,0,.574.574h1.838a.508.508,0,0,0,.574-.574Zm0,4.547q0-.6-.551-.6h-1.861a.508.508,0,0,0-.574.574v2.756a.508.508,0,0,0,.574.574h1.838a.508.508,0,0,0,.574-.574Z" transform="translate(-690.152 -81.06)" fill="#4dffff"/><path d="M691.116,145.4q.026-.842.791-.842h9.062a.79.79,0,1,1,0,1.581h-7.455q-.659,0-.685.816,0,2.661-.105,5.322,0,.685.843.105a5.982,5.982,0,0,1,4.374-1.026,5.622,5.622,0,0,1,2.107.9,6.671,6.671,0,0,1,2.424,4.03,9.066,9.066,0,0,1-.448,5.111q-2.081,3.978-6.243,3.53a7.626,7.626,0,0,1-3.162-.869,4.638,4.638,0,0,1-2.213-3.477q-.079-.791.711-.791h.342a.88.88,0,0,1,.949.791,3.472,3.472,0,0,0,3.372,2.66h1.053a4.243,4.243,0,0,0,3.531-2.951,6.4,6.4,0,0,0-.264-5.005,4.2,4.2,0,0,0-7.245-.131q-.4.9-1.053.9h-.369q-.738,0-.711-.818Q690.879,150.329,691.116,145.4Z" transform="translate(-683.261 -100.637)" fill="#4dffff"/><path d="M718.35,144.139a5.75,5.75,0,0,1,6.349,3.187,14.371,14.371,0,0,1,1.449,6.323,16.489,16.489,0,0,1-1.317,7.693,6.412,6.412,0,0,1-2.582,2.845,6.573,6.573,0,0,1-5.4.08,7.892,7.892,0,0,1-3.715-5.928,20.136,20.136,0,0,1,.474-9.589Q715.135,144.586,718.35,144.139Zm.105,1.711a3.888,3.888,0,0,0-2.029,1.45q-1.923,3.083-1.633,8.377a16.579,16.579,0,0,0,.737,4.215q1.371,3.557,4.426,3.214a4.378,4.378,0,0,0,3.425-3.03,19.008,19.008,0,0,0,.421-9.773,8.045,8.045,0,0,0-.711-2.108A3.923,3.923,0,0,0,718.456,145.85Z" transform="translate(-690.157 -100.479)" fill="#4dffff"/><path d="M691.116,226.4q.026-.842.791-.842h9.062a.79.79,0,1,1,0,1.581h-7.455q-.659,0-.685.816,0,2.661-.105,5.322,0,.685.843.105a5.982,5.982,0,0,1,4.374-1.026,5.622,5.622,0,0,1,2.107.9,6.671,6.671,0,0,1,2.424,4.03,9.066,9.066,0,0,1-.448,5.111q-2.081,3.978-6.243,3.53a7.626,7.626,0,0,1-3.162-.869,4.638,4.638,0,0,1-2.213-3.477q-.079-.791.711-.791h.342a.88.88,0,0,1,.949.791,3.472,3.472,0,0,0,3.372,2.66h1.053a4.243,4.243,0,0,0,3.531-2.951,6.4,6.4,0,0,0-.264-5.005,4.2,4.2,0,0,0-7.245-.131q-.4.9-1.053.9h-.369q-.738,0-.711-.818Q690.879,231.329,691.116,226.4Z" transform="translate(-683.261 -125.608)" fill="#4dffff"/><path d="M718.35,225.139a5.75,5.75,0,0,1,6.349,3.187,14.371,14.371,0,0,1,1.449,6.323,16.489,16.489,0,0,1-1.317,7.693,6.412,6.412,0,0,1-2.582,2.845,6.573,6.573,0,0,1-5.4.08,7.892,7.892,0,0,1-3.715-5.928,20.136,20.136,0,0,1,.474-9.589Q715.135,225.586,718.35,225.139Zm.105,1.711a3.888,3.888,0,0,0-2.029,1.45q-1.923,3.083-1.633,8.377a16.579,16.579,0,0,0,.737,4.215q1.371,3.557,4.426,3.214a4.378,4.378,0,0,0,3.425-3.03,19.009,19.009,0,0,0,.421-9.773,8.045,8.045,0,0,0-.711-2.108A3.923,3.923,0,0,0,718.456,226.85Z" transform="translate(-690.157 -125.45)" fill="#4dffff"/><path d="M695.6,301.236a6.941,6.941,0,0,1,5.69,1.317A5.43,5.43,0,0,1,702,309.3q-2.213,4.163-8.009,9.7-.632.685.08.685h8.245q.79,0,.79.843,0,.922-.71.923H691.941a.7.7,0,0,1-.791-.791v-.369a2.112,2.112,0,0,1,.791-1.528q7.376-6.691,8.957-11.776a3.447,3.447,0,0,0-2.476-4.03,4.15,4.15,0,0,0-4.479,1.159,5.32,5.32,0,0,0-.553,1.581q-.079.948-.87.948h-.369q-.79,0-.71-.791Q691.941,301.843,695.6,301.236Z" transform="translate(-683.493 -148.899)" fill="#4dffff"/><path d="M713.377,302.4q.026-.843.791-.843h9.062a.79.79,0,1,1,0,1.581h-7.455q-.659,0-.685.816,0,2.661-.106,5.322,0,.685.843.105a5.979,5.979,0,0,1,4.373-1.026,5.622,5.622,0,0,1,2.108.9,6.671,6.671,0,0,1,2.424,4.03,9.073,9.073,0,0,1-.448,5.111q-2.081,3.978-6.243,3.53a7.625,7.625,0,0,1-3.161-.869,4.635,4.635,0,0,1-2.213-3.477c-.052-.527.183-.791.71-.791h.343a.879.879,0,0,1,.948.791,3.472,3.472,0,0,0,3.372,2.66h1.054a4.242,4.242,0,0,0,3.53-2.951,6.4,6.4,0,0,0-.264-5.005,4.2,4.2,0,0,0-7.245-.131q-.4.9-1.054.9h-.369q-.738,0-.71-.818Q713.141,307.329,713.377,302.4Z" transform="translate(-690.124 -149.038)" fill="#4dffff"/></g></g></g></svg>