<svg xmlns="http://www.w3.org/2000/svg" width="984.659" height="412.561" viewBox="0 0 984.659 412.561"><g transform="translate(-89.43 -83.85)"><g transform="translate(89.43 83.85)"><g transform="translate(6.306 10.682)"><path d="M1066.228,503.79H299.635l-12.26-12.26H106.116V112.113H793.082l17.268,17.269h255.878Zm-765.723-2.1h763.621v-370.2H809.48l-17.268-17.269H108.218V489.428H288.245Z" transform="translate(-106.116 -112.113)" fill="#0068e8"/></g><g transform="translate(13.138 17.514)" opacity="0.1" style="mix-blend-mode:screen;isolation:isolate"><path d="M314.791,508.542l-12.258-12.26H125.582v-364.7H802.143l17.269,17.269h251.567V508.542Z" transform="translate(-125.056 -131.055)" fill="#0068e8"/><path d="M1070.64,508.2H313.708l-12.258-12.26H124.191V130.19H801.5l17.269,17.269H1070.64Zm-756.5-1.051h755.445V148.51H818.33l-17.269-17.269H125.242V494.892H301.885Z" transform="translate(-124.191 -130.19)" fill="#4dffff"/></g><g transform="translate(972.046 62.165)"><rect width="12.613" height="100.853" fill="#4dffff"/><g transform="translate(0 113.933)"><rect width="12.613" height="8.592" fill="#4dffff"/></g><g transform="translate(0 126.786)"><rect width="12.613" height="8.592" fill="#4dffff"/></g><g transform="translate(0 139.641)"><rect width="12.613" height="8.591" fill="#4dffff"/></g><g transform="translate(0 152.494)"><rect width="12.613" height="8.592" fill="#4dffff"/></g></g><g transform="translate(1.051 398.507)"><path d="M284.37,1152.332l-11.952-11.952H92.211v-2.1H273.288l12.568,12.568Z" transform="translate(-92.211 -1138.277)" fill="#0068e8"/></g><g transform="translate(698.401 0.479)"><path d="M2210.631,104.18h-255.7L1937.358,86.6l1.486-1.486,16.96,16.961h254.827Z" transform="translate(-1937.358 -85.116)" fill="#0068e8"/></g><g transform="translate(0 35.646)"><rect width="14.715" height="4.204" fill="#4dffff"/><g transform="translate(0 14.673)"><path d="M104.145,432.647H89.43v-8.375h14.715Zm0-18.844H89.43v-8.375h14.715Zm0-18.844H89.43v-8.375h14.715Zm0-18.844H89.43v-8.375h14.715Zm0-18.844H89.43V348.9h14.715Zm0-18.844H89.43v-8.375h14.715Zm0-18.842H89.43v-8.375h14.715Zm0-18.844H89.43v-8.375h14.715Zm0-18.844H89.43v-8.375h14.715Zm0-18.844H89.43V254.68h14.715Zm0-18.844H89.43v-8.375h14.715Zm0-18.844H89.43v-8.375h14.715Z" transform="translate(-89.43 -216.992)" fill="#4dffff"/></g><g transform="translate(0 240.797)"><rect width="14.715" height="4.204" transform="translate(0 0)" fill="#4dffff"/></g></g><path d="M296.936,83.85H598.9l23.466,23.466H296.936Zm-9.331,0H274.126v23.466H287.6Zm-30.068,0H242.981v23.466h14.555Z" transform="translate(-184.948 -83.85)" fill="#0068e8"/><path d="M840.137,1083.083h-2.756v-13h2.756Zm5.355-13h-2.756v13h2.756Zm5.355,0H848.09v13h2.756Zm5.354,0h-2.756v13H856.2Zm5.355,0H858.8v13h2.756Zm5.355,0h-2.756v13h2.756Zm5.354,0h-2.756v13h2.756Zm5.355,0h-2.756v13h2.756Zm5.355,0h-2.756v13h2.756Zm5.354,0h-2.756v13h2.756Zm5.355,0h-2.756v13h2.756Zm5.355,0H896.28v13h2.756Zm5.354,0h-2.756v13h2.756Zm5.355,0h-2.756v13h2.756Zm5.354,0h-2.756v13H915.1Zm5.355,0H917.7v13h2.756Zm5.354,0h-2.756v13h2.756Zm5.355,0h-2.756v13h2.756Zm5.355,0h-2.756v13h2.756Zm5.354,0h-2.756v13h2.756Zm5.355,0h-2.756v13h2.756Z" transform="translate(-554.702 -697.348)" fill="#0068e8"/></g><rect width="294.457" height="295.603" rx="37.895" transform="translate(360.139 143.82)" fill="#0068e8" opacity="0.2" style="mix-blend-mode:screen;isolation:isolate"/><g transform="translate(370.111 154)"><path d="M1130.582,269.464h1.44l-1.278,3.654v11.735h-1.331V276.9l-.414,1.17h-1.44Zm1.62.288h10.115V284.6H1132.2Zm8.765,13.535V271.048h-7.433v12.239Zm-4.356-5.435V275.3h-2.754v-1.26h2.754v-2.412h1.3v2.412h2.736v1.26h-2.736v2.556h2.178v4.608h-5.669v-4.608Zm2.178,3.4v-2.214h-3.1v2.214Z" transform="translate(-1015.892 -269.464)" fill="#4dffff"/><path d="M1190.717,284.853h-1.89l-5.76-6.587-5.579,6.587h-1.836l6.677-7.883v-7.505h1.44V276.9Z" transform="translate(-1045.809 -269.464)" fill="#4dffff"/><path d="M1231.582,282.765h-3.834v2.088h-1.368v-2.088h-3.636v-1.314h3.636v-.972h-3.024V274.4h7.415v6.083h-3.024v.972h3.834Zm-4.7-13.139v4.265h-3.906v-4.265Zm-1.224,3.15v-2.034H1224.2v2.034Zm.72,2.862h-1.71v1.17h1.71Zm-1.71,3.581h1.71v-1.134h-1.71Zm6.443-9.593v4.265h-3.906v-4.265Zm-1.638,7.181v-1.17h-1.728v1.17Zm-1.728,2.412h1.728v-1.134h-1.728Zm2.142-6.443v-2.034h-1.458v2.034Zm8.081,1.62-2.916.63.612,2.286.72-1.3h1.44l-1.71,3.023,1.53,5.814h-1.35l-1.1-4.194-2.2,3.852h-1.422l3.15-5.579-.954-3.618-2.646.576v-1.314l2.322-.5-1.206-4.607h1.35l1.134,4.338,3.24-.7Zm-1.062-2.088H1235.6l-.756-2.844h1.332Z" transform="translate(-1075.104 -269.464)" fill="#4dffff"/><path d="M835.64,371.073l-.4,2.034H838v9.287h-2.88v-1.224H836.7V374.33h-1.692l-1.584,8.315h-1.3l2.214-11.573h-2.25v-1.224h2.358v-2.682h1.332v2.682h2.88v1.224Zm6.768-3.942,4.9,4.787v1.89l-4.824-4.716-4.1,4.77v-2.034Zm-2.754,12.563V378.2l6.264,2.915v1.494Zm.738-6.533,5,2.339v1.494l-5-2.34Z" transform="translate(-832.095 -330.219)" fill="#4dffff"/><path d="M877.855,370.75h3.257v13.175h-1.35V372.046h-1.908Z" transform="translate(-860.561 -332.47)" fill="#4dffff"/><path d="M894,370.75h3.257v13.175H895.9V372.046H894Z" transform="translate(-870.602 -332.47)" fill="#4dffff"/><path d="M910.138,370.75H913.4v13.175h-1.35V372.046h-1.908Z" transform="translate(-880.643 -332.47)" fill="#4dffff"/><path d="M931.9,368.417h1.062l-6.569,14.848h-1.062Z" transform="translate(-890.092 -331.019)" fill="#4dffff"/><path d="M953.066,370.036a4.7,4.7,0,0,1,4.788,4.805v3.96a4.788,4.788,0,1,1-9.575,0v-3.96A4.716,4.716,0,0,1,953.066,370.036Zm3.474,8.783v-4a3.474,3.474,0,1,0-6.947,0v4a3.474,3.474,0,1,0,6.947,0Z" transform="translate(-904.369 -332.026)" fill="#4dffff"/><path d="M987.969,379.818V381.1h-1.584v2.592h-1.278V381.1h-6.353V379.71l5.777-9.341h1.854v9.449Zm-7.847,0h4.985v-8.063Z" transform="translate(-923.326 -332.233)" fill="#4dffff"/><path d="M1013.893,368.417h1.062l-6.569,14.848h-1.062Z" transform="translate(-941.098 -331.019)" fill="#4dffff"/><path d="M1030.274,373.437a4.349,4.349,0,0,1,4.338-3.4c3.906,0,5.831,3.941,2.321,7.307-1.044,1.008-3.456,3.33-5,4.805h7.037v1.332h-8.657v-1.458l5.849-5.742c2.34-2.286,1.3-5.022-1.494-5.022a3.3,3.3,0,0,0-3.132,2.556Z" transform="translate(-955.375 -332.026)" fill="#4dffff"/><path d="M1067.536,379.818V381.1h-1.584v2.592h-1.277V381.1h-6.354V379.71l5.777-9.341h1.854v9.449Zm-7.848,0h4.986v-8.063Z" transform="translate(-972.822 -332.233)" fill="#4dffff"/><path d="M1100.341,369.134h4.626v1.332h-15.029v-1.332h8.819l1.1-1.908h1.584Zm-9.233,13.571V371.762h5.813V382.7h-1.332v-4.14h-3.167v4.14Zm4.481-9.647h-3.167v1.458h3.167Zm-3.167,4.211h3.167v-1.458h-3.167Zm3.2-8.477h-1.584l-.918-1.566h1.6Zm2.88,11.321v-7.6h1.35v7.6Zm3.87,2.592V371.618h1.386V382.7Z" transform="translate(-992.49 -330.278)" fill="#4dffff"/><path d="M1147.661,381.247h5.309v1.278h-6.695v-6.533h-1.8l-4.41,6.714h-1.638l4.409-6.714h-4.805v-1.35H1152.7v1.35h-5.039ZM1139.8,369.98v2.34h-1.368v-3.672h6.245v-1.422h1.368v1.422h6.245v3.672h-1.368v-2.34Zm10.115,2.88H1140.8v-1.332h9.107Z" transform="translate(-1022.407 -330.278)" fill="#4dffff"/><path d="M1199.893,373.889l-2.178,3.762,2.16,5.2H1198.4l-1.53-3.726-2,3.474h-1.6l2.934-5.076-2.592-6.245h-6.138v2.9h5.094l-.864,6.875h-3.384v-1.332h2.2l.522-4.194h-3.564v3.978l-1.224,3.348h-1.458l1.314-3.528v-9.4h6.948l-1.026-2.466h1.458l1.026,2.466h5.309v1.35h-4.751l1.98,4.77,1.26-2.16Zm-1.71-4.284h-1.494l-.882-2.142h1.494Z" transform="translate(-1051.495 -330.426)" fill="#4dffff"/><path d="M1264.687,364.75v.414a11.393,11.393,0,0,0,0,16.45v.414h-5.561V364.75Z" transform="translate(-1097.735 -328.738)" fill="#4dffff"/><path d="M1283.211,371.837v4.086l1.4-.792v1.62l-1.4.774v5.328h-1.35v-4.572l-1.692.954v-1.6l1.692-.954v-4.842h-1.692V370.47h1.692v-3.006h1.35v3.006h1.565v1.368Zm12.149,5.148h-4.715v.162l4.715,3.6v1.71l-4.715-3.6v4h-1.35v-3.906l-4.554,3.492v-1.71l4.554-3.474v-.27h-4.284v-1.278h4.284v-1.476h1.35v1.476h4.715Zm-8.964-7.847v2.556h-1.368V367.86h10.151v3.833h-1.386v-2.556h-2.214v3.726h3.546v1.26h-4.9v-4.986h-.378l-2.627,5.669h-1.512l2.628-5.669Z" transform="translate(-1110.825 -330.426)" fill="#4dffff"/><path d="M1343.181,369.89h-6.623V371.2h6.426v3.96h-1.4v-2.682h-11.429v2.682h-1.4V371.2h6.444V369.89h-6.641v-1.3h6.641v-1.368h1.368v1.368h6.623Zm-14.291,12.491,3.33-2.9h2.016l-3.33,2.9Zm9.917-6.191h1.62l2.376,3.33h-1.638l-.54-.774h-4.068v3.96h-1.4v-3.96h-5.724v-1.3h3.456l.666-.54-2.574-1.512,3.24-2.61h2.124l-3.114,2.52,1.332.774,2.718-2.2h2.124l-4.409,3.564h4.7Zm-1.512,3.294h2.016l3.33,2.9h-2.016Z" transform="translate(-1140.921 -330.278)" fill="#4dffff"/><path d="M1390.362,373.889l-2.178,3.762,2.16,5.2h-1.476l-1.529-3.726-2,3.474h-1.6l2.934-5.076-2.592-6.245h-6.137v2.9h5.093l-.864,6.875h-3.384v-1.332h2.2l.522-4.194h-3.563v3.978l-1.224,3.348h-1.458l1.314-3.528v-9.4h6.947l-1.026-2.466h1.458l1.026,2.466h5.31v1.35h-4.751l1.98,4.77,1.26-2.16Zm-1.71-4.284h-1.494l-.882-2.142h1.494Z" transform="translate(-1169.979 -330.426)" fill="#4dffff"/><path d="M1430.568,368.81v1.332h-7.6V368.81h3.186v-1.584h1.332v1.584Zm-7.451,12.833,1.4-3.78h1.422l-1.4,3.8Zm6.768-5.256h-2.394V382.7h-1.332v-6.318h-2.376v-5.363h6.1Zm-4.806-4.086v2.808h3.491V372.3Zm4.014,5.561,1.062,2.556h-1.44l-1.062-2.556Zm8.747-5.723h-4.3l-2.43,10.565h-1.35l2.411-10.565h-1.709v-1.278h2l.828-3.546h1.35l-.81,3.546h4.014Zm-2.97,9.107h3.33v1.278h-4.644v-9.287h1.314Zm2.34-10.673h-1.386l-.954-3.078h1.386Z" transform="translate(-1199.658 -330.278)" fill="#4dffff"/><path d="M1469.591,364.75h5.544v17.278h-5.544v-.414a11.433,11.433,0,0,0,0-16.45Z" transform="translate(-1228.657 -328.738)" fill="#4dffff"/><path d="M1533.284,373.885h-7.649l-1.278,1.152h7.019v7.523h-8.747v-5.975l-4.373,3.942v-1.818l5.363-4.824h-5.183v-1.368h5.8v-2.034H1520.4v-1.35h3.833v-1.908h1.4v1.908h2.664v.522l2.2-1.98h2.034l-5.381,4.841h6.137Zm-3.24,4.1v-1.6h-6.083v1.6Zm-6.083,3.222h6.083V379.3h-6.083Zm3.42-10.727h-1.746v1.584Z" transform="translate(-1258.93 -330.278)" fill="#4dffff"/><path d="M1188.463,468.75h3.257v13.175h-1.35V470.046h-1.908Z" transform="translate(-1053.778 -393.432)" fill="#4dffff"/><path d="M1183.8,569.437a4.24,4.24,0,0,1,4.337-3.4c3.906,0,5.832,3.942,2.322,7.307-1.044,1.008-3.456,3.33-5,4.805h7.037v1.332h-8.657v-1.458l5.85-5.742c2.339-2.286,1.3-5.022-1.494-5.022a3.3,3.3,0,0,0-3.132,2.556Z" transform="translate(-1050.875 -453.95)" fill="#4dffff"/><path d="M1190.008,670.281a3.736,3.736,0,0,1,2.358,3.4,3.943,3.943,0,0,1-4.3,3.923,4.646,4.646,0,0,1-4.7-3.384l1.206-.45a3.405,3.405,0,0,0,3.42,2.537c1.008,0,3.06-.414,3.06-2.537,0-2.394-2.178-2.808-3.348-2.808v-1.278c1.35,0,3.006-.5,3.006-2.2,0-1.71-1.764-2.16-2.682-2.16a3.759,3.759,0,0,0-3.276,1.746l-1.08-.72a4.931,4.931,0,0,1,4.355-2.322c2.3,0,4,1.566,4,3.4A2.836,2.836,0,0,1,1190.008,670.281Z" transform="translate(-1050.608 -514.913)" fill="#4dffff"/><path d="M1189.928,768.3a3.662,3.662,0,0,1,2.34,3.347c0,2.322-2.25,3.96-4.7,3.96s-4.68-1.638-4.68-3.96a3.7,3.7,0,0,1,2.322-3.347,3.123,3.123,0,0,1-1.728-2.79c0-2.034,1.98-3.474,4.085-3.474s4.086,1.44,4.086,3.474A3.033,3.033,0,0,1,1189.928,768.3Zm-2.358,6.173a2.859,2.859,0,1,0-3.15-2.844A3.015,3.015,0,0,0,1187.57,774.473Zm0-11.267a2.487,2.487,0,0,0-2.591,2.34,2.607,2.607,0,0,0,5.183,0A2.488,2.488,0,0,0,1187.57,763.206Z" transform="translate(-1050.312 -575.875)" fill="#4dffff"/><path d="M1154.891,863.438a4.349,4.349,0,0,1,4.338-3.4c3.906,0,5.832,3.942,2.322,7.307-1.044,1.008-3.456,3.33-5,4.805h7.037v1.332h-8.657v-1.458l5.85-5.742c2.34-2.286,1.3-5.022-1.494-5.022a3.3,3.3,0,0,0-3.132,2.556Z" transform="translate(-1032.894 -636.837)" fill="#4dffff"/><path d="M1186.8,865.238a4.138,4.138,0,0,1,4.193,4.194c0,2.142-1.35,4.554-4.968,4.59a4.725,4.725,0,0,1-4.517-3.42l1.277-.414a3.38,3.38,0,0,0,3.24,2.537c2.394,0,3.6-1.44,3.6-3.294a2.943,2.943,0,0,0-3.15-2.9,3.866,3.866,0,0,0-2.861,1.152h-1.3l.972-6.983h7.29v1.278h-6.191l-.558,4.1A4.782,4.782,0,0,1,1186.8,865.238Z" transform="translate(-1049.452 -637.252)" fill="#4dffff"/><path d="M1215.1,860.036a4.7,4.7,0,0,1,4.788,4.805v3.96a4.788,4.788,0,1,1-9.575,0v-3.96A4.716,4.716,0,0,1,1215.1,860.036Zm3.474,8.783v-4a3.474,3.474,0,1,0-6.947,0v4a3.474,3.474,0,1,0,6.947,0Z" transform="translate(-1067.373 -636.837)" fill="#4dffff"/><path d="M1160.011,958.75h3.257v13.175h-1.35V960.046h-1.907Z" transform="translate(-1036.079 -698.243)" fill="#4dffff"/><path d="M1180.939,958.036a4.7,4.7,0,0,1,4.788,4.805v3.96a4.788,4.788,0,1,1-9.575,0v-3.96A4.716,4.716,0,0,1,1180.939,958.036Zm3.474,8.783v-4a3.474,3.474,0,1,0-6.947,0v4a3.474,3.474,0,1,0,6.947,0Z" transform="translate(-1046.12 -697.799)" fill="#4dffff"/><path d="M1209.985,958.036a4.7,4.7,0,0,1,4.788,4.805v3.96a4.788,4.788,0,1,1-9.575,0v-3.96A4.716,4.716,0,0,1,1209.985,958.036Zm3.474,8.783v-4a3.474,3.474,0,1,0-6.947,0v4a3.474,3.474,0,1,0,6.947,0Z" transform="translate(-1064.188 -697.799)" fill="#4dffff"/></g><g transform="translate(677.488 153.91)"><path d="M2020.354,279.071h-1.494l-.666-.972V284.7h-1.314v-5.814l-2.142,3.132v-2.25l2.142-3.132V273.6h-2.142v-1.3h2.142v-2.988h1.314V272.3h1.746v1.3h-1.746v2.358Zm9.593,5.634h-1.692l-3.4-4.644-3.222,4.644h-1.656l3.942-5.67-2.087-2.861h1.583l1.4,1.926,1.566-2.268H2028L2025.79,279Zm-7.595-11.519h1.692l-3.852,4.661V275.8Zm7.541-1.926v1.3h-9.647v-1.3h4.139v-2.034h1.369v2.034Zm-3.906,1.926h1.746l2.2,2.592v2.052Z" transform="translate(-1875.151 -269.226)" fill="#4dffff"/><path d="M2063.5,270.226h14.363v14.795H2063.5Zm12.959,13.409V271.594H2064.9v12.041Zm-.486-8.531v1.188h-10.619V275.1h4.572v-.774h-3.761v-1.188h3.761v-1.26h1.26v1.26h4v1.188h-4v.774Zm-1.944,5h2.16l-1.836,1.26,1.638.882v1.314l-4.86-2.574v2.376h-1.3v-2.3l-4.211,2.232v-1.386l3.942-2.088h-3.15v-3.132h8.513v3.132h-2.754l-.378.2,1.332.7Zm-6.335-2.3v.9h5.921v-.9Z" transform="translate(-1905.483 -269.848)" fill="#4dffff"/><path d="M2116.387,280.511h-1.638l-1.134-1.35V284.7H2112.3v-7.163l-2.358,3.311V278.6l4.05-5.688h-4.067v-1.332h2.375v-2.358h1.314v2.358h2.916l-2.916,4.086v1.548l.648.774,1.17-1.656h1.6l-1.908,2.682Zm.288-10.367h8.153v14.381h-4.193v-1.314h2.754v-11.7h-1.3l-5.021,13.193h-1.494l5-13.193h-3.905Z" transform="translate(-1934.364 -269.226)" fill="#4dffff"/><path d="M2169.29,276.5l3.51,1.782v1.4l-2.826-1.44v4.931h-9.539v-4.914l-2.844,1.458v-1.368l3.636-1.854h-3.276v-1.079h4.427v-.684h-3.492v-1.008h3.492v-.684H2159.7v-1.08h2.682v-.576h1.3v.576h3.024v-.576h1.3v.576h2.7v1.08h-2.7v.684h3.492v1.008h-3.492v.684h4.446V276.5Zm-9.989-5.273v1.422h-1.314v-2.61h6.534v-.81h1.35v.81h6.533v2.61h-1.35v-1.422Zm-.576,13.481,1.8-1.242h2.34l-1.8,1.242Zm9.9-5.76v-.486h-6.875v.486Zm-6.875,1.08v.468h6.875v-.468Zm0,2.034h6.875v-.486h-6.875Zm.5-4.716h5.939l-1.655-.846h-2.628Zm1.421-4.3v.684h3.024v-.684Zm3.024,1.692h-3.024v.684h3.024Zm.792,8.73h2.394l1.8,1.242h-2.394Z" transform="translate(-1964.014 -269.226)" fill="#4dffff"/><path d="M1648.944,371.073l-.4,2.034h2.754v9.287h-2.879v-1.224h1.584V374.33h-1.692l-1.583,8.315h-1.3l2.214-11.573h-2.25v-1.224h2.358v-2.682h1.332v2.682h2.879v1.224Zm6.767-3.942,4.9,4.787v1.89l-4.823-4.716-4.1,4.77v-2.034Zm-2.754,12.563V378.2l6.263,2.915v1.494Zm.738-6.533,5,2.339v1.494l-5-2.34Z" transform="translate(-1645.398 -330.129)" fill="#4dffff"/><path d="M1691.158,370.75h3.258v13.175h-1.35V372.046h-1.908Z" transform="translate(-1673.864 -332.38)" fill="#4dffff"/><path d="M1707.3,370.75h3.258v13.175h-1.35V372.046H1707.3Z" transform="translate(-1683.905 -332.38)" fill="#4dffff"/><path d="M1723.442,370.75h3.257v13.175h-1.35V372.046h-1.908Z" transform="translate(-1693.946 -332.38)" fill="#4dffff"/><path d="M1745.2,368.417h1.062l-6.57,14.848h-1.062Z" transform="translate(-1703.395 -330.929)" fill="#4dffff"/><path d="M1766.37,370.036a4.7,4.7,0,0,1,4.787,4.805v3.96a4.788,4.788,0,1,1-9.575,0v-3.96A4.716,4.716,0,0,1,1766.37,370.036Zm3.474,8.783v-4a3.474,3.474,0,1,0-6.948,0v4a3.474,3.474,0,1,0,6.948,0Z" transform="translate(-1717.672 -331.936)" fill="#4dffff"/><path d="M1795.919,375.238a4.138,4.138,0,0,1,4.194,4.194c0,2.142-1.35,4.554-4.968,4.59a4.725,4.725,0,0,1-4.518-3.42l1.278-.414a3.38,3.38,0,0,0,3.24,2.538c2.394,0,3.6-1.44,3.6-3.294a2.943,2.943,0,0,0-3.15-2.9,3.866,3.866,0,0,0-2.861,1.152h-1.3l.972-6.983h7.289v1.278h-6.191l-.558,4.1A4.781,4.781,0,0,1,1795.919,375.238Z" transform="translate(-1735.74 -332.351)" fill="#4dffff"/><path d="M1825.053,368.417h1.062l-6.569,14.848h-1.062Z" transform="translate(-1753.068 -330.929)" fill="#4dffff"/><path d="M1841.435,373.437a4.349,4.349,0,0,1,4.338-3.4c3.906,0,5.832,3.941,2.322,7.307-1.044,1.008-3.456,3.33-5,4.805h7.037v1.332h-8.657v-1.458l5.85-5.742c2.34-2.286,1.3-5.022-1.494-5.022a3.3,3.3,0,0,0-3.132,2.556Z" transform="translate(-1767.345 -331.936)" fill="#4dffff"/><path d="M1872.984,369.7a4.6,4.6,0,0,1,4.643,4.41,6.523,6.523,0,0,1-1.062,2.934l-3.6,6.354h-1.494l3.042-5.327a3.821,3.821,0,0,1-1.926.45,4.348,4.348,0,0,1-4.536-4.23A4.693,4.693,0,0,1,1872.984,369.7Zm-.144,7.559a3.251,3.251,0,0,0,3.437-3.15,3.3,3.3,0,0,0-3.33-3.15,3.35,3.35,0,0,0-3.528,3.276C1869.421,376.218,1870.986,377.261,1872.841,377.261Z" transform="translate(-1783.903 -331.728)" fill="#4dffff"/><path d="M1909.6,369.134h4.625v1.332h-15.029v-1.332h8.819l1.1-1.908h1.584Zm-9.233,13.571V371.762h5.813V382.7h-1.332v-4.14h-3.168v4.14Zm4.481-9.647h-3.168v1.458h3.168Zm-3.168,4.211h3.168v-1.458h-3.168Zm3.2-8.477H1903.3l-.918-1.566h1.6Zm2.88,11.321v-7.6h1.35v7.6Zm3.87,2.592V371.618h1.386V382.7Z" transform="translate(-1803.275 -330.188)" fill="#4dffff"/><path d="M1960.695,379.812h-4.337v3.456h-1.314v-3.456h-5.993v-1.278h3.419l.18-.108-2.268-1.476,4.014-2.484h2.412l-4.032,2.5,1.1.7,3.492-2.16h2.429l-4.9,3.024h4.7l-1.188-1.386h1.746l2.844,3.33h-1.746Zm-11.609,3.06,2.934-2.34h2.106l-2.933,2.34Zm12.509-14.741V374.3h-11.771v-6.173Zm-6.569,1.3h-3.87v1.134h3.87Zm-3.87,2.412v1.17h3.87v-1.17Zm9.108-1.278v-1.134h-3.906v1.134Zm-3.906,2.448h3.906v-1.17h-3.906Zm.935,7.523h2.124l2.952,2.34h-2.124Z" transform="translate(-1834.288 -330.751)" fill="#4dffff"/><path d="M2001.125,370v1.35h-6.984V370Zm-.558-2.2v1.332H1994.7v-1.332Zm-.09,5.724h-5.688v-1.314h5.688Zm0,.864v1.332h-5.688v-1.332Zm-5.634,8.279v-6.029h5.724v6.029Zm1.35-4.751v3.492h3.042v-3.492Zm13.175-4.446v1.332h-3.528v8.046h-1.368v-8.046h-3.438v-1.332h3.438v-6.011h1.368v6.011Z" transform="translate(-1862.339 -330.336)" fill="#4dffff"/><path d="M2047.063,381.269h9.953V382.6h-10.475l-2.16-1.818-2.574,2.178v-1.746l2-1.674v-5.436h-2v-1.332h3.348v6.894Zm-2-10.331-2.988-1.1v-1.4l2.988,1.08Zm2.7-.108h-2.069v-1.224h2.106v-2.124h1.314v2.124h2.106v1.224h-2.177l-.324,1.656h2.142v7.775h-2.394v-1.08h1.152v-5.525H2048.5l-1.278,6.552h-1.277Zm9.251-1.26v1.224h-4.392l-.2.756h-1.314l1.044-4.086h1.314l-.522,2.106Zm-2.106,5.4h2.106v1.224H2054.6v4.068h-2.232v-1.17h1.008v-2.9h-2.25v-1.224h2.25v-1.656h.954l.216-.432h-2.9v-1.116h4.986Z" transform="translate(-1891.989 -330.336)" fill="#4dffff"/><path d="M2092.4,371.966v-.936h-1.26v8.459l-.81,3.005H2089l.845-3.1v-9.593h3.366v-2.628h1.332v.954h3.564v1.116h-3.564v.558h4.536l-.774,2.286h-1.332l.36-1.062h-3.69v.792l2.772-.342v1.1l-2.772.342v.522h4.373v1.044H2092.4v-1.4l-.99.108v-1.1Zm-1.134,3.852v-1.008h7.415v1.008Zm6.029,3.582-.54.972,1.422-.252v1.242l-6.875,1.152v-1.242l2.034-.342-.792-1.422h1.278l.684,1.224.81-.126.666-1.206Zm.468-3.257v3.078h-5.579v-3.078Zm-1.17,2.07v-1.044h-3.24v1.044Zm7.938-4.373-1.638,3.132,1.3,5.706h-1.332l-.882-3.924-1.872,3.582h-1.4l2.844-5.454-.828-3.654-2.3.576v-1.314l2.016-.5-1.062-4.7h1.332l.99,4.374,2.682-.666v1.314l-2.394.594.5,2.178.648-1.242Zm-.9-3.708h-1.3l-.612-2.7h1.3Z" transform="translate(-1921.344 -330.158)" fill="#4dffff"/><path d="M2140.3,375.653h1.53l-2.844,6.66h-1.512Zm1.044-4.751v1.656l-3.69-2.16v-1.656Zm11.519,11.951h-1.872l-4.176-4.626-4.158,4.626h-1.89l5.256-5.832V371.73h1.4v5.093Zm-8.6-12.059-1.26,2.969h-1.53l2.681-6.3h1.53l-.845,1.962h7.631l-1.548,4.428h-1.493l1.08-3.059Z" transform="translate(-1951.498 -330.336)" fill="#4dffff"/><path d="M2185.458,372.828v-1.746h-.846v-1.134h.846V368.2h2.808v-.738h1.242v.738h2.808v1.746h.828v1.134h-.828v1.746h-2.808v.522h3.24v3.2h-7.721v-3.2h3.24v-.522Zm6.947,5.741-3.042,1.494,2.664.936v1.278l-3.78-1.332-3.618,1.746V381.3l1.98-.972-1.242-.432.576-1.332h-1.314V377.4h1.836l.306-.684h1.44l-.324.684h5.273v1.17Zm-6.155-4.158v1.062h2.016v-1.062Zm.486-5.111v.648h1.53V369.3Zm0,2.43h1.53v-.648h-1.53Zm2.988,6.839h-2.358l-.342.792.648.216Zm1.314-9.269h-1.53v.648h1.53Zm0,2.43v-.648h-1.53v.648Zm.486,2.681h-2.016v1.062h2.016Zm8.477,8.442h-1.476l-2.3-5.292-2.16,5.292h-1.44l2.862-6.984-1.008-2.286-.234.846h-1.4l2-6.965h1.4l-.72,2.5h4.3v1.3h-.81l-1.962,4.805Zm-4.842-11.591-.432,1.494h.864l.684,1.548,1.242-3.042Z" transform="translate(-1980.823 -330.336)" fill="#4dffff"/><path d="M2237.388,381.287h10.1v1.35h-11l-1.98-2.826-.81,3.042h-1.4l1.89-7.073h1.4l-.648,2.376,1.08,1.548v-5.9h-3.744v-1.332h3.348v-1.89h-2.916v-1.332h2.916v-1.782h1.368v1.782h2.178v1.332h-2.178v1.89h2.61V373.8h-2.214v2.034h2.232v1.3h-2.232Zm2-6.767,3.221-5.183h-3.06v-1.3h7.343v6.21h-2.736v-1.224h1.422v-3.69h-1.422l-3.2,5.183Zm.612,6.1V374.79h6.767v5.831Zm1.35-4.553v3.276h4.05v-3.276Z" transform="translate(-2010.473 -330.336)" fill="#4dffff"/><path d="M2285.311,381.862h9.791v1.332h-10.313l-1.907-1.6-2.988,1.854V381.88l2.25-1.4V374.7h-2.25v-1.332h3.654v7.019Zm-1.476-11.591v1.4l-3.582-1.3v-1.422Zm2.34,5.165v5.8h-1.35v-7.073h1.512v-5.742h6.785v5.742h1.332v7.073h-1.386v-5.8Zm6.011,5.148H2287.2v-4.427h4.986Zm-4.553-10.907v4.482h1.386v-3.222h2.789v-1.26Zm.828,7.668v2.034h2.448v-2.034Zm1.8-3.186h1.548v-2.034h-1.548Z" transform="translate(-2040.094 -330.929)" fill="#4dffff"/><path d="M2332.295,376.281a3.736,3.736,0,0,1,2.358,3.4,3.943,3.943,0,0,1-4.3,3.923,4.645,4.645,0,0,1-4.7-3.384l1.206-.45a3.4,3.4,0,0,0,3.419,2.538c1.008,0,3.06-.414,3.06-2.538,0-2.394-2.178-2.808-3.348-2.808v-1.278c1.35,0,3.006-.5,3.006-2.2,0-1.71-1.764-2.16-2.682-2.16a3.76,3.76,0,0,0-3.276,1.746l-1.08-.72a4.931,4.931,0,0,1,4.355-2.322c2.3,0,4,1.566,4,3.4A2.836,2.836,0,0,1,2332.295,376.281Z" transform="translate(-2068.56 -331.936)" fill="#4dffff"/><path d="M2357.964,370.036a4.7,4.7,0,0,1,4.788,4.805v3.96a4.787,4.787,0,1,1-9.575,0v-3.96A4.716,4.716,0,0,1,2357.964,370.036Zm3.474,8.783v-4a3.474,3.474,0,1,0-6.947,0v4a3.474,3.474,0,1,0,6.947,0Z" transform="translate(-2085.681 -331.936)" fill="#4dffff"/><path d="M2387.334,375.653h1.53l-2.844,6.66h-1.512Zm1.044-4.751v1.656l-3.69-2.16v-1.656Zm11.519,11.951h-1.872l-4.175-4.626-4.158,4.626h-1.89l5.256-5.832V371.73h1.4v5.093Zm-8.6-12.059-1.26,2.969h-1.53l2.682-6.3h1.53l-.845,1.962h7.631l-1.548,4.428h-1.494l1.08-3.059Z" transform="translate(-2105.171 -330.336)" fill="#4dffff"/><path d="M2437.854,381.121h8.873v1.35h-9.683l-1.908-2.736-2.069,2.97h-1.656l3.671-5.238,1.836,2.61,6.354-9.053h-10.493v-1.332h5.669v-2.466h1.35v2.466h6.048Z" transform="translate(-2134.347 -330.188)" fill="#4dffff"/><path d="M2486.094,367.608l-1.872,4.626,1.368,8.783h-3.132v-1.224h1.656l-1.242-7.9,1.206-2.952h-1.89v13.913h-1.35V367.608Zm7.99,12.761-3.347-8.531-.936.594,4.067,10.385H2489.6v-1.278h2.375l-1.08-2.718-5.076,3.492v-1.6l4.59-3.167-.648-1.6-4,2.754v-1.6l3.509-2.43-.594-1.512-3.149,2v-1.584l3.941-2.52h-3.8v-1.278h5.472l1.6-2.3h1.62l-1.6,2.3h2.682v1.278h-3.474l-.108.072,1.242,3.132,2.358-1.62v1.6l-1.872,1.3,1.908,4.841Zm-4.211-10.835h-1.583l-1.458-2.07h1.6Z" transform="translate(-2165.094 -330.336)" fill="#4dffff"/><path d="M2531.293,367.464l-1.4,4.031v11.357h-1.278v-7.739l-.378,1.044h-1.349l3.059-8.693Zm9.2,13.823h1.62V382.6h-11.357v-1.314h2.124l1.746-6.641h-2.592v-1.331h2.951l1.008-3.852h-4.517v-1.314h10.151v1.314h-4.248l-1.008,3.852h4.122Zm-4.464-6.641-1.746,6.641h4.842v-6.641Z" transform="translate(-2193.738 -330.336)" fill="#4dffff"/><path d="M2099.452,468.75h3.257v13.175h-1.349V470.046h-1.908Z" transform="translate(-1927.848 -393.342)" fill="#4dffff"/><path d="M2094.785,569.437a4.24,4.24,0,0,1,4.338-3.4c3.906,0,5.831,3.942,2.322,7.307-1.044,1.008-3.455,3.33-5,4.805h7.037v1.332h-8.657v-1.458l5.849-5.742c2.34-2.286,1.3-5.022-1.494-5.022a3.3,3.3,0,0,0-3.132,2.556Z" transform="translate(-1924.945 -453.86)" fill="#4dffff"/><path d="M2101,670.281a3.736,3.736,0,0,1,2.357,3.4,3.943,3.943,0,0,1-4.3,3.923,4.646,4.646,0,0,1-4.7-3.384l1.206-.45a3.4,3.4,0,0,0,3.419,2.537c1.008,0,3.06-.414,3.06-2.537,0-2.394-2.177-2.808-3.348-2.808v-1.278c1.35,0,3.006-.5,3.006-2.2,0-1.71-1.764-2.16-2.682-2.16a3.76,3.76,0,0,0-3.276,1.746l-1.08-.72a4.932,4.932,0,0,1,4.355-2.322c2.3,0,4,1.566,4,3.4A2.837,2.837,0,0,1,2101,670.281Z" transform="translate(-1924.678 -514.823)" fill="#4dffff"/><path d="M2100.917,768.3a3.662,3.662,0,0,1,2.34,3.347c0,2.322-2.25,3.96-4.7,3.96s-4.68-1.638-4.68-3.96a3.7,3.7,0,0,1,2.322-3.347,3.123,3.123,0,0,1-1.728-2.79c0-2.034,1.98-3.474,4.086-3.474s4.085,1.44,4.085,3.474A3.033,3.033,0,0,1,2100.917,768.3Zm-2.358,6.173a2.859,2.859,0,1,0-3.15-2.844A3.015,3.015,0,0,0,2098.56,774.473Zm0-11.267a2.487,2.487,0,0,0-2.592,2.34,2.607,2.607,0,0,0,5.183,0A2.487,2.487,0,0,0,2098.56,763.206Z" transform="translate(-1924.382 -575.785)" fill="#4dffff"/><path d="M2065.881,863.438a4.349,4.349,0,0,1,4.337-3.4c3.906,0,5.832,3.942,2.322,7.307-1.044,1.008-3.456,3.33-5,4.805h7.037v1.332h-8.657v-1.458l5.85-5.742c2.34-2.286,1.3-5.022-1.494-5.022a3.3,3.3,0,0,0-3.132,2.556Z" transform="translate(-1906.965 -636.747)" fill="#4dffff"/><path d="M2097.79,865.238a4.138,4.138,0,0,1,4.194,4.194c0,2.142-1.35,4.554-4.968,4.59a4.725,4.725,0,0,1-4.518-3.42l1.278-.414a3.38,3.38,0,0,0,3.24,2.537c2.394,0,3.6-1.44,3.6-3.294a2.943,2.943,0,0,0-3.15-2.9,3.866,3.866,0,0,0-2.861,1.152h-1.3l.972-6.983h7.289v1.278h-6.191l-.558,4.1A4.781,4.781,0,0,1,2097.79,865.238Z" transform="translate(-1923.522 -637.162)" fill="#4dffff"/><path d="M2126.093,860.036a4.7,4.7,0,0,1,4.788,4.805v3.96a4.788,4.788,0,1,1-9.575,0v-3.96A4.716,4.716,0,0,1,2126.093,860.036Zm3.474,8.783v-4a3.474,3.474,0,1,0-6.947,0v4a3.474,3.474,0,1,0,6.947,0Z" transform="translate(-1941.443 -636.747)" fill="#4dffff"/><path d="M2071,958.75h3.257v13.175h-1.349V960.046H2071Z" transform="translate(-1910.149 -698.153)" fill="#4dffff"/><path d="M2091.928,958.036a4.7,4.7,0,0,1,4.788,4.805v3.96a4.788,4.788,0,1,1-9.575,0v-3.96A4.716,4.716,0,0,1,2091.928,958.036Zm3.474,8.783v-4a3.474,3.474,0,1,0-6.947,0v4a3.474,3.474,0,1,0,6.947,0Z" transform="translate(-1920.19 -697.709)" fill="#4dffff"/><path d="M2120.974,958.036a4.7,4.7,0,0,1,4.788,4.805v3.96a4.788,4.788,0,1,1-9.575,0v-3.96A4.717,4.717,0,0,1,2120.974,958.036Zm3.474,8.783v-4a3.474,3.474,0,1,0-6.947,0v4a3.474,3.474,0,1,0,6.947,0Z" transform="translate(-1938.258 -697.709)" fill="#4dffff"/></g><rect width="906.572" height="24.92" rx="12.46" transform="translate(124.975 224.022)" fill="#4dffff" opacity="0.2" style="mix-blend-mode:screen;isolation:isolate"/><rect width="906.572" height="24.92" rx="12.46" transform="translate(124.975 296.777)" fill="#4dffff" opacity="0.2" style="mix-blend-mode:screen;isolation:isolate"/><rect width="906.572" height="24.92" rx="12.46" transform="translate(124.975 371.25)" fill="#4dffff" opacity="0.2" style="mix-blend-mode:screen;isolation:isolate"/><g transform="translate(130.673 153.91)"><path d="M440.034,276.5l3.509,1.782v1.4l-2.825-1.44v4.931h-9.539v-4.914l-2.844,1.458v-1.368l3.636-1.854H428.7v-1.079h4.428v-.684h-3.492v-1.008h3.492v-.684h-2.681v-1.08h2.681v-.576h1.3v.576h3.023v-.576h1.3v.576h2.7v1.08h-2.7v.684h3.491v1.008h-3.491v.684h4.445V276.5Zm-9.989-5.273v1.422h-1.314v-2.61h6.533v-.81h1.35v.81h6.533v2.61H441.8v-1.422Zm-.576,13.481,1.8-1.242h2.34l-1.8,1.242Zm9.9-5.76v-.486h-6.875v.486Zm-6.875,1.08v.468h6.875v-.468Zm0,2.034h6.875v-.486h-6.875Zm.5-4.716h5.939l-1.656-.846h-2.628Zm1.422-4.3v.684h3.023v-.684Zm3.023,1.692h-3.023v.684h3.023Zm.792,8.73h2.394l1.8,1.242h-2.394Z" transform="translate(-341.494 -269.226)" fill="#4dffff"/><path d="M481.2,272.992v2.088h3.6v1.3h-3.6v1.3h2.844v6.083h-1.35v-4.805H481.2v5.9h-1.35v-5.9h-1.512v4.805H477v-6.083h2.844v-1.3h-3.941v-1.3h3.941v-2.088h-1.98l-.522,1.278h-1.422l1.764-4.391h1.44l-.738,1.818h1.458v-2.232h1.35V271.7h2.61v1.3Zm4.32,8.909V270.6h1.368v11.3Zm3.492-12.437h1.4v15.389h-1.4Z" transform="translate(-371.085 -269.374)" fill="#4dffff"/><path d="M384.21,367.464V370.4h1.476v1.332H384.21v3.726l1.458-.774v1.494l-1.458.792v5.886h-1.386v-5.13l-2.106,1.134v-1.512l2.106-1.134V371.73h-2.106V370.4h2.106v-2.934Zm7.4,3.078h3.906v12.095h-9.107V370.542h3.852v-3.078h1.35Zm-1.35,1.332h-2.52v3.51h2.52Zm-2.52,4.824v4.625h2.52V376.7Zm6.425-4.824h-2.556v3.51h2.556Zm-2.556,9.449h2.556V376.7h-2.556Z" transform="translate(-311.873 -330.336)" fill="#4dffff"/><path d="M428.5,377.071l1.35-3.293h-1.512v-1.17H431.5v-.936h-2.574v-3.816h1.242v2.7H431.5v-3.33h1.278v10.1H431.5v-3.545H431.2l-1.35,3.293Zm8.063,1.836v.288l6.894,2.142v1.386l-7.578-2.358-7.451,2.322v-1.368l6.839-2.124v-.288H428.5v-1.278h6.767v-.954h1.3v.954h2.232l-1.026-1.026h1.566l1.026,1.026h3.024v1.278Zm4.914-6.245h2.07v1.26h-2.07v3.4h-1.35v-3.4h-6.983v-1.26h6.983v-1.656h1.35Zm-1.44-3.636h-4.121l-2.592,1.566v-1.44l3.2-1.926H438.9l-1.134.684h4.805v1.08l-5.634,3.492h-2.484l.936-.576-1.152-1.368.972-.576,1.152,1.35.468-.306-1.152-1.332.972-.594,1.152,1.332Zm-2.178,7.217h-1.8l-1.872-1.89h1.8Z" transform="translate(-341.494 -330.188)" fill="#4dffff"/><path d="M480.46,371.334v1.494l-4.031,2.214v-1.494Zm-.18-2.3v1.314l-3.689-1.044v-1.332Zm-3.2,13.823,2.322-1.62h2.376l-2.3,1.62Zm9.233-11.267,4.931,1.728v1.422l-5.6-1.98L482.1,374h6.947v6.858H478.661V374h2.43v-1.044L485,371.586v-1.728h1.314Zm1.386,4.265v-.684h-7.7v.684Zm-7.7,1.17v.684h7.7v-.684Zm0,2.664h7.7v-.81h-7.7Zm3.456-10.079-.648,1.08h-1.584l1.944-3.222h1.584l-.54.9h6.911l-1.206,2.52h-1.494l.612-1.278ZM486,381.233H488.4l2.3,1.62h-2.394Z" transform="translate(-371.411 -330.336)" fill="#4dffff"/><path d="M526.864,371.478v3.15l1.638,2.484h-1.4l-.234-.36v6.1h-1.332v-5.562l-1.962,3.222v-2.43l1.962-3.222v-3.384H523.57v-1.3h1.962v-2.718h1.332v2.718H528.5v1.3Zm11.915,5.418v1.692l-1.764-1.4v5.544h-7.163v-5.615l-1.35,1.062v-1.656l3.87-3.1-1.962-1.548-1.71,1.6v-1.782l4.482-4.23h1.89l-1.674,1.6h4.175v1.854l-3.132,2.5Zm-8.477-.144h6.174l-3.1-2.466Zm5.381,4.68v-3.384H531.2v3.384Zm-3.671-11.069-.666.63,2,1.584,2.754-2.214Z" transform="translate(-400.736 -330.336)" fill="#4dffff"/><path d="M250.59,481.688l-1.44-3.222h-7.163l-1.458,3.222h-1.422l5.976-13.319h.972l5.976,13.319Zm-8.027-4.536h5.993l-2.988-6.66Z" transform="translate(-223.782 -393.105)" fill="#4dffff"/><path d="M282.347,479.322a4.55,4.55,0,0,1,4.572,4.662,4.608,4.608,0,0,1-4.553,4.643,4.245,4.245,0,0,1-3.6-1.89v5.993h-1.278V479.448h1.278v1.782A4.316,4.316,0,0,1,282.347,479.322Zm.018,8.027a3.375,3.375,0,0,0,0-6.749,3.376,3.376,0,1,0,0,6.749Z" transform="translate(-247.657 -399.919)" fill="#4dffff"/><path d="M312.44,479.322a4.55,4.55,0,0,1,4.572,4.662,4.608,4.608,0,0,1-4.553,4.643,4.245,4.245,0,0,1-3.6-1.89v5.993h-1.278V479.448h1.278v1.782A4.316,4.316,0,0,1,312.44,479.322Zm.018,8.027a3.375,3.375,0,0,0,0-6.749,3.376,3.376,0,1,0,0,6.749Z" transform="translate(-266.377 -399.919)" fill="#4dffff"/><path d="M338.988,481.688h-1.314V468.369h1.314Z" transform="translate(-285.097 -393.105)" fill="#4dffff"/><path d="M353.672,486.126l.936.882a5.635,5.635,0,0,1-3.762,1.62,4.561,4.561,0,0,1-4.553-4.572,4.446,4.446,0,1,1,8.873,0v.54h-7.523a3.251,3.251,0,0,0,3.2,2.736A3.957,3.957,0,0,0,353.672,486.126Zm-2.88-5.579a3.022,3.022,0,0,0-3.15,2.808h6.173A2.913,2.913,0,0,0,350.793,480.546Z" transform="translate(-290.458 -399.919)" fill="#4dffff"/><path d="M389.956,470.943h-1.332v-2.574h1.332Zm0,10.745h-1.332v-9.053h1.332Z" transform="translate(-316.791 -393.105)" fill="#4dffff"/><path d="M403.974,468.369a3.825,3.825,0,0,1,4.032,3.924v.018a3.825,3.825,0,0,1-4.032,3.924h-3.887v5.454h-1.368V468.369Zm2.538,3.942v-.018a2.5,2.5,0,0,0-2.592-2.592h-3.833v5.2h3.833A2.5,2.5,0,0,0,406.512,472.31Z" transform="translate(-323.071 -393.105)" fill="#4dffff"/><path d="M434.518,479.448H435.8V488.5h-1.278v-1.71a4.344,4.344,0,0,1-3.366,1.836,4.654,4.654,0,0,1-.126-9.305A4.045,4.045,0,0,1,434.518,481Zm-3.51,7.9a3.376,3.376,0,1,0-3.276-3.384A3.32,3.32,0,0,0,431.009,487.349Z" transform="translate(-340.369 -399.919)" fill="#4dffff"/><path d="M464.183,468.369h1.278v13.319h-1.278v-1.71a4.344,4.344,0,0,1-3.366,1.836,4.663,4.663,0,0,1-.126-9.323,4.013,4.013,0,0,1,3.492,1.692Zm-3.51,12.167a3.385,3.385,0,1,0-3.276-3.384A3.32,3.32,0,0,0,460.674,480.536Z" transform="translate(-358.823 -393.105)" fill="#4dffff"/><path d="M510.1,481.688l-1.44-3.222H501.5l-1.458,3.222h-1.422l5.976-13.319h.972l5.976,13.319Zm-8.027-4.536h5.993l-2.988-6.66Z" transform="translate(-385.214 -393.105)" fill="#4dffff"/><path d="M538.329,470.943H537v-2.574h1.332Zm0,10.745H537v-9.053h1.332Z" transform="translate(-409.088 -393.105)" fill="#4dffff"/><path d="M551.825,479.322h.162l-.72,1.35a3.823,3.823,0,0,0-2.862,2.772V488.5h-1.314v-9.053h1.314v1.53A4.212,4.212,0,0,1,551.825,479.322Z" transform="translate(-415.368 -399.919)" fill="#4dffff"/><path d="M571.25,471.448a10.58,10.58,0,0,0,3.456,8.3l-.342.306a10.522,10.522,0,0,1,0-17.206l.342.306A10.58,10.58,0,0,0,571.25,471.448Z" transform="translate(-429.556 -389.669)" fill="#4dffff"/><path d="M590.414,472.995a4.348,4.348,0,0,1,4.536,4.229,4.693,4.693,0,0,1-4.931,4.59c-2.07,0-4.644-1.44-4.644-4.229a6.143,6.143,0,0,1,1.062-3.114l3.474-6.1h1.476l-2.9,5.076A3.821,3.821,0,0,1,590.414,472.995Zm-.36,7.559a3.35,3.35,0,0,0,3.528-3.276c0-1.98-1.566-3.023-3.42-3.023a3.25,3.25,0,0,0-3.438,3.149A3.3,3.3,0,0,0,590.055,480.554Z" transform="translate(-439.182 -393.105)" fill="#4dffff"/><path d="M625.065,477.818V479.1h-1.584v2.592H622.2V479.1H615.85V477.71l5.777-9.341h1.854v9.449Zm-7.847,0H622.2v-8.063Z" transform="translate(-458.14 -393.105)" fill="#4dffff"/><path d="M657.384,471.384a4.721,4.721,0,0,0-4.158-2.052c-3.15,0-5.094,2.61-5.094,5.526a5.292,5.292,0,0,0,5.183,5.507,5.133,5.133,0,0,0,4.914-3.618v-.576H654v-1.314h5.508v2.106a6.412,6.412,0,0,1-6.245,4.716c-3.636,0-6.461-3.042-6.461-7a6.543,6.543,0,0,1,6.461-6.641,6.336,6.336,0,0,1,5.075,2.484Z" transform="translate(-477.393 -392.898)" fill="#4dffff"/><path d="M688.082,471.448a10.593,10.593,0,0,0-3.474-8.3l.342-.306a10.522,10.522,0,0,1,0,17.206l-.342-.306A10.593,10.593,0,0,0,688.082,471.448Z" transform="translate(-500.912 -389.669)" fill="#4dffff"/><path d="M210.041,579.688l-1.44-3.222h-7.163l-1.458,3.222h-1.422l5.976-13.319h.972l5.976,13.319Zm-8.027-4.536h5.993l-2.988-6.66Z" transform="translate(-198.558 -454.068)" fill="#4dffff"/><path d="M241.69,577.322a4.786,4.786,0,0,1,3.42,1.44l-.954.882a3.617,3.617,0,0,0-2.466-1.08,3.445,3.445,0,0,0-3.438,3.42,3.485,3.485,0,0,0,3.474,3.4,3.32,3.32,0,0,0,2.412-1.08l.954.9a4.7,4.7,0,1,1-3.4-7.883Z" transform="translate(-222.433 -460.881)" fill="#4dffff"/><path d="M269.459,584.126l.936.882a5.634,5.634,0,0,1-3.762,1.62,4.561,4.561,0,0,1-4.553-4.572,4.446,4.446,0,1,1,8.873,0v.54H263.43a3.251,3.251,0,0,0,3.2,2.736A3.957,3.957,0,0,0,269.459,584.126Zm-2.88-5.579a3.022,3.022,0,0,0-3.15,2.808H269.6A2.913,2.913,0,0,0,266.58,578.546Z" transform="translate(-238.073 -460.881)" fill="#4dffff"/><path d="M295.431,577.322h.162l-.72,1.35a3.823,3.823,0,0,0-2.862,2.772V586.5H290.7v-9.053h1.314v1.53A4.213,4.213,0,0,1,295.431,577.322Z" transform="translate(-255.875 -460.881)" fill="#4dffff"/><path d="M333.284,566.574h4.284v11.915H323.6V566.574h4.3v-3.348h1.35v3.348h2.682v-3.348h1.35Zm-5.381,1.332h-2.916v3.528H327.9Zm-2.916,4.859v4.409H327.9v-4.409Zm6.948-4.859h-2.682v3.528h2.682Zm0,4.859h-2.682v4.409h2.682Zm4.248-4.859h-2.9v3.528h2.9Zm-2.9,9.269h2.9v-4.409h-2.9Z" transform="translate(-276.343 -452.112)" fill="#4dffff"/><path d="M384.86,565.671h-6.875l-1.458,2.448h7.649v11.087H370.587V568.119h4.373l1.458-2.448h-6.533v-1.35H384.86Zm-12.923,3.762v8.459h2.592v-8.459Zm6.948,1.836v-1.836h-3.1v1.836Zm0,3.113V572.51h-3.1v1.872Zm-3.1,1.26v2.25h3.1v-2.25Zm7.019,2.25v-8.459h-2.646v8.459Z" transform="translate(-305.134 -452.794)" fill="#4dffff"/><path d="M424.829,563.083l7.6,5.183v1.674l-7.613-5.2-7.6,5.238v-1.656Zm.594,10.6v3.33h6.749v1.332H417.45v-1.332h6.569v-3.33h-4.751v-1.332h4.751v-2.7h-3.96V568.3h9.521v1.35h-4.157v2.7h4.949v1.332Z" transform="translate(-334.577 -452.023)" fill="#4dffff"/><path d="M473.705,564.42h6.569v1.35H465.786v-1.35h6.569v-1.242h1.35Zm-7.523,14.255v-7.487h13.679v7.487h-1.386v-6.192H467.568v6.192Zm2.627-12.167h8.423v3.942H468.81Zm.648,10.8v-3.942h7.128v3.942Zm6.443-8.081v-1.494h-5.759v1.494Zm-5.13,5.382v1.44h4.5v-1.44Z" transform="translate(-364.791 -452.083)" fill="#4dffff"/><path d="M516.086,568.841v1.476l-3.636-1.782V567.06Zm-3.564,9.863,3.024-7.073h1.476L514,578.7Zm3.366-13.823v1.476l-3.078-1.512V563.37Zm7.019,3.851h4.752v1.224H516.77v-1.224h4.77v-.9h-3.672V566.61h3.672v-.9h-4.067v-1.224h4.067v-1.26h1.368v1.26h4.05v1.224h-4.05v.9h3.654v1.224h-3.654Zm-4.679,9.972v-8.171h7.991V578.7h-1.314v-2.322h-5.364V578.7Zm6.677-6.894h-5.364v1.044h5.364Zm-5.364,3.312h5.364v-1.008h-5.364Z" transform="translate(-393.819 -452.112)" fill="#4dffff"/><path d="M567.922,566.99h-5.076v2.952H561.5v-4.175h6.426v-.738H562.09V563.75h12.923v1.278H569.2v.738h6.408v4.175h-1.35V566.99H569.2V571h-1.278Zm8.243,10.709v1.224h-8.243V577h-4.968v-5.759h11.213V577H569.2v.7Zm-8.783-9.017H563.35v-1.17h4.031Zm-4.031.576h4.031v1.17H563.35Zm.9,3.168v1.08h3.672v-1.08Zm3.672,3.366v-1.08H564.25v1.08Zm4.914-3.366H569.2v1.08h3.636Zm0,3.366v-1.08H569.2v1.08Zm.918-7.109h-4.032v-1.17h4.032Zm-4.032.576h4.032v1.17h-4.032Z" transform="translate(-424.328 -452.438)" fill="#4dffff"/><path d="M614.711,576.6l-3.347,1.692v-4.284h-.27l-2.142,4.842h-1.458l2.16-4.842h-1.53v-4.284h5.9v4.284h-1.386v2.214l2.07-1.044Zm-.144-8.441v1.188h-7v-1.188h3.672l.756-2.07h1.314l-.756,2.07Zm-.45-3.51v1.188h-6.1v-1.188h2.394v-1.188h1.3v1.188Zm-4.734,3.258-.666-1.818H610l.666,1.818Zm.018,3.042v1.836h3.33v-1.836Zm11,6.462h2.376v1.26h-3.708v-4.662h-.4l-2.736,4.842h-1.512l2.718-4.842h-1.332v-4.284h6.228v4.284H620.4Zm2.358-9.251v1.188h-7.668v-1.188H619.3l.756-2.07h1.3l-.738,2.07Zm-.486-3.51v1.188h-6.7v-1.188h2.7v-1.188h1.3v1.188Zm-5.112,3.258-.666-1.818h1.278l.666,1.818Zm-.072,3.042v1.836h3.636v-1.836Z" transform="translate(-452.942 -452.26)" fill="#4dffff"/><path d="M662.366,568.607l-2.772-.99-3.815,1.026V567.33l3.042-.828v-3.276h1.332v3.294l2.214.792Zm-5.075,1.422v1.692h-1.35v-2.988h14.507v2.988H669.1V570.03Zm1.224-3.906h-1.386l-1.116-2.07H657.4Zm8.225,9.557h1.6l2.124,3.024h-1.6l-.738-1.044-12.041.7v-1.278l6.281-.36v-1.368h-4.68v-4.05h4.68v-1.044h1.35v1.044h5v4.05h-5v1.278l3.546-.2Zm-7.722-1.566h3.348v-1.548h-3.348Zm4.086-10.061-1.35,2.07h-1.476l1.368-2.07Zm3.078,2.07h-1.458l-1.368-2.07h1.476Zm1.206,6.443h-3.672v1.548h3.672Zm.18-6.047,3.024.864v1.332l-3.672-1.062-3.078,1.008v-1.35l2.412-.774v-3.311h1.314Zm2.9-2.466-1.35,2.07H667.64l1.332-2.07Z" transform="translate(-482.978 -452.112)" fill="#4dffff"/><path d="M718.129,574.583v1.476l-2.988-1.8v3.6h-1.314v-2.52h-2.664V578.7h-1.278v-3.366h-2.7v2.52h-1.278v-3.689l-2.988,2.051v-1.548l2.412-1.656H703.01v-1.278H707.2l.918-.612H705.26v-4.841h10.511v4.841h-5.4l-.9.612h8.567v1.278h-2.484Zm-10.511-8.477v-.81H703.1v-1.278h4.517v-.792h1.332v.792h3.132v-.792h1.332v.792h4.536V565.3h-4.536v.81h-1.332v-.81h-3.132v.81Zm3.546,7.991h3.69l-1.764-1.08H707.6l-1.566,1.08h3.852v-.9h1.278Zm3.276-6.587h-7.847v.612h7.847Zm-7.847,1.782v.612h7.847v-.612Z" transform="translate(-512.303 -452.112)" fill="#4dffff"/><path d="M213.359,673.669h1.35l1.368,2.214h-1.44l-1.278-2.052v3.348h-1.3V673.4l-1.368,3.42h-1.35l1.44-3.564h1.278v-.828h-2.682V671.2h1.566l.558-.774-1.907-1.692,1.638-2.34h1.548l-1.512,2.16.954.846,1.692-2.43h1.53l-2.97,4.23H213.9l-.414-1.008h1.35l1.1,2.7h-1.35l-.2-.468h-1.026ZM224.1,661.988v4.175H209.849v-4.175Zm-12.923,1.224v1.728h3.114v-1.728Zm10.061,12.743h3.276v1.224H216.67V670.9h-1.494l3.149-4.5h1.656l-1.17,1.674h1.224l1.17-1.674h1.656l-1.17,1.674h2.718V669.3h-3.167v1.314h2.627V671.8h-2.627v1.332h2.627v1.188h-2.627Zm-2.9-12.743h-2.736v1.728h2.736Zm1.53,7.4V669.3h-1.818v1.314Zm0,2.52V671.8h-1.818v1.332Zm-1.818,1.188v1.638h1.818v-1.638Zm4.734-9.377v-1.728h-3.132v1.728Z" transform="translate(-205.268 -513.549)" fill="#4dffff"/><path d="M260.045,661.464v3.2h1.6V666h-1.6v3.708l1.494-.828v1.548l-1.494.828v5.6h-1.35v-4.86l-1.638.918v-1.548l1.638-.918V666h-1.638v-1.332h1.638v-3.2Zm12.383,15.389h-1.944l-3.636-3.528-3.312,3.528h-1.872l4.14-4.41-3.384-3.276h1.908l2.448,2.376,2.862-3.042h-7.344v-1.35h4v-2.376h-4.428v-1.332h4.428v-1.98h1.368v1.98h4.607v1.332h-4.607v2.376h3.906v1.314l-3.708,3.942Z" transform="translate(-234.948 -513.223)" fill="#4dffff"/><path d="M328.543,667.384a4.722,4.722,0,0,0-4.158-2.052c-3.15,0-5.093,2.61-5.093,5.526a5.292,5.292,0,0,0,5.183,5.507,5.132,5.132,0,0,0,4.914-3.618v-.576h-4.229v-1.314h5.507v2.106a6.412,6.412,0,0,1-6.245,4.716c-3.636,0-6.461-3.042-6.461-7a6.543,6.543,0,0,1,6.461-6.641,6.337,6.337,0,0,1,5.076,2.484Z" transform="translate(-272.834 -514.823)" fill="#4dffff"/><path d="M362.012,669.238a4.138,4.138,0,0,1,4.194,4.194c0,2.142-1.35,4.554-4.968,4.59a4.725,4.725,0,0,1-4.518-3.419l1.277-.414a3.38,3.38,0,0,0,3.24,2.537c2.394,0,3.6-1.44,3.6-3.294a2.943,2.943,0,0,0-3.15-2.9,3.868,3.868,0,0,0-2.862,1.152h-1.3l.972-6.983h7.289v1.278H359.6l-.558,4.1A4.782,4.782,0,0,1,362.012,669.238Z" transform="translate(-296.945 -515.237)" fill="#4dffff"/><path d="M390.315,664.036a4.7,4.7,0,0,1,4.788,4.805v3.96a4.788,4.788,0,1,1-9.575,0v-3.96A4.716,4.716,0,0,1,390.315,664.036Zm3.474,8.783v-4a3.474,3.474,0,1,0-6.948,0v4a3.474,3.474,0,1,0,6.948,0Z" transform="translate(-314.865 -514.823)" fill="#4dffff"/><path d="M414.574,667.437a4.349,4.349,0,0,1,4.338-3.4c3.906,0,5.831,3.941,2.322,7.307-1.044,1.008-3.456,3.33-5,4.805h7.037v1.332H414.61v-1.458l5.849-5.742c2.34-2.286,1.3-5.022-1.494-5.022a3.3,3.3,0,0,0-3.132,2.556Z" transform="translate(-332.934 -514.823)" fill="#4dffff"/><path d="M469.2,667.062h2.736v1.332H469.2v2.988h2v1.3H457.47v-1.3h2v-2.988h-2.754v-1.332h2.754v-2.376l-.756,1.224h-1.638l2.7-4.446h1.638l-.738,1.224h10.259v1.3H469.2Zm-12.437,9.791,2.322-3.672h1.638l-2.322,3.672Zm4.014-12.869v3.078h1.494v-3.078Zm0,4.41v2.988h1.494v-2.988Zm1.224,4.932h1.548l1.926,3.492h-1.53Zm1.584-6.264h1.494v-3.078h-1.494Zm1.494,1.332h-1.494v2.988h1.494Zm.162,4.932h1.548l1.926,3.492h-1.53Zm2.646-6.264v-3.078H466.4v3.078Zm0,4.319v-2.988H466.4v2.988Zm.558,1.944H470l1.944,3.528h-1.548Z" transform="translate(-359.147 -513.223)" fill="#4dffff"/><path d="M510.7,674.707h-1.386l-1.116-2.61V676.7h-1.35v-4.842l-1.026,4.121h-1.368l1.206-4.841h1.188v-1.494h-2.466v-1.26h1.332l.828-1.512-2.16-1.836,2.016-3.726h1.494L506,664.754l1.17.99,1.728-3.167h1.476l-3.168,5.813h1.71l-.4-1.548h1.368l.936,3.636h-1.368l-.216-.828h-1.044V671.7h1.224Zm8.873,1.6h-1.494l-2.448-3.96v4.3H513.18v-1.17h1.17v-4.158l-2.5,4.986h-1.422l2.322-4.626h-2v-1.17h3.6v-1.368h1.278v.936l1.008,1.638,1.3-1.8h1.512l-2.052,2.862Zm-1.008-13.877v6.588h-7v-6.588h2.2l.5-1.206h1.4l-.5,1.206Zm-1.26,1.278H512.82v1.26H517.3Zm-4.482,4.031H517.3v-1.494H512.82Z" transform="translate(-388.798 -513.075)" fill="#4dffff"/><path d="M559.851,664.99h-5.076v2.952h-1.35v-4.176h6.426v-.738h-5.832V661.75h12.923v1.278h-5.813v.738h6.408v4.176h-1.35V664.99h-5.058V669h-1.278Zm8.243,10.709v1.224h-8.243V675h-4.968v-5.759H566.1V675h-4.967v.7Zm-8.783-9.017h-4.032v-1.17h4.032Zm-4.032.576h4.032v1.17h-4.032Zm.9,3.168v1.08h3.672v-1.08Zm3.672,3.365v-1.08h-3.672v1.08Zm4.914-3.365h-3.636v1.08h3.636Zm0,3.365v-1.08h-3.636v1.08Zm.918-7.109H561.65v-1.17h4.031Zm-4.031.576h4.031v1.17H561.65Z" transform="translate(-419.308 -513.401)" fill="#4dffff"/><path d="M606.64,674.6l-3.348,1.692v-4.284h-.27l-2.142,4.842h-1.458l2.16-4.842h-1.53v-4.284h5.9v4.284H604.57v2.214l2.07-1.044Zm-.144-8.441v1.188h-7v-1.188h3.672l.756-2.07h1.314l-.756,2.07Zm-.45-3.51v1.188h-6.1v-1.188h2.394v-1.188h1.3v1.188Zm-4.734,3.258-.666-1.818h1.278l.666,1.818Zm.018,3.042v1.836h3.33v-1.836Zm11,6.462H614.7v1.26H611v-4.662h-.4l-2.736,4.842h-1.512l2.718-4.842h-1.332v-4.284h6.228v4.284h-1.638Zm2.358-9.251v1.188h-7.667v-1.188h4.212l.756-2.07h1.3l-.738,2.07Zm-.486-3.51v1.188h-6.7v-1.188h2.7v-1.188h1.3v1.188Zm-5.111,3.258-.666-1.818H609.7l.666,1.818Zm-.072,3.042v1.836h3.636v-1.836Z" transform="translate(-447.921 -513.223)" fill="#4dffff"/><path d="M647.231,677.3l2.5-6.66h1.476l-2.52,6.66Zm3.528-10.205V668.6l-3.384-1.584v-1.512Zm.054-3.491v1.512l-2.988-1.4v-1.494Zm9.629,3.221h1.89v3.654h-1.35v-2.483h-8.441v2.483h-1.35v-3.654h1.872v-4.644h7.379ZM653.476,677.3V668.64H660.1V677.3h-1.386v-2.61h-3.923v2.61Zm.936-13.841v3.365h1.494v-2.61h3.186v-.756Zm4.3,6.5h-3.923v1.08h3.923Zm-3.923,3.455h3.923v-1.1h-3.923Zm4.3-6.587v-1.44h-1.854v1.44Z" transform="translate(-477.661 -513.667)" fill="#4dffff"/><path d="M697.566,668.716v6.443l3.114-.666V675.7l-5.832,1.242v-1.206l1.386-.306v-6.713Zm11.141-6.227v5.9H696.18v-5.58l5.364-1.206v1.332l-4.05.9v.918H701.9v1.224h-4.409v1.188h9.9V665.98h-4.409v-1.224h4.409v-1.044h-4.5v-1.224Zm-10.763,6.659,3.312,1.53v1.3l-3.312-1.53Zm0,3.582v-1.3l3.384,1.6v1.278Zm5.166-4.014V675.3l4.752-1.026v1.206l-6.714,1.44v-1.206l.63-.126v-6.875Zm3.708,1.98v1.278l-3.294-1.44v-1.278Zm-3.294,2.034v-1.3l3.294,1.53v1.3Zm4.59-3.852,1.944,8.063h-1.4l-1.926-8.063Z" transform="translate(-507.282 -513.312)" fill="#4dffff"/><path d="M262.632,761.459H249.962V772.33l-.846,2.286h-1.44l.882-2.394V760.163h6.48v-1.08h1.35v1.08h6.245Zm.144,3.438v1.224h-5.561v.522h4.013v5.922H251.87v-5.922h4.014v-.522H250.3V764.9h3.689v-.99h-2.43v-1.224h2.43v-1.1h1.314v1.1h2.484v-1.1H259.1v1.1h2.43v1.224H259.1v.99Zm-10.187,8.009h1.944l-1.908,1.71h-1.944Zm.594-5.039v1.044h2.7v-1.044Zm0,3.474h2.7V770.1h-2.7Zm2.124-6.443h2.484v-.99h-2.484Zm1.908,2.97v1.044H259.9v-1.044Zm2.682,3.474V770.1h-2.682v1.242Zm.612,1.566,1.89,1.71h-1.98l-1.89-1.71Z" transform="translate(-229.112 -573.948)" fill="#4dffff"/><path d="M300.042,769.363v.234l2.34,2.034v1.656l-2.34-2.034v3.6H298.71v-3.384l-3.132,3.167v-1.854l3.132-3.15v-.27h-3.132v-1.278h3.132v-1.062l-2.43.306v-1.278l5.813-.756v1.3l-2.052.252v1.242h3.06v1.278Zm2.5-5.922v1.26h-6.3v-5.237h1.332v1.908l4.338-1.62v1.314l-4.338,1.6v.774Zm2.664-.918.81-1.458h-3.384v-1.3h8.135v1.3h-3.24l-.81,1.458h3.33v9.323h-6.515v-9.323Zm-2.52,12.329,1.71-2.61h1.548l-1.71,2.61Zm6.03-9.791V763.8h-3.852v1.26Zm-3.852,1.26V767.6h3.852v-1.278Zm0,4.247h3.852v-1.71h-3.852Zm4.229,1.674,1.746,2.61h-1.6l-1.746-2.61Z" transform="translate(-258.911 -574.185)" fill="#4dffff"/><path d="M373.338,762.226h13.211v13.949H373.338Zm1.4,12.563h10.4V763.594h-10.4Z" transform="translate(-307.282 -575.903)" fill="#4dffff"/><path d="M420.037,763.064l-.324.342h-1.854l3.816-3.942h1.836l-2.124,2.2v5.4h-1.35Zm6.246,2.916v1.4h6.929v1.26h-7.037l-.09.054,2.628,2.322,3.42-2.088v1.584l-2.376,1.44,3.257,2.9h-1.98l-6.12-5.436L422.323,771v1.566l2.808-1.728v1.44l-4.14,2.52v-2.988L418,773.647v-1.494l5.723-3.51H418v-1.26h6.929v-1.4Zm1.944-4.266,4.985-.594v1.3l-3.906.468,3.762,4.1h-1.836l-3.582-3.906-5.525.666v-1.314l4.445-.54-2.232-2.43h1.836Zm3.312-.63h-1.764l-1.35-1.476h1.764Z" transform="translate(-334.977 -574.185)" fill="#4dffff"/><path d="M466.458,768.859l.828-3.689H465.81v-1.242h1.764l.63-2.754h-1.692v-1.242h7.613v1.242h-1.673v2.754h2.124v1.242h-2.124v3.689H471.12V765.17h-2.466l-.828,3.689Zm7.649,4.482h6.857v1.332H465.9v-1.332h6.857v-1.908h-5V770.1h5v-1.728h1.35V770.1h4.985v1.332h-4.985Zm-4.554-12.167-.612,2.754h2.178v-2.754Zm7.163-.558v6.408h-1.332v-6.408Zm3.636-1.152v10.079h-1.332V759.464Z" transform="translate(-364.806 -574.185)" fill="#4dffff"/><path d="M519.025,763.28l-2.052,2.664v8.909h-1.314v-7.2l-.594.774h-1.638l3.96-5.148Zm-.09-3.816-3.617,4.716h-1.656l3.618-4.716Zm9.719,4.914v1.278H525.27v9.125h-3.1V773.5h1.746v-7.847h-4.9v-1.278ZM527.88,760v1.278h-8.225V760Z" transform="translate(-394.426 -574.185)" fill="#4dffff"/><path d="M565.754,771.523v1.044l2.574-.378v1.242l-7.236,1.08v-1.242l3.384-.5v-1.242h-3.042v-1.188h3.042v-.756h-2.844V764h2.844v-.54h-3.384v-1.224h3.384v-.882l-2.61.342v-1.278l6.516-.864v1.3l-2.628.342v1.044h3.384v1.224h-3.384V764h2.952v5.579h-2.952v.756H568.6v1.188Zm-1.278-6.335h-1.584v.99h1.584Zm-1.584,3.186h1.584v-.99h-1.584Zm4.535-3.186h-1.674v.99h1.674Zm-1.674,3.186h1.674v-.99h-1.674Zm7.361-6.119h2.79v12.419h-3.654v-1.26h2.322v-9.827h-1.8l-2.808,11.267h-1.422l2.808-11.267h-2.016v-1.332h2.358l.684-2.79H573.8Z" transform="translate(-424.077 -574.185)" fill="#4dffff"/><path d="M616.563,762.99h-5.075v2.952h-1.35v-4.175h6.425v-.738h-5.831V759.75h12.923v1.278h-5.813v.738h6.407v4.175H622.9V762.99h-5.058V767h-1.278Zm8.243,10.709v1.224h-8.243V773H611.6v-5.759h11.213V773h-4.967v.7Zm-8.783-9.017h-4.032v-1.17h4.032Zm-4.032.576h4.032v1.17h-4.032Zm.9,3.168v1.08h3.671v-1.08Zm3.671,3.366v-1.08h-3.671v1.08Zm4.914-3.366h-3.635v1.08h3.635Zm0,3.366v-1.08h-3.635v1.08Zm.918-7.109h-4.031v-1.17h4.031Zm-4.031.576h4.031v1.17h-4.031Z" transform="translate(-454.587 -574.363)" fill="#4dffff"/><path d="M659.872,765.25v1.494l-3.546-1.62V763.63Zm-.81,2.916h1.476l-2.628,6.984h-1.476Zm.81-6.767v1.494l-3.186-1.458v-1.494Zm10.745,8.189h-2.88v5.562h-1.4v-5.562h-2.9v-6.857h2.5l.612-1.278h-4.284V772.4l-1.026,2.754h-1.4l1.08-2.916V760.157h10.6v1.3h-3.491l-.612,1.278h3.2Zm-8.315,5.237,2.124-4.067h1.53l-2.124,4.067Zm6.948-10.763h-4.464v1.368h4.464Zm-4.464,2.682v1.512h4.464v-1.512Zm4.788,4,2.142,4.086h-1.548l-2.124-4.086Z" transform="translate(-483.318 -574.482)" fill="#4dffff"/><path d="M257.479,871.269h9.953V872.6H256.957l-2.16-1.818-2.574,2.178v-1.746l2-1.674v-5.436h-2v-1.332h3.348v6.894Zm-2-10.331-2.988-1.1v-1.4l2.988,1.08Zm2.7-.108h-2.07v-1.224h2.105v-2.124h1.314v2.124h2.106v1.224h-2.178l-.324,1.656h2.142v7.775h-2.394v-1.08h1.152v-5.525h-1.116l-1.278,6.552h-1.277Zm9.251-1.26v1.224H263.04l-.2.756h-1.314l1.044-4.086h1.314l-.522,2.106Zm-2.106,5.4h2.106v1.224H265.02v4.068h-2.232v-1.17H263.8v-2.9h-2.25v-1.224h2.25v-1.656h.954l.216-.432h-2.9v-1.116h4.985Z" transform="translate(-231.941 -635.147)" fill="#4dffff"/><path d="M302.813,861.966v-.936h-1.26v8.459l-.81,3.005h-1.332l.846-3.1v-9.593h3.366v-2.628h1.332v.954h3.564v1.116h-3.564v.558h4.536l-.774,2.286h-1.332l.36-1.062h-3.689v.792l2.772-.342v1.1l-2.772.342v.522h4.374v1.044h-5.616v-1.4l-.99.109v-1.1Zm-1.134,3.852v-1.008H309.1v1.008Zm6.03,3.582-.54.972,1.422-.252v1.242l-6.875,1.152v-1.242l2.034-.342-.792-1.422h1.278l.684,1.224.81-.126.666-1.206Zm.468-3.257v3.078H302.6v-3.078Zm-1.17,2.07v-1.044h-3.24v1.044Zm7.937-4.373-1.638,3.132,1.3,5.706h-1.332l-.882-3.924-1.872,3.582h-1.4l2.844-5.454-.828-3.654-2.3.576v-1.314l2.016-.5-1.062-4.7h1.332l.99,4.374,2.681-.666v1.314l-2.393.594.5,2.178.648-1.242Zm-.9-3.708h-1.3l-.612-2.7h1.3Z" transform="translate(-261.296 -634.969)" fill="#4dffff"/><path d="M349.686,858.369h12.959v15.047h-1.4v-13.7H351l-.9,13.7h-1.4Zm6.857,4.7v1.53h3.69v1.3H351.54v-1.3h3.672v-1.53h-3.078v-1.3h3.078v-1.62h1.332v1.62h3.1v1.3Zm-4.175,8.783v-5.165H359.3v5.165Zm1.332-3.87v2.574h4.265V867.98Z" transform="translate(-291.953 -635.71)" fill="#4dffff"/><path d="M400.637,871.174h9.647v1.278H400.078l-2.034-1.512-2.97,1.782v-1.584l2.016-1.206v-3.888h-1.926v-1.332h3.258v4.806Zm-2.088-8.981v1.35l-3.24-1.17v-1.368Zm0-3.258v1.35l-3.113-1.134V857.8Zm1.368,11.591,3.906-3.186h-5.039v-1.116h5.075v-.774h1.35v-1.386h-.63l-2.952,2.052h-2.052l2.952-2.052h-2.232v.9h-1.278V863h4.841v-.324h-3.4v-4.86h2.772l.486-.594h1.566l-.486.594h3.816v4.86h-3.4V863h4.824v1.962h-.36v.612h-4.463v.648h5.058v1.116h-4.428l-.594.486h3.96v3.042H405.82v-1.026h2.052v-.9h-4l-1.944,1.584Zm7.415-11.627h-5.6v.306h5.6Zm0,1.566v-.45h-5.6v.45Zm-5.6.81v.288h5.6v-.288Zm7.037,2.79h-2.34v.594h2.34Z" transform="translate(-320.804 -634.999)" fill="#4dffff"/><path d="M457.959,859.89h-3.4l-1.242,1.764h3.834V872.7h-1.368v-9.737h-3.456v2.574h3.168v1.278h-4.5v-3.852h-.81L447,867.359H445.36l3.186-4.392h-3.42V872.7h-1.35V861.654h3.8l-1.242-1.764h-3.4v-1.332h6.821v-1.332h1.368v1.332h6.84Zm-10.6,12.185v-4.806h6.173v4.806Zm4.338-10.421,1.242-1.764h-4.985l1.242,1.764Zm-3.024,6.894v2.25H452.2v-2.25Z" transform="translate(-350.573 -634.999)" fill="#4dffff"/><path d="M491.786,866.2h6.389v7.037h-6.389Zm1.332,5.759h3.726v-4.482h-3.726Zm1.422-13.589h8.567v6.605H494.54Zm1.332,5.31h5.886v-4.014h-5.886Zm3.69,2.52h6.461v7.037h-6.461Zm1.332,5.759h3.78v-4.482h-3.78Z" transform="translate(-380.964 -635.71)" fill="#4dffff"/><path d="M537.5,879.852v-1.386h4.661v1.386Z" transform="translate(-409.4 -648.212)" fill="#4dffff"/><path d="M556.83,873.3l2.5-6.66h1.476l-2.52,6.66Zm3.528-10.205V864.6l-3.384-1.584v-1.512Zm.054-3.491v1.512l-2.988-1.4v-1.494Zm9.629,3.222h1.89v3.654h-1.35v-2.483H562.14v2.483h-1.35v-3.654h1.872v-4.644h7.379ZM563.075,873.3V864.64H569.7V873.3h-1.386v-2.61H564.39v2.61Zm.936-13.841v3.365h1.494v-2.61h3.186v-.756Zm4.3,6.5H564.39v1.08h3.923Zm-3.923,3.456h3.923v-1.1H564.39Zm4.3-6.588v-1.44h-1.854v1.44Z" transform="translate(-421.426 -635.591)" fill="#4dffff"/><path d="M607.166,864.716v6.443l3.114-.666V871.7l-5.832,1.242v-1.206l1.386-.306v-6.713Zm11.141-6.227v5.9H605.78v-5.579l5.363-1.206v1.332l-4.049.9v.918H611.5v1.224h-4.409v1.188h9.9V861.98h-4.41v-1.224h4.41v-1.044h-4.5v-1.224Zm-10.763,6.659,3.312,1.53v1.3l-3.312-1.53Zm0,3.582v-1.3l3.384,1.6v1.278Zm5.165-4.014V871.3l4.752-1.026v1.206l-6.713,1.44v-1.206l.63-.126v-6.875Zm3.708,1.98v1.278l-3.294-1.44v-1.278Zm-3.294,2.034v-1.3l3.294,1.53v1.3Zm4.59-3.852,1.944,8.063h-1.4l-1.926-8.063Z" transform="translate(-451.047 -635.236)" fill="#4dffff"/><path d="M384.66,962.556v.953l2.393,3.672h-1.53l-.864-1.331v5h-1.332v-4.824l-2.61,3.348v-2.124l2.61-3.348v-1.35h-2.61v-1.3h2.61v-5.8h1.332v5.8h2.232v1.3Zm-1.422-2.07h-1.332l-1.17-3.888h1.332Zm4-3.888-1.17,3.888H384.7l1.188-3.888Zm4.9,4.284h3.8v1.224H387v-1.224h3.815v-.9h-2.969v-1.224h2.969v-.9h-3.293v-1.224h3.293v-1.17h1.314v1.17H395.4v1.224h-3.276v.9h2.952v1.224h-2.952Zm-4.121,9.971v-8.171h6.929v8.171h-1.3v-2.322h-4.374v2.322Zm5.633-6.894h-4.374V965h4.374Zm-4.374,3.311h4.374v-1.008h-4.374Z" transform="translate(-311.873 -696.109)" fill="#4dffff"/><path d="M443.544,962.227v1.332H428.335v-1.332h6.894v-1.4h-5.6v-1.332h5.6v-1.4H429v-1.332h7.992l1.062-1.53h1.71l-1.062,1.53h4.14v1.332h-6.21v1.4h5.6v1.332h-5.6v1.4Zm0,7V970.7l-7.739-2.466-7.47,2.411v-1.44L435.229,967v-.81h-6.785v-1.332h6.785v-1.1h1.4v1.1h6.785v1.332h-6.785v.846Zm-9.161-12.8h-1.692l-.846-1.206h1.692Z" transform="translate(-341.494 -695.961)" fill="#4dffff"/><path d="M475.952,960.751v-1.3h5.9v1.3h-2.088V970.7h-1.35v-7.362l-1.026,5.634h-1.35l1.17-6.516h1.206v-1.71Zm5.472-4.805v1.3H476.4v-1.3Zm-1.3,12.977v-7.2h1.224v7.2Zm1.836-7h9.161v1.17h-9.161Zm7.721,5.544-1.152,1.836h2.592v1.224h-9.161V969.3h5.058l1.152-1.836Zm.792-11.267v5.328H482.63V956.2h2.232v-.972h1.188v.972h.99v-.972h1.206v.972Zm-.342,7.254v3.8h-7.181v-3.8Zm-5.724,5.669-1.044-1.656h1.476l1.044,1.656Zm.45-11.807h-1.008v.99h1.008Zm-1.008,2.088v1.008h1.008V959.4Zm4.986,6.641v-1.4h-4.572v1.4Zm-1.8-8.729h-.99v.99h.99Zm0,2.088h-.99v1.008h.99Zm2.2-2.088h-.99v.99h.99Zm-.99,3.1h.99V959.4h-.99Z" transform="translate(-371.115 -695.961)" fill="#4dffff"/><path d="M525.047,964.2h6.389v7.037h-6.389Zm1.332,5.76H530.1v-4.482h-3.726Zm1.422-13.589h8.567v6.605H527.8Zm1.332,5.309h5.885v-4.013h-5.885Zm3.689,2.52h6.462v7.037h-6.462Zm1.332,5.76h3.779v-4.482h-3.779Z" transform="translate(-401.655 -696.672)" fill="#4dffff"/></g><path d="M659.167,859.791v.89h-6.854v-.89H655.1v-.951h-2.016v-.878H655.1v-1.036h1.28v1.036H658.4v.878H656.38v.951Zm-.491,5.79h-2.3v1.829H655.1v-1.829h-2.3V864.7h2.3v-1.048h-2.735v-.89h3.383l1.034-1.914h1.367l-1.016,1.914H659.1v.89H656.38V864.7h2.3Zm-4.54-3-.806-1.731h1.314l.806,1.731Zm11.639,3.876h1.385v.829h-2.7v-7.2h-1.437l-1.28,2.853,2.121,2.5h-1.437l-1.192-1.4-1.525,3.377h-1.35L660.342,863l-1.332-1.56h1.455l.385.463.824-1.816H659.36v-.9h2.717l.982-2.194h1.367l-1,2.194h2.349Z" transform="translate(-350.149 -480.902)" fill="#4dffff"/><path d="M660.233,886.384h6.857v1.332H652.026v-1.332h6.857v-1.908h-5v-1.332h5v-1.728h1.35v1.728h4.985v1.332h-4.985Z" transform="translate(-349.97 -496.136)" fill="#4dffff"/></g></svg>