<svg xmlns="http://www.w3.org/2000/svg" width="202" height="76.527" viewBox="0 0 202 76.527"><g transform="translate(-381 -532.473)"><g transform="translate(399 554)" fill="none"><path d="M0,0H149.753L184,55H0Z" stroke="none"/><path d="M 3 3 L 3 52 L 178.5979461669922 52 L 148.0871276855469 3 L 3 3 M 0 0 L 149.7531585693359 0 L 184 55 L 0 55 L 0 0 Z" stroke="none" fill="red"/></g><g transform="translate(381 576.057) rotate(-90)" fill="red"><path d="M 32.39331817626953 38.68521881103516 L 11.18984508514404 38.68521881103516 L 0.5721141695976257 19.59260749816895 L 11.18984508514404 0.4999974966049194 L 32.39331817626953 0.4999974966049194 L 43.01105117797852 19.59260749816895 L 32.39331817626953 38.68521881103516 Z" stroke="none"/><path d="M 11.48390960693359 0.9999961853027344 L 1.144237518310547 19.59260749816895 L 11.48390960693359 38.18521881103516 L 32.0992546081543 38.18521881103516 L 42.43892669677734 19.59260749816895 L 32.0992546081543 0.9999961853027344 L 11.48390960693359 0.9999961853027344 M 10.89579391479492 -3.814697265625e-06 L 32.68737030029297 -3.814697265625e-06 L 43.58316040039062 19.59260749816895 L 32.68737030029297 39.18521881103516 L 10.89579391479492 39.18521881103516 L 3.814697265625e-06 19.59260749816895 L 10.89579391479492 -3.814697265625e-06 Z" stroke="none" fill="red"/></g><g transform="translate(391 576)" fill="red" stroke="red" stroke-width="1"><rect width="3" height="33" stroke="none"/><rect x="0.5" y="0.5" width="2" height="32" fill="none"/></g><text transform="translate(429 591)" fill="red" font-size="25" font-family="PingFangTC-Medium, PingFang TC" font-weight="500" letter-spacing="0.15em"><tspan x="0" y="0">火系角色</tspan></text><path d="M12.375,1.367A1.378,1.378,0,0,0,9.846.62c-7.1,10.372,2.988,10.838,2.988,15.88A3.667,3.667,0,1,1,5.5,16.446v-4.9A1.375,1.375,0,0,0,3.126,10.6,11.456,11.456,0,0,0,0,18.333a11,11,0,0,0,22,0C22,8.577,12.375,7.276,12.375,1.367Z" transform="translate(389.593 539.333)" fill="#021c31"/></g></svg>