<svg xmlns="http://www.w3.org/2000/svg" width="202" height="76.527" viewBox="0 0 202 76.527"><g transform="translate(-381 -532.473)"><g transform="translate(399 554)" fill="none"><path d="M0,0H149.753L184,55H0Z" stroke="none"/><path d="M 3 3 L 3 52 L 178.5979461669922 52 L 148.0871276855469 3 L 3 3 M 0 0 L 149.7531585693359 0 L 184 55 L 0 55 L 0 0 Z" stroke="none" fill="#1ec7d5"/></g><g transform="translate(381 576.057) rotate(-90)" fill="#1ec7d5"><path d="M 32.39331817626953 38.68521881103516 L 11.18984508514404 38.68521881103516 L 0.5721141695976257 19.59260749816895 L 11.18984508514404 0.4999974966049194 L 32.39331817626953 0.4999974966049194 L 43.01105117797852 19.59260749816895 L 32.39331817626953 38.68521881103516 Z" stroke="none"/><path d="M 11.48390960693359 0.9999961853027344 L 1.144237518310547 19.59260749816895 L 11.48390960693359 38.18521881103516 L 32.0992546081543 38.18521881103516 L 42.43892669677734 19.59260749816895 L 32.0992546081543 0.9999961853027344 L 11.48390960693359 0.9999961853027344 M 10.89579391479492 -3.814697265625e-06 L 32.68737030029297 -3.814697265625e-06 L 43.58316040039062 19.59260749816895 L 32.68737030029297 39.18521881103516 L 10.89579391479492 39.18521881103516 L 3.814697265625e-06 19.59260749816895 L 10.89579391479492 -3.814697265625e-06 Z" stroke="none" fill="#1ec7d5"/></g><path d="M14.887,12.37c.608,4.9,3.716,5.771,3.716,9.178a3.856,3.856,0,0,1-7.712,0c0-3.407,3.108-4.278,3.716-9.178a.144.144,0,0,1,.28,0ZM22.03,1.653c.608,4.9,3.716,5.77,3.716,9.178a3.856,3.856,0,0,1-7.711,0c0-3.407,3.108-4.278,3.716-9.178a.143.143,0,0,1,.279,0Zm-14.289,0c.608,4.9,3.716,5.771,3.716,9.178a3.856,3.856,0,0,1-7.711,0c0-3.407,3.108-4.278,3.716-9.178a.143.143,0,0,1,.279,0Z" transform="translate(385.846 540.815)" fill="#031c6b"/><rect width="3" height="33" transform="translate(391 576)" fill="#1ec7d5"/><text transform="translate(429 591)" fill="#1ec7d5" font-size="25" font-family="PingFangTC-Medium, PingFang TC" font-weight="500" letter-spacing="0.15em"><tspan x="0" y="0">水系角色</tspan></text></g></svg>