<svg xmlns="http://www.w3.org/2000/svg" width="202" height="76.527" viewBox="0 0 202 76.527"><g transform="translate(-381 -532.473)"><g transform="translate(399 554)" fill="none"><path d="M0,0H149.753L184,55H0Z" stroke="none"/><path d="M 3 3 L 3 52 L 178.5979461669922 52 L 148.0871276855469 3 L 3 3 M 0 0 L 149.7531585693359 0 L 184 55 L 0 55 L 0 0 Z" stroke="none" fill="#70a330"/></g><g transform="translate(381 576.057) rotate(-90)" fill="#70a330"><path d="M 32.39331817626953 38.68521881103516 L 11.18984508514404 38.68521881103516 L 0.5721141695976257 19.59260749816895 L 11.18984508514404 0.4999974966049194 L 32.39331817626953 0.4999974966049194 L 43.01105117797852 19.59260749816895 L 32.39331817626953 38.68521881103516 Z" stroke="none"/><path d="M 11.48390960693359 0.9999961853027344 L 1.144237518310547 19.59260749816895 L 11.48390960693359 38.18521881103516 L 32.0992546081543 38.18521881103516 L 42.43892669677734 19.59260749816895 L 32.0992546081543 0.9999961853027344 L 11.48390960693359 0.9999961853027344 M 10.89579391479492 -3.814697265625e-06 L 32.68737030029297 -3.814697265625e-06 L 43.58316040039062 19.59260749816895 L 32.68737030029297 39.18521881103516 L 10.89579391479492 39.18521881103516 L 3.814697265625e-06 19.59260749816895 L 10.89579391479492 -3.814697265625e-06 Z" stroke="none" fill="#70a330"/></g><g transform="translate(391 576)" fill="#70a330" stroke="#70a330" stroke-width="1"><rect width="3" height="33" stroke="none"/><rect x="0.5" y="0.5" width="2" height="32" fill="none"/></g><text transform="translate(429 591)" fill="#70a330" font-size="25" font-family="PingFangTC-Medium, PingFang TC" font-weight="500" letter-spacing="0.15em"><tspan x="0" y="0">木系角色</tspan></text><path d="M18.308,15.146c-2.627,6.517-8.92,2.574-8.92,2.574-1.931,3.9-5.12,6.408-8.8,6.422a.582.582,0,1,1,0-1.163c3.07-.014,5.745-2.036,7.495-5.249-1.959.758-5.654,1.33-7.7-3.919,5.2-2.141,7.585.534,8.5,2.169a17.337,17.337,0,0,0,1.03-3.8S3.248,13.224,2.78,7.5c5.678-2.284,7.275,3.657,7.275,3.657.076-.8.157-2.508.157-2.546,0,0-5.068-3.514-1.816-7.876,5.94,2.05,2.927,7.742,2.927,7.742.024.076.024,1.135,0,1.592,0,0,2.155-4.243,6.5-2.741-.2,6.388-6.765,5.073-6.765,5.073a20.059,20.059,0,0,1-.954,3.695s3.957-4.377,8.2-.954Z" transform="translate(389.845 541.825)" fill="#021c4b"/></g></svg>