<svg xmlns="http://www.w3.org/2000/svg" xmlns:xlink="http://www.w3.org/1999/xlink" width="444" height="183.053" viewBox="0 0 444 183.053"><defs><linearGradient id="a" x1="0.145" y1="-0.176" x2="0.993" y2="1.829" gradientUnits="objectBoundingBox"><stop offset="0" stop-color="#7007c0"/><stop offset="0.216" stop-color="#5c0a9e"/><stop offset="0.574" stop-color="#3f0f6d"/><stop offset="0.847" stop-color="#2d124f"/><stop offset="1" stop-color="#271444"/></linearGradient><linearGradient id="b" x1="0.5" y1="1" x2="0.5" gradientUnits="objectBoundingBox"><stop offset="0.141" stop-color="#381561"/><stop offset="0.32" stop-color="#2c114b"/><stop offset="0.563" stop-color="#1f0e35"/><stop offset="0.794" stop-color="#180c27"/><stop offset="1" stop-color="#160c23"/></linearGradient></defs><g transform="translate(-93.108 -104.779)"><path d="M93.108,141.079V117.357h23.721L93.108,141.079" transform="translate(0 -2.672)" fill="#0bd7ff"/><path d="M476.569,114.685H455.983l-9.906-9.906H336.25l-9.906,9.906H128.981L93.108,150.558V287.832h23.429l21.939-21.939H482.57l43.836-100.454Z" transform="translate(0 0)" fill="url(#a)"/><path d="M105.764,280.554V157.375L135.8,127.341H333.161l9.906-9.905H444.638l9.906,9.905h20.532l41.849,42.619L479.2,258.615H137.037L115.1,280.554Z" transform="translate(-2.689 -2.689)" fill="none" stroke="#707070" stroke-miterlimit="10" stroke-width="1"/><g transform="translate(110.95 132.527)"><path d="M115.764,165.434l25.421-25.421H473.9l35.537,36.19-32.9,79.333H135.9l-20.136,20.135Z" transform="translate(-115.764 -140.013)" fill="url(#b)"/><g opacity="0.5" style="mix-blend-mode:multiply;isolation:isolate"><path d="M115.764,165.434l25.421-25.421H473.9l35.537,36.19-32.9,79.333H135.9l-20.136,20.135Z" transform="translate(-115.764 -140.013)" fill="#34185e"/></g></g><g transform="translate(482.598 114.685)"><g transform="translate(0)"><path d="M593.659,268.584h4.672l43.855-100.473-49.837-50.754h-4.673l49.837,50.754Z" transform="translate(-587.677 -117.357)" fill="#0bd7ff"/></g></g><path d="M200.225,116.486l3.229-3.229H352.332l-3.229,3.229Z" transform="translate(-22.759 -1.801)" fill="#0bd7ff"/><path d="M504.24,129.356h-89.73l2.434-2.434h84.828Z" transform="translate(-68.287 -4.705)" fill="#0bd7ff"/></g></svg>