<svg xmlns="http://www.w3.org/2000/svg" width="16.26" height="270.715" viewBox="0 0 16.26 270.715"><rect width="16.26" height="4.646" fill="#4dffff"/><g transform="translate(0 16.212)"><path d="M427.641-670.963h-16.26v-9.254h16.26Zm0-20.822h-16.26v-9.252h16.26Zm0-20.819h-16.26v-9.254h16.26Zm0-20.822h-16.26v-9.254h16.26Zm0-20.822h-16.26V-763.5h16.26Zm0-20.822h-16.26v-9.254h16.26Zm0-20.819h-16.26v-9.254h16.26Zm0-20.822h-16.26v-9.254h16.26Zm0-20.822h-16.26v-9.254h16.26Zm0-20.822h-16.26v-9.254h16.26Zm0-20.822h-16.26v-9.254h16.26Zm0-20.822h-16.26v-9.254h16.26Z" transform="translate(-411.381 909.251)" fill="#4dffff"/></g><g transform="translate(0 266.069)"><rect width="16.26" height="4.646" fill="#4dffff"/></g></svg>