<svg xmlns="http://www.w3.org/2000/svg" width="121.372" height="14.367" viewBox="0 0 121.372 14.367"><path d="M548.9-707.7H545.85v-14.367H548.9Zm5.916-14.367h-3.045V-707.7h3.045Zm5.916,0h-3.045V-707.7h3.045Zm5.916,0H563.6V-707.7h3.045Zm5.916,0h-3.045V-707.7h3.045Zm5.916,0h-3.045V-707.7h3.045Zm5.916,0h-3.045V-707.7h3.045Zm5.916,0h-3.045V-707.7h3.045Zm5.916,0H593.18V-707.7h3.045Zm5.916,0H599.1V-707.7h3.045Zm5.919,0h-3.048V-707.7h3.048Zm5.916,0h-3.045V-707.7h3.045Zm5.916,0h-3.045V-707.7h3.045Zm5.916,0h-3.045V-707.7h3.045Zm5.916,0h-3.045V-707.7h3.045Zm5.916,0H634.6V-707.7h3.045Zm5.916,0h-3.045V-707.7h3.045Zm5.916,0h-3.045V-707.7h3.045Zm5.916,0h-3.045V-707.7h3.045Zm5.916,0H658.26V-707.7h3.045Zm5.916,0h-3.045V-707.7h3.045Z" transform="translate(-545.85 722.062)" fill="#0068e8"/></svg>