<svg xmlns="http://www.w3.org/2000/svg" xmlns:xlink="http://www.w3.org/1999/xlink" width="400" height="80.257" viewBox="0 0 400 80.257"><defs><linearGradient id="a" x1="0.149" y1="-0.738" x2="0.75" y2="2.238" gradientUnits="objectBoundingBox"><stop offset="0" stop-color="#7007c0"/><stop offset="0.216" stop-color="#5c0a9e"/><stop offset="0.574" stop-color="#3f0f6d"/><stop offset="0.847" stop-color="#2d124f"/><stop offset="1" stop-color="#271444"/></linearGradient><linearGradient id="b" x1="0.175" y1="-1.172" x2="0.75" y2="2.672" gradientUnits="objectBoundingBox"><stop offset="0.141" stop-color="#381561"/><stop offset="0.32" stop-color="#2c114b"/><stop offset="0.563" stop-color="#1f0e35"/><stop offset="0.794" stop-color="#180c27"/><stop offset="1" stop-color="#160c23"/></linearGradient><linearGradient id="c" x1="0.203" y1="-1.095" x2="0.795" y2="2.106" gradientUnits="objectBoundingBox"><stop offset="0" stop-color="#d62afd"/><stop offset="0.257" stop-color="#bb1bfd"/><stop offset="0.56" stop-color="#a20efd"/><stop offset="0.744" stop-color="#9909fd"/></linearGradient></defs><g transform="translate(400 80.257) rotate(180)"><path d="M0,499.066v-80H79.2l37.558,37.186h240L400,499.066Z" transform="translate(0 -419.066)" fill="url(#a)"/><path d="M0,439.745H64.538l37.552,37.621H342.051L364.645,500" transform="translate(0 -420)" fill="none" stroke="#707070" stroke-miterlimit="10" stroke-width="0.728"/><g transform="translate(0 26.89)"><path d="M0,446.89H61.581l37.55,37.62H339.079L354.54,500H0Z" transform="translate(0 -446.89)" fill="url(#b)"/><g opacity="0.5" style="mix-blend-mode:multiply;isolation:isolate"><path d="M0,446.89H61.581l37.55,37.62H339.079L354.54,500H0Z" transform="translate(0 -446.89)" fill="#34185e"/></g></g><path d="M353.865,462.154H113.877L76.321,425.022H0v1.459H73.866l37.556,37.132h34.406l4.926,4.87H281.023l4.926-4.87H351.41l32.823,32.453h3.93Z" transform="translate(0 -419.066)" fill="url(#c)"/></g></svg>